<?xml version="1.0" encoding="UTF-8" standalone="no"?>
<svg
   xmlns:dc="http://purl.org/dc/elements/1.1/"
   xmlns:cc="http://creativecommons.org/ns#"
   xmlns:rdf="http://www.w3.org/1999/02/22-rdf-syntax-ns#"
   xmlns:svg="http://www.w3.org/2000/svg"
   xmlns="http://www.w3.org/2000/svg"
   xmlns:sodipodi="http://sodipodi.sourceforge.net/DTD/sodipodi-0.dtd"
   xmlns:inkscape="http://www.inkscape.org/namespaces/inkscape"
   viewBox="0 0 36 36"
   version="1.1"
   id="svg14"
   sodipodi:docname="1f476.svg"
   inkscape:version="1.0.1 (3bc2e813f5, 2020-09-07)">
  <metadata
     id="metadata20">
    <rdf:RDF>
      <cc:Work
         rdf:about="">
        <dc:format>image/svg+xml</dc:format>
        <dc:type
           rdf:resource="http://purl.org/dc/dcmitype/StillImage" />
        <dc:title></dc:title>
      </cc:Work>
    </rdf:RDF>
  </metadata>
  <defs
     id="defs18" />
  <sodipodi:namedview
     pagecolor="#ffffff"
     bordercolor="#666666"
     borderopacity="1"
     objecttolerance="10"
     gridtolerance="10"
     guidetolerance="10"
     inkscape:pageopacity="0"
     inkscape:pageshadow="2"
     inkscape:window-width="1920"
     inkscape:window-height="1053"
     id="namedview16"
     showgrid="false"
     inkscape:zoom="23.305556"
     inkscape:cx="16.619005"
     inkscape:cy="17.768201"
     inkscape:window-x="1920"
     inkscape:window-y="27"
     inkscape:window-maximized="1"
     inkscape:current-layer="svg14" />
  <path
     fill="#EF9645"
     d="M17.982 11h-.031c-1.188 0-2.301-.458-3.135-1.304-.746-.756-1.138-1.787-1.076-2.847.032-.551.49-.96 1.057-.935.551.033.972.508.939 1.06-.029.495.155.983.503 1.336.459.466 1.071.725 1.725.729.653-.036 1.27-.247 1.735-.705 1.298-1.28 1.312-3.378.032-4.677-1.699-1.721-4.48-1.74-6.202-.042-.394.389-1.027.383-1.414-.01-.388-.393-.383-1.026.01-1.414 2.506-2.472 6.557-2.444 9.03.062 2.055 2.084 2.031 5.432-.052 7.486-.836.826-1.945 1.261-3.121 1.261z"
     id="path12" />
</svg>
