<?xml version="1.0" encoding="UTF-8" standalone="no"?>
<svg
   xmlns:dc="http://purl.org/dc/elements/1.1/"
   xmlns:cc="http://creativecommons.org/ns#"
   xmlns:rdf="http://www.w3.org/1999/02/22-rdf-syntax-ns#"
   xmlns:svg="http://www.w3.org/2000/svg"
   xmlns="http://www.w3.org/2000/svg"
   xmlns:sodipodi="http://sodipodi.sourceforge.net/DTD/sodipodi-0.dtd"
   xmlns:inkscape="http://www.inkscape.org/namespaces/inkscape"
   viewBox="0 0 36 36"
   version="1.1"
   id="svg34"
   sodipodi:docname="1f649.svg"
   inkscape:version="1.0.1 (3bc2e813f5, 2020-09-07)">
  <metadata
     id="metadata40">
    <rdf:RDF>
      <cc:Work
         rdf:about="">
        <dc:format>image/svg+xml</dc:format>
        <dc:type
           rdf:resource="http://purl.org/dc/dcmitype/StillImage" />
        <dc:title></dc:title>
      </cc:Work>
    </rdf:RDF>
  </metadata>
  <defs
     id="defs38" />
  <sodipodi:namedview
     pagecolor="#ffffff"
     bordercolor="#666666"
     borderopacity="1"
     objecttolerance="10"
     gridtolerance="10"
     guidetolerance="10"
     inkscape:pageopacity="0"
     inkscape:pageshadow="2"
     inkscape:window-width="1920"
     inkscape:window-height="1053"
     id="namedview36"
     showgrid="false"
     inkscape:zoom="23.305556"
     inkscape:cx="18"
     inkscape:cy="18"
     inkscape:window-x="0"
     inkscape:window-y="27"
     inkscape:window-maximized="1"
     inkscape:current-layer="svg34" />
  <path
     fill="#BF6952"
     d="M6.874 23.245c.598-1.293.876-2.323.876-3.245 0-1.308-.604-2.56-1.09-3.566-.274-.568-.557-1.156-.557-1.434 0-.193.142-.793.267-1.323.387-1.636.868-3.673.263-4.649-.15-.241-.434-.528-.942-.528C3.74 8.5.75 12.756.75 18c0 2.576.174 4.177.555 5.112L.5 36h7l-.837-12.441c.085-.093.157-.197.211-.314z"
     id="path22" />
  <path
     fill="#D79E84"
     d="M5.691 9.5c-1.373 0-4.118 3.675-4.118 8.5 0 2.542.185 4.174.55 4.851.255.475.985.47 1.688.463l.232-.001c1.16 0 1.985-.283 2.112-.558.519-1.121.771-2.023.771-2.755 0-1.036-.519-2.112-.977-3.061-.374-.776-.67-1.389-.67-1.939 0-.318.108-.791.299-1.599.264-1.116.755-3.194.396-3.771-.023-.039-.08-.13-.283-.13z"
     id="path26" />
  <path
     fill="#BF6952"
     d="M35.5 36l-.805-12.888c.381-.935.555-2.535.555-5.112 0-5.244-2.99-9.5-4.941-9.5-.508 0-.792.287-.942.528-.606.976-.124 3.013.263 4.649.125.53.267 1.13.267 1.323 0 .278-.283.866-.557 1.434-.486 1.006-1.09 2.259-1.09 3.566 0 .922.278 1.952.877 3.245.054.117.126.221.211.314L28.5 36h7z"
     id="path28" />
  <path
     fill="#D79E84"
     d="M30.309 9.5c-.203 0-.26.091-.284.13-.358.577.133 2.655.396 3.771.191.808.299 1.281.299 1.599 0 .55-.296 1.163-.67 1.939-.458.949-.977 2.025-.977 3.061 0 .732.252 1.634.77 2.755.127.274.951.558 2.112.558l.232.001c.702.007 1.432.012 1.689-.463.365-.676.55-2.308.55-4.851 0-4.825-2.744-8.5-4.117-8.5z"
     id="path32" />
</svg>
