<?xml version="1.0" encoding="UTF-8" standalone="no"?>
<svg
   xmlns:dc="http://purl.org/dc/elements/1.1/"
   xmlns:cc="http://creativecommons.org/ns#"
   xmlns:rdf="http://www.w3.org/1999/02/22-rdf-syntax-ns#"
   xmlns:svg="http://www.w3.org/2000/svg"
   xmlns="http://www.w3.org/2000/svg"
   xmlns:sodipodi="http://sodipodi.sourceforge.net/DTD/sodipodi-0.dtd"
   xmlns:inkscape="http://www.inkscape.org/namespaces/inkscape"
   viewBox="0 0 36 36"
   version="1.1"
   id="svg12"
   sodipodi:docname="1f917.svg"
   inkscape:version="1.0.1 (3bc2e813f5, 2020-09-07)">
  <metadata
     id="metadata18">
    <rdf:RDF>
      <cc:Work
         rdf:about="">
        <dc:format>image/svg+xml</dc:format>
        <dc:type
           rdf:resource="http://purl.org/dc/dcmitype/StillImage" />
        <dc:title></dc:title>
      </cc:Work>
    </rdf:RDF>
  </metadata>
  <defs
     id="defs16" />
  <sodipodi:namedview
     pagecolor="#ffffff"
     bordercolor="#666666"
     borderopacity="1"
     objecttolerance="10"
     gridtolerance="10"
     guidetolerance="10"
     inkscape:pageopacity="0"
     inkscape:pageshadow="2"
     inkscape:window-width="1920"
     inkscape:window-height="1053"
     id="namedview14"
     showgrid="false"
     inkscape:zoom="23.305556"
     inkscape:cx="18"
     inkscape:cy="18"
     inkscape:window-x="0"
     inkscape:window-y="27"
     inkscape:window-maximized="1"
     inkscape:current-layer="svg12" />
  <path
     d="M13.393 23.154l-1.539-2.219s-.543-.867-1.411-.325c-.867.541-.324 1.409-.324 1.409l1.758 3.38s.144.768-.918-.091c-.463-.374-.197-.163-.197-.163l-.44-.361-5.491-4.508s-.709-.748-1.359.042c-.648.791.223 1.341.223 1.341l5.193 4.266c-.12.12-.482.534-.6.663l-5.557-4.56s-.71-.749-1.358.041c-.65.791.222 1.341.222 1.341l5.555 4.562c-.103.14-.363.476-.459.614l-4.792-3.934s-.71-.748-1.358.042c-.651.791.222 1.342.222 1.342l5.094 4.184c-.064.178-.363.646-.41.82l-3.672-3.012s-.709-.752-1.357.041c-.65.791.222 1.341.222 1.341l5.93 4.868.395.326c2.62 2.151 6.489 1.771 8.64-.849 1.971-2.403 1.817-5.853-.24-8.069-.729-.782-1.36-1.653-1.972-2.532zm22.19 4.916c-.648-.793-1.357-.041-1.357-.041l-3.672 3.012c-.047-.174-.346-.643-.41-.82l5.094-4.184s.873-.551.223-1.342c-.648-.79-1.358-.042-1.358-.042l-4.792 3.934c-.096-.139-.357-.475-.459-.614l5.555-4.562s.873-.55.223-1.341c-.648-.79-1.357-.041-1.357-.041l-5.558 4.56c-.117-.129-.479-.543-.6-.663l5.193-4.266s.87-.55.223-1.341c-.65-.79-1.359-.042-1.359-.042l-5.491 4.508-.439.361s.99-.841-.197.163c-1.188 1.004-.918.091-.918.091l1.758-3.38s.543-.868-.324-1.409c-.869-.542-1.411.325-1.411.325l-1.538 2.219c-.613.879-1.244 1.75-1.974 2.533-2.058 2.217-2.212 5.666-.239 8.069 2.15 2.62 6.02 3 8.64.849l.396-.326 5.93-4.868c-.005-.001.867-.551.218-1.342z"
     fill="#F4900C"
     id="path6" />
  <path
     fill="#B55005"
     d="M11.182 25.478s-2.593 3.314.484 7.46c.212.285.75.146.521-.188-.25-.364-2.75-3.896-.4-7.057 0 0-.381-.047-.605-.215zm13.583.098s2.594 3.314-.484 7.46c-.212.285-.75.146-.521-.188.25-.364 2.75-3.896.4-7.057-.001.001.381-.046.605-.215z"
     id="path10" />
</svg>
