<?xml version="1.0" encoding="UTF-8" standalone="no"?>
<svg
   xmlns:dc="http://purl.org/dc/elements/1.1/"
   xmlns:cc="http://creativecommons.org/ns#"
   xmlns:rdf="http://www.w3.org/1999/02/22-rdf-syntax-ns#"
   xmlns:svg="http://www.w3.org/2000/svg"
   xmlns="http://www.w3.org/2000/svg"
   xmlns:sodipodi="http://sodipodi.sourceforge.net/DTD/sodipodi-0.dtd"
   xmlns:inkscape="http://www.inkscape.org/namespaces/inkscape"
   viewBox="0 0 36 36"
   version="1.1"
   id="svg14"
   sodipodi:docname="1f913.svg"
   inkscape:version="1.0.1 (3bc2e813f5, 2020-09-07)">
  <metadata
     id="metadata20">
    <rdf:RDF>
      <cc:Work
         rdf:about="">
        <dc:format>image/svg+xml</dc:format>
        <dc:type
           rdf:resource="http://purl.org/dc/dcmitype/StillImage" />
        <dc:title></dc:title>
      </cc:Work>
    </rdf:RDF>
  </metadata>
  <defs
     id="defs18" />
  <sodipodi:namedview
     pagecolor="#ffffff"
     bordercolor="#666666"
     borderopacity="1"
     objecttolerance="10"
     gridtolerance="10"
     guidetolerance="10"
     inkscape:pageopacity="0"
     inkscape:pageshadow="2"
     inkscape:window-width="1920"
     inkscape:window-height="1053"
     id="namedview16"
     showgrid="false"
     inkscape:zoom="23.305556"
     inkscape:cx="18"
     inkscape:cy="18"
     inkscape:window-x="0"
     inkscape:window-y="27"
     inkscape:window-maximized="1"
     inkscape:current-layer="svg14" />
  <path
     fill="#65471B"
     d="M18 26.591c-.148 0-.291-.011-.438-.016v4.516h.875v-4.517c-.145.005-.289.017-.437.017z"
     id="path6" />
  <path
     fill="#FFF"
     d="M22 26c.016-.004-1.45.378-2.446.486-.366.042-.737.076-1.117.089v4.517H20c1.1 0 2-.9 2-2V26zm-8 0c-.016-.004 1.45.378 2.446.486.366.042.737.076 1.117.089v4.517H16c-1.1 0-2-.9-2-2V26z"
     id="path8" />
  <path
     fill="#292F33"
     d="M34.808 9.627c-.171-.166-1.267.274-2.376-.291-2.288-1.166-8.07-2.291-11.834.376-.403.285-2.087.333-2.558.313-.471.021-2.155-.027-2.558-.313-3.763-2.667-9.545-1.542-11.833-.376-1.109.565-2.205.125-2.376.291-.247.239-.247 1.196.001 1.436.246.239 1.477.515 1.722 1.232.247.718.249 4.958 2.213 6.424 1.839 1.372 6.129 1.785 8.848.238 2.372-1.349 2.289-4.189 2.724-5.881.155-.603.592-.907 1.26-.907s1.105.304 1.26.907c.435 1.691.351 4.532 2.724 5.881 2.719 1.546 7.009 1.133 8.847-.238 1.965-1.465 1.967-5.706 2.213-6.424.245-.717 1.476-.994 1.722-1.232.248-.24.249-1.197.001-1.436zm-20.194 3.65c-.077 1.105-.274 3.227-1.597 3.98-.811.462-1.868.743-2.974.743h-.001c-1.225 0-2.923-.347-3.587-.842-.83-.619-1.146-3.167-1.265-4.12-.076-.607-.28-2.09.388-2.318 1.06-.361 2.539-.643 4.052-.643.693 0 3.021.043 4.155.741 1.005.617.872 1.851.829 2.459zm16.278-.253c-.119.954-.435 3.515-1.265 4.134-.664.495-2.362.842-3.587.842h-.001c-1.107 0-2.163-.281-2.975-.743-1.323-.752-1.52-2.861-1.597-3.966-.042-.608-.176-1.851.829-2.468 1.135-.698 3.462-.746 4.155-.746 1.513 0 2.991.277 4.052.638.668.228.465 1.702.389 2.309z"
     id="path12" />
</svg>
