<?xml version="1.0" encoding="UTF-8" standalone="no"?>
<svg
   xmlns:dc="http://purl.org/dc/elements/1.1/"
   xmlns:cc="http://creativecommons.org/ns#"
   xmlns:rdf="http://www.w3.org/1999/02/22-rdf-syntax-ns#"
   xmlns:svg="http://www.w3.org/2000/svg"
   xmlns="http://www.w3.org/2000/svg"
   xmlns:sodipodi="http://sodipodi.sourceforge.net/DTD/sodipodi-0.dtd"
   xmlns:inkscape="http://www.inkscape.org/namespaces/inkscape"
   viewBox="0 0 36 36"
   version="1.1"
   id="svg22"
   sodipodi:docname="1f912.svg"
   inkscape:version="1.0.1 (3bc2e813f5, 2020-09-07)">
  <metadata
     id="metadata28">
    <rdf:RDF>
      <cc:Work
         rdf:about="">
        <dc:format>image/svg+xml</dc:format>
        <dc:type
           rdf:resource="http://purl.org/dc/dcmitype/StillImage" />
        <dc:title></dc:title>
      </cc:Work>
    </rdf:RDF>
  </metadata>
  <defs
     id="defs26" />
  <sodipodi:namedview
     pagecolor="#ffffff"
     bordercolor="#666666"
     borderopacity="1"
     objecttolerance="10"
     gridtolerance="10"
     guidetolerance="10"
     inkscape:pageopacity="0"
     inkscape:pageshadow="2"
     inkscape:window-width="1920"
     inkscape:window-height="1053"
     id="namedview24"
     showgrid="false"
     inkscape:zoom="23.305556"
     inkscape:cx="18"
     inkscape:cy="18"
     inkscape:window-x="0"
     inkscape:window-y="27"
     inkscape:window-maximized="1"
     inkscape:current-layer="svg22" />
  <path
     fill="#CCD6DD"
     d="M35.474 15.729c-.829-1.104-2.397-1.328-3.501-.5L14.767 28.137c.646-.242 1.51-.444 2.615-.522.256-.018 2.66-.627 2.66-.627l1.293 1.036s.911.367 1.197.539l12.444-9.335c1.103-.827 1.326-2.395.498-3.499z"
     id="path14" />
  <path
     fill="#DA2F47"
     d="M28.686 20.87c-.448-.596-.787-1.145-1.383-.698l-9.922 7.443c.256-.018.5-.042.783-.044 1.36-.009 2.4.195 3.17.452l7.588-5.692c.596-.447.211-.864-.236-1.461z"
     id="path16" />
  <path
     fill="#67757F"
     d="M18.599 25.228l1.234 1.598.741-.595-1.197-1.587zm2.223-1.661l1.235 1.598.741-.595-1.197-1.587zm2.184-1.619l1.234 1.598.741-.595-1.197-1.587zm2.181-1.66l1.235 1.597.741-.594-1.197-1.587zm2.238-1.641l1.235 1.598.74-.595-1.196-1.587zm2.14-1.618l1.235 1.598.74-.595-1.196-1.587z"
     id="path18" />
</svg>
