<?xml version="1.0" encoding="UTF-8" standalone="no"?>
<svg
   xmlns:dc="http://purl.org/dc/elements/1.1/"
   xmlns:cc="http://creativecommons.org/ns#"
   xmlns:rdf="http://www.w3.org/1999/02/22-rdf-syntax-ns#"
   xmlns:svg="http://www.w3.org/2000/svg"
   xmlns="http://www.w3.org/2000/svg"
   xmlns:sodipodi="http://sodipodi.sourceforge.net/DTD/sodipodi-0.dtd"
   xmlns:inkscape="http://www.inkscape.org/namespaces/inkscape"
   viewBox="0 0 36 36"
   version="1.1"
   id="svg8"
   sodipodi:docname="1f47f.svg"
   inkscape:version="1.0.1 (3bc2e813f5, 2020-09-07)">
  <metadata
     id="metadata14">
    <rdf:RDF>
      <cc:Work
         rdf:about="">
        <dc:format>image/svg+xml</dc:format>
        <dc:type
           rdf:resource="http://purl.org/dc/dcmitype/StillImage" />
        <dc:title></dc:title>
      </cc:Work>
    </rdf:RDF>
  </metadata>
  <defs
     id="defs12" />
  <sodipodi:namedview
     pagecolor="#ffffff"
     bordercolor="#666666"
     borderopacity="1"
     objecttolerance="10"
     gridtolerance="10"
     guidetolerance="10"
     inkscape:pageopacity="0"
     inkscape:pageshadow="2"
     inkscape:window-width="1366"
     inkscape:window-height="728"
     id="namedview10"
     showgrid="false"
     inkscape:zoom="11.652778"
     inkscape:cx="23.429459"
     inkscape:cy="20.941021"
     inkscape:window-x="3840"
     inkscape:window-y="312"
     inkscape:window-maximized="1"
     inkscape:current-layer="svg8" />
  <path
     d="M 28.789,12.106 C 28.296,11.12 27.095,10.715 26.105,11.211 l -6,3 c -0.988,0.494 -1.389,1.695 -0.895,2.684 0.186,0.372 0.476,0.654 0.814,0.843 C 20.003,17.892 20,18.001 20,18.001 v 2 c 0,0 0,2 2,2 2,0 2,-2 2,-2 v -2 c 0,0 -0.011,-0.572 -0.318,-1.105 l 4.212,-2.106 c 0.989,-0.495 1.389,-1.696 0.895,-2.684 z"
     id="path859"
     style="fill:#553986;fill-opacity:1" />
  <path
     d="m 15.894,14.211 -6,-3 C 8.906,10.717 7.705,11.118 7.21,12.106 6.716,13.094 7.117,14.295 8.105,14.79 l 4.212,2.106 C 12.011,17.429 12,18.001 12,18.001 v 2 c 0,0 0,2 2,2 2,0 2,-2 2,-2 v -2 c 0,0 -0.003,-0.109 -0.025,-0.263 0.338,-0.189 0.628,-0.471 0.814,-0.843 0.494,-0.988 0.093,-2.189 -0.895,-2.684 z"
     id="path6"
     style="fill:#553986;fill-opacity:1" />
</svg>
