<?xml version="1.0" encoding="UTF-8" standalone="no"?>
<svg
   xmlns:dc="http://purl.org/dc/elements/1.1/"
   xmlns:cc="http://creativecommons.org/ns#"
   xmlns:rdf="http://www.w3.org/1999/02/22-rdf-syntax-ns#"
   xmlns:svg="http://www.w3.org/2000/svg"
   xmlns="http://www.w3.org/2000/svg"
   xmlns:sodipodi="http://sodipodi.sourceforge.net/DTD/sodipodi-0.dtd"
   xmlns:inkscape="http://www.inkscape.org/namespaces/inkscape"
   viewBox="0 0 36 36"
   version="1.1"
   id="svg32"
   sodipodi:docname="1f479.svg"
   inkscape:version="1.0.1 (3bc2e813f5, 2020-09-07)">
  <metadata
     id="metadata38">
    <rdf:RDF>
      <cc:Work
         rdf:about="">
        <dc:format>image/svg+xml</dc:format>
        <dc:type
           rdf:resource="http://purl.org/dc/dcmitype/StillImage" />
        <dc:title></dc:title>
      </cc:Work>
    </rdf:RDF>
  </metadata>
  <defs
     id="defs36" />
  <sodipodi:namedview
     pagecolor="#ffffff"
     bordercolor="#666666"
     borderopacity="1"
     objecttolerance="10"
     gridtolerance="10"
     guidetolerance="10"
     inkscape:pageopacity="0"
     inkscape:pageshadow="2"
     inkscape:window-width="1920"
     inkscape:window-height="1053"
     id="namedview34"
     showgrid="false"
     inkscape:zoom="23.305556"
     inkscape:cx="18.822795"
     inkscape:cy="19.491352"
     inkscape:window-x="1920"
     inkscape:window-y="27"
     inkscape:window-maximized="1"
     inkscape:current-layer="svg32" />
  <path
     fill="#55ACEE"
     d="M13.496 14.984l-2.38-.506c-1.636-.348-3.259.706-3.607 2.342-.348 1.636.706 3.259 2.342 3.607l2.38.506c1.636.348 3.259-.706 3.607-2.342.348-1.636-.706-3.259-2.342-3.607zm9.008-.239l2.38-.506c1.636-.348 3.259.706 3.607 2.342.348 1.636-.706 3.259-2.342 3.607l-2.38.506c-1.636.348-3.259-.706-3.607-2.342-.348-1.636.706-3.259 2.342-3.607z"
     id="path14" />
  <path
     fill="#FFCC4D"
     d="M13.737 15.47l-1.956-.416c-1.345-.286-2.679.581-2.965 1.926-.286 1.345.581 2.679 1.926 2.965l1.956.416c1.345.286 2.679-.581 2.965-1.926.285-1.344-.581-2.679-1.926-2.965z"
     id="path16" />
  <circle
     fill="#292F33"
     cx="12.739"
     cy="17.708"
     r="1.5"
     id="circle18" />
  <path
     fill="#FFCC4D"
     d="M22.263 15.47l1.956-.416c1.345-.286 2.679.581 2.965 1.926.286 1.345-.581 2.679-1.925 2.965l-1.956.416c-1.345.286-2.679-.581-2.965-1.926-.286-1.344.58-2.679 1.925-2.965z"
     id="path20" />
  <circle
     fill="#292F33"
     cx="23.261"
     cy="17.708"
     r="1.5"
     id="circle22" />
  <path
     fill="#292F33"
     d="M15 16c-4.254 0-7.422-2.08-7.555-2.168-.459-.306-.583-.927-.277-1.387.306-.458.926-.583 1.385-.279C8.581 12.185 11.372 14 15 14c.552 0 1 .448 1 1s-.448 1-1 1zm6 0c-.553 0-1-.448-1-1s.447-1 1-1c3.655 0 6.418-1.814 6.445-1.832.46-.307 1.08-.183 1.387.277.307.46.183 1.081-.277 1.387C28.422 13.92 25.254 16 21 16z"
     id="path30" />
</svg>
