<?xml version="1.0" encoding="UTF-8" standalone="no"?>
<svg
   xmlns:dc="http://purl.org/dc/elements/1.1/"
   xmlns:cc="http://creativecommons.org/ns#"
   xmlns:rdf="http://www.w3.org/1999/02/22-rdf-syntax-ns#"
   xmlns:svg="http://www.w3.org/2000/svg"
   xmlns="http://www.w3.org/2000/svg"
   xmlns:sodipodi="http://sodipodi.sourceforge.net/DTD/sodipodi-0.dtd"
   xmlns:inkscape="http://www.inkscape.org/namespaces/inkscape"
   viewBox="0 0 36 36"
   version="1.1"
   id="svg10"
   sodipodi:docname="1f60a.svg"
   inkscape:version="1.0.1 (3bc2e813f5, 2020-09-07)">
  <metadata
     id="metadata16">
    <rdf:RDF>
      <cc:Work
         rdf:about="">
        <dc:format>image/svg+xml</dc:format>
        <dc:type
           rdf:resource="http://purl.org/dc/dcmitype/StillImage" />
        <dc:title></dc:title>
      </cc:Work>
    </rdf:RDF>
  </metadata>
  <defs
     id="defs14" />
  <sodipodi:namedview
     pagecolor="#ffffff"
     bordercolor="#666666"
     borderopacity="1"
     objecttolerance="10"
     gridtolerance="10"
     guidetolerance="10"
     inkscape:pageopacity="0"
     inkscape:pageshadow="2"
     inkscape:window-width="1920"
     inkscape:window-height="1053"
     id="namedview12"
     showgrid="false"
     inkscape:zoom="23.305556"
     inkscape:cx="15.468415"
     inkscape:cy="18"
     inkscape:window-x="1920"
     inkscape:window-y="27"
     inkscape:window-maximized="1"
     inkscape:current-layer="svg10" />
  <path
     d="M 28.001,15 C 27.634,15 27.281,14.798 27.105,14.447 27.08,14.401 26.299,13 24,13 c -2.299,0 -3.08,1.401 -3.112,1.46 -0.26,0.481 -0.859,0.67 -1.345,0.42 C 19.058,14.628 18.861,14.041 19.105,13.552 19.157,13.449 20.423,11 24,11 c 3.577,0 4.843,2.449 4.895,2.553 0.247,0.494 0.047,1.095 -0.447,1.342 C 28.304,14.966 28.151,15 28.001,15 Z"
     id="path869"
     style="fill:#664500;fill-opacity:1" />
  <path
     d="M 7.999,15 C 7.849,15 7.696,14.966 7.553,14.894 7.059,14.647 6.859,14.046 7.106,13.552 7.158,13.448 8.424,11 12,11 c 3.577,0 4.842,2.449 4.894,2.553 0.247,0.494 0.047,1.095 -0.447,1.342 -0.492,0.245 -1.085,0.049 -1.336,-0.436 C 15.068,14.379 14.281,13 12,13 9.683,13 8.901,14.433 8.894,14.447 8.719,14.798 8.366,15 7.999,15 Z"
     id="path867"
     style="fill:#664500;fill-opacity:1" />
</svg>
