<?xml version="1.0" encoding="UTF-8" standalone="no"?>
<svg
   xmlns:dc="http://purl.org/dc/elements/1.1/"
   xmlns:cc="http://creativecommons.org/ns#"
   xmlns:rdf="http://www.w3.org/1999/02/22-rdf-syntax-ns#"
   xmlns:svg="http://www.w3.org/2000/svg"
   xmlns="http://www.w3.org/2000/svg"
   xmlns:sodipodi="http://sodipodi.sourceforge.net/DTD/sodipodi-0.dtd"
   xmlns:inkscape="http://www.inkscape.org/namespaces/inkscape"
   viewBox="0 0 36 36"
   version="1.1"
   id="svg10"
   sodipodi:docname="1f601.svg"
   inkscape:version="1.0.1 (3bc2e813f5, 2020-09-07)">
  <metadata
     id="metadata16">
    <rdf:RDF>
      <cc:Work
         rdf:about="">
        <dc:format>image/svg+xml</dc:format>
        <dc:type
           rdf:resource="http://purl.org/dc/dcmitype/StillImage" />
        <dc:title></dc:title>
      </cc:Work>
    </rdf:RDF>
  </metadata>
  <defs
     id="defs14" />
  <sodipodi:namedview
     pagecolor="#ffffff"
     bordercolor="#666666"
     borderopacity="1"
     objecttolerance="10"
     gridtolerance="10"
     guidetolerance="10"
     inkscape:pageopacity="0"
     inkscape:pageshadow="2"
     inkscape:window-width="1920"
     inkscape:window-height="1053"
     id="namedview12"
     showgrid="false"
     inkscape:zoom="23.305556"
     inkscape:cx="23.25134"
     inkscape:cy="41.729273"
     inkscape:window-x="0"
     inkscape:window-y="27"
     inkscape:window-maximized="1"
     inkscape:current-layer="svg10" />
  <path
     d="M 26,18 C 25.581,18 25.191,17.735 25.052,17.316 24.849,16.717 24.033,15 23,15 c -1.062,0 -1.889,1.827 -2.052,2.316 -0.175,0.523 -0.736,0.808 -1.265,0.632 C 19.16,17.774 18.876,17.207 19.051,16.683 19.177,16.307 20.355,13 23,13 c 2.645,0 3.823,3.307 3.948,3.684 0.175,0.524 -0.108,1.091 -0.632,1.265 C 26.211,17.983 26.104,18 26,18 Z"
     id="path843"
     style="fill:#664500;fill-opacity:1" />
  <path
     d="M 16,18 C 15.581,18 15.191,17.735 15.051,17.316 14.848,16.717 14.034,15 13,15 c -1.062,0 -1.888,1.827 -2.051,2.316 -0.175,0.523 -0.738,0.808 -1.265,0.632 C 9.16,17.774 8.877,17.207 9.052,16.683 9.177,16.307 10.356,13 13,13 c 2.644,0 3.823,3.307 3.949,3.684 0.175,0.524 -0.108,1.091 -0.632,1.265 C 16.211,17.983 16.104,18 16,18 Z"
     id="path4"
     style="fill:#664500;fill-opacity:1" />
</svg>
