<?xml version="1.0" encoding="UTF-8" standalone="no"?>
<svg
   xmlns:dc="http://purl.org/dc/elements/1.1/"
   xmlns:cc="http://creativecommons.org/ns#"
   xmlns:rdf="http://www.w3.org/1999/02/22-rdf-syntax-ns#"
   xmlns:svg="http://www.w3.org/2000/svg"
   xmlns="http://www.w3.org/2000/svg"
   xmlns:sodipodi="http://sodipodi.sourceforge.net/DTD/sodipodi-0.dtd"
   xmlns:inkscape="http://www.inkscape.org/namespaces/inkscape"
   viewBox="0 0 36 36"
   version="1.1"
   id="svg10"
   sodipodi:docname="1f602.svg"
   inkscape:version="1.0.1 (3bc2e813f5, 2020-09-07)">
  <metadata
     id="metadata16">
    <rdf:RDF>
      <cc:Work
         rdf:about="">
        <dc:format>image/svg+xml</dc:format>
        <dc:type
           rdf:resource="http://purl.org/dc/dcmitype/StillImage" />
        <dc:title></dc:title>
      </cc:Work>
    </rdf:RDF>
  </metadata>
  <defs
     id="defs14" />
  <sodipodi:namedview
     pagecolor="#ffffff"
     bordercolor="#666666"
     borderopacity="1"
     objecttolerance="10"
     gridtolerance="10"
     guidetolerance="10"
     inkscape:pageopacity="0"
     inkscape:pageshadow="2"
     inkscape:window-width="1920"
     inkscape:window-height="1053"
     id="namedview12"
     showgrid="false"
     inkscape:zoom="23.305556"
     inkscape:cx="18"
     inkscape:cy="18"
     inkscape:window-x="0"
     inkscape:window-y="27"
     inkscape:window-maximized="1"
     inkscape:current-layer="svg10" />
  <path
     d="M 5,16 C 4.876,16 4.751,15.977 4.629,15.928 4.116,15.723 3.867,15.141 4.072,14.628 6.248,9.188 11.578,8.065 11.804,8.02 12.347,7.914 12.872,8.263 12.981,8.804 13.089,9.344 12.739,9.87 12.2,9.98 12.015,10.018 7.694,10.96 5.929,15.371 5.772,15.762 5.396,16 5,16 Z"
     id="path865"
     style="fill:#664500;fill-opacity:1" />
  <path
     d="M 31,16 C 30.604,16 30.228,15.762 30.071,15.371 28.293,10.926 23.848,9.99 23.803,9.98 23.262,9.872 22.91,9.345 23.019,8.803 c 0.108,-0.542 0.635,-0.891 1.177,-0.784 0.226,0.045 5.556,1.168 7.732,6.608 0.205,0.513 -0.045,1.095 -0.558,1.3 C 31.25,15.977 31.124,16 31,16 Z"
     id="path863"
     style="fill:#664500;fill-opacity:1" />
  <path
     d="M 16.457,17.797 C 16.397,17.662 14.958,14.5 12,14.5 c -2.957,0 -4.397,3.162 -4.457,3.297 -0.092,0.207 -0.032,0.449 0.144,0.591 0.176,0.142 0.427,0.147 0.61,0.014 C 8.31,18.393 9.559,17.5 12,17.5 c 2.426,0 3.674,0.881 3.702,0.901 0.088,0.066 0.194,0.099 0.298,0.099 0.11,0 0.221,-0.037 0.312,-0.109 0.178,-0.142 0.237,-0.386 0.145,-0.594 z"
     id="path861"
     style="fill:#664500;fill-opacity:1" />
  <path
     d="M 28.457,17.797 C 28.397,17.662 26.958,14.5 24,14.5 c -2.957,0 -4.397,3.162 -4.457,3.297 -0.092,0.207 -0.032,0.449 0.145,0.591 0.175,0.142 0.426,0.147 0.61,0.014 C 20.31,18.393 21.56,17.5 24,17.5 c 2.426,0 3.674,0.881 3.702,0.901 0.088,0.066 0.194,0.099 0.298,0.099 0.11,0 0.221,-0.037 0.312,-0.109 0.177,-0.142 0.238,-0.386 0.145,-0.594 z"
     id="path4"
     style="fill:#664500;fill-opacity:1" />
</svg>
