<?xml version="1.0" encoding="UTF-8" standalone="no"?>
<svg
   xmlns:dc="http://purl.org/dc/elements/1.1/"
   xmlns:cc="http://creativecommons.org/ns#"
   xmlns:rdf="http://www.w3.org/1999/02/22-rdf-syntax-ns#"
   xmlns:svg="http://www.w3.org/2000/svg"
   xmlns="http://www.w3.org/2000/svg"
   xmlns:sodipodi="http://sodipodi.sourceforge.net/DTD/sodipodi-0.dtd"
   xmlns:inkscape="http://www.inkscape.org/namespaces/inkscape"
   viewBox="0 0 36 36"
   version="1.1"
   id="svg8"
   sodipodi:docname="1f608.svg"
   inkscape:version="1.0.1 (3bc2e813f5, 2020-09-07)">
  <metadata
     id="metadata14">
    <rdf:RDF>
      <cc:Work
         rdf:about="">
        <dc:format>image/svg+xml</dc:format>
        <dc:type
           rdf:resource="http://purl.org/dc/dcmitype/StillImage" />
        <dc:title></dc:title>
      </cc:Work>
    </rdf:RDF>
  </metadata>
  <defs
     id="defs12" />
  <sodipodi:namedview
     pagecolor="#ffffff"
     bordercolor="#666666"
     borderopacity="1"
     objecttolerance="10"
     gridtolerance="10"
     guidetolerance="10"
     inkscape:pageopacity="0"
     inkscape:pageshadow="2"
     inkscape:window-width="1920"
     inkscape:window-height="1053"
     id="namedview10"
     showgrid="false"
     inkscape:zoom="23.305556"
     inkscape:cx="15.795349"
     inkscape:cy="18.016675"
     inkscape:window-x="1920"
     inkscape:window-y="27"
     inkscape:window-maximized="1"
     inkscape:current-layer="svg8" />
  <path
     d="m 29,15 c -0.221,0 -5.451,0.038 -8.707,3.293 -0.391,0.391 -0.391,1.023 0,1.414 C 20.488,19.902 20.744,20 21,20 21.013,20 21.024,19.993 21.036,19.993 21.02,20.16 21,20.326 21,20.5 21,22.434 22.119,24 23.5,24 24.881,24 26,22.434 26,20.5 26,19.371 25.611,18.377 25.018,17.737 27.076,17.022 28.972,17 29.002,17 29.553,16.999 30,16.55 29.999,15.998 29.998,15.447 29.552,15 29,15 Z"
     id="path843"
     style="fill:#553986;fill-opacity:1" />
  <path
     d="M 15.707,18.293 C 12.452,15.038 7.221,15 7,15 6.448,15 6.001,15.447 6.001,15.998 6,16.55 6.447,16.999 6.999,17 7.028,17 8.924,17.022 10.982,17.737 10.389,18.377 10,19.371 10,20.5 c 0,1.934 1.119,3.5 2.5,3.5 1.381,0 2.5,-1.566 2.5,-3.5 0,-0.174 -0.019,-0.34 -0.037,-0.507 0.013,0 0.025,0.007 0.037,0.007 0.256,0 0.512,-0.098 0.707,-0.293 0.391,-0.391 0.391,-1.023 0,-1.414 z"
     id="path841"
     style="fill:#553986;fill-opacity:1" />
</svg>
