<?xml version="1.0" encoding="UTF-8" standalone="no"?>
<svg
   xmlns:dc="http://purl.org/dc/elements/1.1/"
   xmlns:cc="http://creativecommons.org/ns#"
   xmlns:rdf="http://www.w3.org/1999/02/22-rdf-syntax-ns#"
   xmlns:svg="http://www.w3.org/2000/svg"
   xmlns="http://www.w3.org/2000/svg"
   xmlns:sodipodi="http://sodipodi.sourceforge.net/DTD/sodipodi-0.dtd"
   xmlns:inkscape="http://www.inkscape.org/namespaces/inkscape"
   viewBox="0 0 36 36"
   version="1.1"
   id="svg6"
   sodipodi:docname="1f60f.svg"
   inkscape:version="1.0.1 (3bc2e813f5, 2020-09-07)">
  <metadata
     id="metadata12">
    <rdf:RDF>
      <cc:Work
         rdf:about="">
        <dc:format>image/svg+xml</dc:format>
        <dc:type
           rdf:resource="http://purl.org/dc/dcmitype/StillImage" />
        <dc:title></dc:title>
      </cc:Work>
    </rdf:RDF>
  </metadata>
  <defs
     id="defs10" />
  <sodipodi:namedview
     pagecolor="#ffffff"
     bordercolor="#666666"
     borderopacity="1"
     objecttolerance="10"
     gridtolerance="10"
     guidetolerance="10"
     inkscape:pageopacity="0"
     inkscape:pageshadow="2"
     inkscape:window-width="1366"
     inkscape:window-height="728"
     id="namedview8"
     showgrid="false"
     inkscape:zoom="16.479516"
     inkscape:cx="19.342182"
     inkscape:cy="18.423485"
     inkscape:window-x="3840"
     inkscape:window-y="312"
     inkscape:window-maximized="1"
     inkscape:current-layer="svg6" />
  <path
     d="m 27.896,17.395 c 0.023,-0.052 0.059,-0.095 0.073,-0.152 0.135,-0.536 -0.191,-1.079 -0.727,-1.213 -0.18,-0.045 -4.466,-1.08 -7.797,1.138 -0.46,0.306 -0.584,0.927 -0.277,1.387 0.192,0.289 0.51,0.445 0.833,0.445 0.19,0 0.383,-0.055 0.554,-0.168 1.092,-0.729 2.361,-0.994 3.469,-1.06 C 24.015,17.848 24,17.922 24,18 c 0,1.104 0.896,2 2,2 1.104,0 2,-0.896 2,-2 0,-0.212 -0.042,-0.413 -0.104,-0.605 z"
     id="path845"
     style="fill:#664500;fill-opacity:1" />
  <path
     d="M 15.897,17.396 C 15.92,17.344 15.956,17.3 15.97,17.242 16.104,16.706 15.778,16.163 15.243,16.029 15.063,15.984 10.776,14.949 7.446,17.167 6.987,17.473 6.863,18.094 7.169,18.554 7.361,18.844 7.678,19 8.001,19 8.191,19 8.384,18.945 8.555,18.832 9.647,18.103 10.917,17.837 12.023,17.771 12.014,17.847 12,17.922 12,18 c 0,1.104 0.896,2 2,2 1.104,0 2,-0.896 2,-2 0,-0.212 -0.042,-0.412 -0.103,-0.604 z"
     id="path843"
     style="fill:#664500;fill-opacity:1" />
  <path
     d="M 4.999,16 C 4.791,16 4.58,15.935 4.4,15.8 3.958,15.469 3.869,14.842 4.2,14.4 7.462,10.05 11.816,10 12,10 c 0.552,0 1,0.448 1,1 0,0.551 -0.445,0.998 -0.996,1 -0.156,0.002 -3.569,0.086 -6.205,3.6 -0.195,0.262 -0.496,0.4 -0.8,0.4 z"
     id="path841"
     style="fill:#664500;fill-opacity:1" />
  <path
     d="M 31.001,16 C 30.696,16 30.397,15.862 30.2,15.6 27.559,12.079 24.139,12.001 23.994,12 23.444,11.994 23,11.544 23.003,10.995 23.006,10.444 23.45,10 24,10 c 0.184,0 4.537,0.05 7.8,4.4 0.332,0.442 0.242,1.069 -0.2,1.4 -0.18,0.135 -0.39,0.2 -0.599,0.2 z"
     id="path839"
     style="fill:#664500;fill-opacity:1" />
</svg>
