<?xml version="1.0" encoding="UTF-8" standalone="no"?>
<svg
   xmlns:dc="http://purl.org/dc/elements/1.1/"
   xmlns:cc="http://creativecommons.org/ns#"
   xmlns:rdf="http://www.w3.org/1999/02/22-rdf-syntax-ns#"
   xmlns:svg="http://www.w3.org/2000/svg"
   xmlns="http://www.w3.org/2000/svg"
   xmlns:sodipodi="http://sodipodi.sourceforge.net/DTD/sodipodi-0.dtd"
   xmlns:inkscape="http://www.inkscape.org/namespaces/inkscape"
   viewBox="0 0 36 36"
   version="1.1"
   id="svg10"
   sodipodi:docname="1f60b.svg"
   inkscape:version="1.0.1 (3bc2e813f5, 2020-09-07)">
  <metadata
     id="metadata16">
    <rdf:RDF>
      <cc:Work
         rdf:about="">
        <dc:format>image/svg+xml</dc:format>
        <dc:type
           rdf:resource="http://purl.org/dc/dcmitype/StillImage" />
        <dc:title></dc:title>
      </cc:Work>
    </rdf:RDF>
  </metadata>
  <defs
     id="defs14" />
  <sodipodi:namedview
     pagecolor="#ffffff"
     bordercolor="#666666"
     borderopacity="1"
     objecttolerance="10"
     gridtolerance="10"
     guidetolerance="10"
     inkscape:pageopacity="0"
     inkscape:pageshadow="2"
     inkscape:window-width="1366"
     inkscape:window-height="728"
     id="namedview12"
     showgrid="false"
     inkscape:zoom="16.479516"
     inkscape:cx="19.354898"
     inkscape:cy="21.724991"
     inkscape:window-x="3840"
     inkscape:window-y="312"
     inkscape:window-maximized="1"
     inkscape:current-layer="svg10" />
  <path
     d="m 29,17 c 0.15,0 0.303,-0.034 0.446,-0.105 0.494,-0.247 0.694,-0.848 0.447,-1.342 C 29.841,15.448 28.575,13 24.999,13 c -3.577,0 -4.842,2.449 -4.894,2.553 -0.247,0.494 -0.046,1.095 0.447,1.342 0.491,0.247 1.085,0.049 1.336,-0.436 C 21.932,16.378 22.719,15 24.999,15 c 2.317,0 3.099,1.433 3.106,1.447 C 28.28,16.798 28.633,17 29,17 Z"
     id="path843"
     style="fill:#664500;fill-opacity:1" />
  <path
     d="M 6.999,17 C 6.849,17 6.696,16.966 6.553,16.895 6.059,16.648 5.859,16.047 6.106,15.553 6.158,15.448 7.424,13 11,13 c 3.577,0 4.842,2.449 4.894,2.553 0.247,0.494 0.046,1.095 -0.447,1.342 -0.491,0.247 -1.085,0.049 -1.336,-0.436 C 14.067,16.378 13.28,15 11,15 8.683,15 7.901,16.433 7.894,16.447 7.719,16.798 7.366,17 6.999,17 Z"
     id="path4"
     style="fill:#664500;fill-opacity:1" />
</svg>
