<?xml version="1.0" encoding="UTF-8" standalone="no"?>
<svg
   xmlns:dc="http://purl.org/dc/elements/1.1/"
   xmlns:cc="http://creativecommons.org/ns#"
   xmlns:rdf="http://www.w3.org/1999/02/22-rdf-syntax-ns#"
   xmlns:svg="http://www.w3.org/2000/svg"
   xmlns="http://www.w3.org/2000/svg"
   xmlns:sodipodi="http://sodipodi.sourceforge.net/DTD/sodipodi-0.dtd"
   xmlns:inkscape="http://www.inkscape.org/namespaces/inkscape"
   viewBox="0 0 36 36"
   version="1.1"
   id="svg8"
   sodipodi:docname="1f60d.svg"
   inkscape:version="1.0.1 (3bc2e813f5, 2020-09-07)">
  <metadata
     id="metadata14">
    <rdf:RDF>
      <cc:Work
         rdf:about="">
        <dc:format>image/svg+xml</dc:format>
        <dc:type
           rdf:resource="http://purl.org/dc/dcmitype/StillImage" />
        <dc:title></dc:title>
      </cc:Work>
    </rdf:RDF>
  </metadata>
  <defs
     id="defs12" />
  <sodipodi:namedview
     pagecolor="#ffffff"
     bordercolor="#666666"
     borderopacity="1"
     objecttolerance="10"
     gridtolerance="10"
     guidetolerance="10"
     inkscape:pageopacity="0"
     inkscape:pageshadow="2"
     inkscape:window-width="1366"
     inkscape:window-height="728"
     id="namedview10"
     showgrid="false"
     inkscape:zoom="23.305556"
     inkscape:cx="18"
     inkscape:cy="18"
     inkscape:window-x="3840"
     inkscape:window-y="312"
     inkscape:window-maximized="1"
     inkscape:current-layer="svg8" />
  <path
     fill="#DD2E44"
     d="M16.65 3.281C15.791.85 13.126-.426 10.694.431c-1.476.52-2.521 1.711-2.928 3.104-1.191-.829-2.751-1.1-4.225-.58C1.111 3.813-.167 6.48.692 8.911c.122.344.284.663.472.958 1.951 3.582 7.588 6.1 11.001 6.131 2.637-2.167 5.446-7.665 4.718-11.677-.038-.348-.113-.698-.233-1.042zm2.7 0C20.209.85 22.875-.426 25.306.431c1.476.52 2.521 1.711 2.929 3.104 1.191-.829 2.751-1.1 4.225-.58 2.43.858 3.707 3.525 2.85 5.956-.123.344-.284.663-.473.958-1.951 3.582-7.588 6.1-11.002 6.131-2.637-2.167-5.445-7.665-4.717-11.677.037-.348.112-.698.232-1.042z"
     id="path6" />
</svg>
