<?xml version="1.0" encoding="UTF-8" standalone="no"?>
<svg
   xmlns:dc="http://purl.org/dc/elements/1.1/"
   xmlns:cc="http://creativecommons.org/ns#"
   xmlns:rdf="http://www.w3.org/1999/02/22-rdf-syntax-ns#"
   xmlns:svg="http://www.w3.org/2000/svg"
   xmlns="http://www.w3.org/2000/svg"
   xmlns:sodipodi="http://sodipodi.sourceforge.net/DTD/sodipodi-0.dtd"
   xmlns:inkscape="http://www.inkscape.org/namespaces/inkscape"
   viewBox="0 0 36 36"
   version="1.1"
   id="svg10"
   sodipodi:docname="1f606.svg"
   inkscape:version="1.0.1 (3bc2e813f5, 2020-09-07)">
  <metadata
     id="metadata16">
    <rdf:RDF>
      <cc:Work
         rdf:about="">
        <dc:format>image/svg+xml</dc:format>
        <dc:type
           rdf:resource="http://purl.org/dc/dcmitype/StillImage" />
        <dc:title></dc:title>
      </cc:Work>
    </rdf:RDF>
  </metadata>
  <defs
     id="defs14" />
  <sodipodi:namedview
     pagecolor="#ffffff"
     bordercolor="#666666"
     borderopacity="1"
     objecttolerance="10"
     gridtolerance="10"
     guidetolerance="10"
     inkscape:pageopacity="0"
     inkscape:pageshadow="2"
     inkscape:window-width="1920"
     inkscape:window-height="1053"
     id="namedview12"
     showgrid="false"
     inkscape:zoom="23.305556"
     inkscape:cx="18"
     inkscape:cy="18"
     inkscape:window-x="0"
     inkscape:window-y="27"
     inkscape:window-maximized="1"
     inkscape:current-layer="svg10" />
  <path
     fill="#664500"
     d="M30.6 18.2c-.114-.085-1.931-1.426-4.646-2.344.026-.115.046-.233.046-.356 0-.369-.139-.703-.359-.964 1.802-.52 3.334-.536 3.361-.536.551-.002.998-.45.997-1.002-.001-.551-.447-.998-.999-.998-.221 0-5.451.038-8.707 3.293-.286.286-.372.716-.217 1.09.154.373.52.617.924.617 4.59 0 8.363 2.772 8.401 2.801.18.134.39.198.598.198.305 0 .605-.139.802-.4.33-.443.24-1.068-.201-1.399zm-14.893-2.907C12.452 12.038 7.221 12 7 12c-.552 0-.999.447-.999.998-.001.552.446 1 .998 1.002.026 0 1.558.016 3.361.536-.221.261-.36.595-.36.964 0 .123.019.241.047.356-2.716.918-4.533 2.259-4.647 2.344-.442.331-.531.958-.2 1.399.196.263.497.401.801.401.208 0 .419-.065.599-.2.037-.028 3.787-2.8 8.4-2.8.404 0 .769-.244.924-.617.155-.374.069-.804-.217-1.09z"
     id="path8" />
</svg>
