<?xml version="1.0" encoding="UTF-8" standalone="no"?>
<svg
   xmlns:dc="http://purl.org/dc/elements/1.1/"
   xmlns:cc="http://creativecommons.org/ns#"
   xmlns:rdf="http://www.w3.org/1999/02/22-rdf-syntax-ns#"
   xmlns:svg="http://www.w3.org/2000/svg"
   xmlns="http://www.w3.org/2000/svg"
   xmlns:sodipodi="http://sodipodi.sourceforge.net/DTD/sodipodi-0.dtd"
   xmlns:inkscape="http://www.inkscape.org/namespaces/inkscape"
   viewBox="0 0 36 36"
   version="1.1"
   id="svg10"
   sodipodi:docname="1f61f.svg"
   inkscape:version="1.0.1 (3bc2e813f5, 2020-09-07)">
  <metadata
     id="metadata16">
    <rdf:RDF>
      <cc:Work
         rdf:about="">
        <dc:format>image/svg+xml</dc:format>
        <dc:type
           rdf:resource="http://purl.org/dc/dcmitype/StillImage" />
        <dc:title></dc:title>
      </cc:Work>
    </rdf:RDF>
  </metadata>
  <defs
     id="defs14" />
  <sodipodi:namedview
     pagecolor="#ffffff"
     bordercolor="#666666"
     borderopacity="1"
     objecttolerance="10"
     gridtolerance="10"
     guidetolerance="10"
     inkscape:pageopacity="0"
     inkscape:pageshadow="2"
     inkscape:window-width="1920"
     inkscape:window-height="1053"
     id="namedview12"
     showgrid="false"
     inkscape:zoom="23.305556"
     inkscape:cx="18"
     inkscape:cy="18"
     inkscape:window-x="0"
     inkscape:window-y="27"
     inkscape:window-maximized="1"
     inkscape:current-layer="svg10" />
  <path
     d="m 7,12 c -0.552,0 -1,-0.448 -1,-1 0,-0.552 0.448,-1 1,-1 5.083,0 5.996,-3.12 6.033,-3.253 0.145,-0.528 0.692,-0.848 1.219,-0.709 0.53,0.139 0.851,0.673 0.718,1.205 C 14.921,7.437 13.704,12 7,12 Z"
     id="path845"
     style="fill:#664500;fill-opacity:1" />
  <path
     d="M 29,12 C 23.446,12 21.198,7.633 21.105,7.447 20.858,6.953 21.058,6.352 21.552,6.105 22.045,5.858 22.644,6.057 22.892,6.548 22.967,6.694 24.713,10 29,10 c 0.553,0 1,0.448 1,1 0,0.552 -0.447,1 -1,1 z"
     id="path843"
     style="fill:#664500;fill-opacity:1" />
  <ellipse
     fill="#664500"
     cx="12"
     cy="16.5"
     rx="2.5"
     ry="3.5"
     id="ellipse6" />
  <ellipse
     fill="#664500"
     cx="23.960064"
     cy="16.473372"
     rx="2.5"
     ry="3.5"
     id="ellipse8" />
</svg>
