<?xml version="1.0" encoding="UTF-8" standalone="no"?>
<svg
   xmlns:dc="http://purl.org/dc/elements/1.1/"
   xmlns:cc="http://creativecommons.org/ns#"
   xmlns:rdf="http://www.w3.org/1999/02/22-rdf-syntax-ns#"
   xmlns:svg="http://www.w3.org/2000/svg"
   xmlns="http://www.w3.org/2000/svg"
   xmlns:sodipodi="http://sodipodi.sourceforge.net/DTD/sodipodi-0.dtd"
   xmlns:inkscape="http://www.inkscape.org/namespaces/inkscape"
   viewBox="0 0 36 36"
   version="1.1"
   id="svg6"
   sodipodi:docname="1f614.svg"
   inkscape:version="1.0.1 (3bc2e813f5, 2020-09-07)">
  <metadata
     id="metadata12">
    <rdf:RDF>
      <cc:Work
         rdf:about="">
        <dc:format>image/svg+xml</dc:format>
        <dc:type
           rdf:resource="http://purl.org/dc/dcmitype/StillImage" />
        <dc:title></dc:title>
      </cc:Work>
    </rdf:RDF>
  </metadata>
  <defs
     id="defs10" />
  <sodipodi:namedview
     pagecolor="#ffffff"
     bordercolor="#666666"
     borderopacity="1"
     objecttolerance="10"
     gridtolerance="10"
     guidetolerance="10"
     inkscape:pageopacity="0"
     inkscape:pageshadow="2"
     inkscape:window-width="1920"
     inkscape:window-height="1053"
     id="namedview8"
     showgrid="false"
     inkscape:zoom="23.305556"
     inkscape:cx="18"
     inkscape:cy="18"
     inkscape:window-x="0"
     inkscape:window-y="27"
     inkscape:window-maximized="1"
     inkscape:current-layer="svg6" />
  <path
     d="m 30,14 c -0.184,0 -4.537,-0.05 -7.8,-4.4 -0.332,-0.442 -0.242,-1.069 0.2,-1.4 0.441,-0.333 1.067,-0.242 1.399,0.2 2.641,3.521 6.061,3.599 6.206,3.6 0.55,0.006 0.994,0.456 0.991,1.005 C 30.994,13.556 30.55,14 30,14 Z"
     id="path845"
     style="fill:#664500;fill-opacity:1" />
  <path
     d="m 6,14 c -0.552,0 -1,-0.448 -1,-1 0,-0.551 0.445,-0.998 0.996,-1 0.156,-0.002 3.569,-0.086 6.205,-3.6 0.331,-0.44 0.957,-0.532 1.4,-0.2 0.442,0.331 0.531,0.958 0.2,1.4 C 10.538,13.95 6.184,14 6,14 Z"
     id="path843"
     style="fill:#664500;fill-opacity:1" />
  <path
     d="M 27.312,17.612 C 27.136,17.469 26.886,17.464 26.702,17.598 26.69,17.607 25.441,18.5 23,18.5 c -2.44,0 -3.69,-0.893 -3.7,-0.9 -0.183,-0.137 -0.434,-0.133 -0.611,0.009 -0.178,0.142 -0.238,0.386 -0.146,0.594 0.06,0.135 1.5,3.297 4.457,3.297 2.958,0 4.397,-3.162 4.457,-3.297 0.092,-0.207 0.032,-0.449 -0.145,-0.591 z"
     id="path839"
     style="fill:#664500;fill-opacity:1" />
  <path
     d="M 17.312,17.612 C 17.136,17.469 16.885,17.465 16.702,17.598 16.69,17.607 15.442,18.5 13,18.5 10.559,18.5 9.31,17.607 9.3,17.6 9.117,17.463 8.865,17.467 8.689,17.609 c -0.178,0.142 -0.238,0.386 -0.146,0.594 0.06,0.135 1.5,3.297 4.457,3.297 2.958,0 4.397,-3.162 4.457,-3.297 0.092,-0.207 0.032,-0.449 -0.145,-0.591 z"
     id="path4"
     style="fill:#664500;fill-opacity:1" />
</svg>
