<?xml version="1.0" encoding="UTF-8" standalone="no"?>
<svg
   xmlns:dc="http://purl.org/dc/elements/1.1/"
   xmlns:cc="http://creativecommons.org/ns#"
   xmlns:rdf="http://www.w3.org/1999/02/22-rdf-syntax-ns#"
   xmlns:svg="http://www.w3.org/2000/svg"
   xmlns="http://www.w3.org/2000/svg"
   xmlns:sodipodi="http://sodipodi.sourceforge.net/DTD/sodipodi-0.dtd"
   xmlns:inkscape="http://www.inkscape.org/namespaces/inkscape"
   viewBox="0 0 36 36"
   version="1.1"
   id="svg6"
   sodipodi:docname="1f612.svg"
   inkscape:version="1.0.1 (3bc2e813f5, 2020-09-07)">
  <metadata
     id="metadata12">
    <rdf:RDF>
      <cc:Work
         rdf:about="">
        <dc:format>image/svg+xml</dc:format>
        <dc:type
           rdf:resource="http://purl.org/dc/dcmitype/StillImage" />
        <dc:title></dc:title>
      </cc:Work>
    </rdf:RDF>
  </metadata>
  <defs
     id="defs10" />
  <sodipodi:namedview
     pagecolor="#ffffff"
     bordercolor="#666666"
     borderopacity="1"
     objecttolerance="10"
     gridtolerance="10"
     guidetolerance="10"
     inkscape:pageopacity="0"
     inkscape:pageshadow="2"
     inkscape:window-width="1920"
     inkscape:window-height="1053"
     id="namedview8"
     showgrid="false"
     inkscape:zoom="23.305556"
     inkscape:cx="19.223652"
     inkscape:cy="18"
     inkscape:window-x="0"
     inkscape:window-y="27"
     inkscape:window-maximized="1"
     inkscape:current-layer="svg6" />
  <path
     d="m 16,16 c 0,-0.552 -0.448,-1 -1,-1 H 8 c -0.552,0 -1,0.448 -1,1 0,0.552 0.448,1 1,1 h 5.092 c 0.207,0.581 0.756,1 1.408,1 0.828,0 1.5,-0.671 1.5,-1.5 0,-0.11 -0.014,-0.217 -0.036,-0.321 C 15.975,16.119 16,16.063 16,16 Z"
     id="path845"
     style="fill:#664500;fill-opacity:1" />
  <path
     d="m 29,16 c 0,-0.552 -0.447,-1 -1,-1 h -7 c -0.553,0 -1,0.448 -1,1 0,0.552 0.447,1 1,1 h 5.092 c 0.207,0.581 0.756,1 1.408,1 0.828,0 1.5,-0.671 1.5,-1.5 0,-0.11 -0.014,-0.217 -0.036,-0.321 C 28.976,16.119 29,16.063 29,16 Z"
     id="path843"
     style="fill:#664500;fill-opacity:1" />
  <path
     d="M 6.999,14 C 6.791,14 6.58,13.935 6.4,13.8 5.958,13.469 5.869,12.842 6.2,12.4 c 2.801,-3.734 7.317,-2.456 9.314,-1.257 0.474,0.284 0.627,0.898 0.343,1.372 -0.284,0.473 -0.896,0.628 -1.37,0.344 C 14.308,12.753 10.213,10.384 7.799,13.601 7.604,13.862 7.303,14 6.999,14 Z"
     id="path841"
     style="fill:#664500;fill-opacity:1" />
  <path
     d="m 29.001,14 c -0.305,0 -0.604,-0.138 -0.801,-0.4 -2.432,-3.244 -6.514,-0.846 -6.686,-0.743 -0.475,0.285 -1.089,0.13 -1.372,-0.343 -0.284,-0.474 -0.131,-1.088 0.343,-1.372 1.998,-1.199 6.514,-2.477 9.314,1.257 0.332,0.442 0.242,1.069 -0.2,1.4 C 29.42,13.935 29.21,14 29.001,14 Z"
     id="path839"
     style="fill:#664500;fill-opacity:1" />
</svg>
