<?xml version="1.0" encoding="UTF-8" standalone="no"?>
<svg
   xmlns:dc="http://purl.org/dc/elements/1.1/"
   xmlns:cc="http://creativecommons.org/ns#"
   xmlns:rdf="http://www.w3.org/1999/02/22-rdf-syntax-ns#"
   xmlns:svg="http://www.w3.org/2000/svg"
   xmlns="http://www.w3.org/2000/svg"
   xmlns:sodipodi="http://sodipodi.sourceforge.net/DTD/sodipodi-0.dtd"
   xmlns:inkscape="http://www.inkscape.org/namespaces/inkscape"
   viewBox="0 0 36 36"
   version="1.1"
   id="svg12"
   sodipodi:docname="1f618.svg"
   inkscape:version="1.0.1 (3bc2e813f5, 2020-09-07)">
  <metadata
     id="metadata18">
    <rdf:RDF>
      <cc:Work
         rdf:about="">
        <dc:format>image/svg+xml</dc:format>
        <dc:type
           rdf:resource="http://purl.org/dc/dcmitype/StillImage" />
        <dc:title></dc:title>
      </cc:Work>
    </rdf:RDF>
  </metadata>
  <defs
     id="defs16" />
  <sodipodi:namedview
     pagecolor="#ffffff"
     bordercolor="#666666"
     borderopacity="1"
     objecttolerance="10"
     gridtolerance="10"
     guidetolerance="10"
     inkscape:pageopacity="0"
     inkscape:pageshadow="2"
     inkscape:window-width="1366"
     inkscape:window-height="728"
     id="namedview14"
     showgrid="false"
     inkscape:zoom="11.652778"
     inkscape:cx="17.521531"
     inkscape:cy="18.369876"
     inkscape:window-x="3840"
     inkscape:window-y="312"
     inkscape:window-maximized="1"
     inkscape:current-layer="svg12" />
  <ellipse
     fill="#664500"
     cx="11.5"
     cy="15.5"
     rx="2.5"
     ry="3.5"
     id="ellipse4" />
  <path
     d="m 29.001,14 c -0.305,0 -0.604,-0.138 -0.801,-0.4 -2.592,-3.456 -6.961,-2.628 -7.004,-2.62 -0.547,0.11 -1.068,-0.244 -1.177,-0.784 -0.108,-0.541 0.243,-1.068 0.784,-1.177 0.231,-0.047 5.657,-1.072 8.996,3.38 0.332,0.442 0.242,1.069 -0.2,1.4 C 29.42,13.935 29.21,14 29.001,14 Z"
     id="path945"
     style="fill:#664500;fill-opacity:1" />
  <path
     d="M 5.999,11 C 5.791,11 5.58,10.935 5.4,10.8 4.958,10.469 4.869,9.842 5.2,9.4 8.462,5.05 12.816,5 13,5 13.552,5 14,5.448 14,6 14,6.551 13.555,6.998 13.004,7 12.849,7.002 9.436,7.086 6.8,10.6 6.604,10.862 6.303,11 5.999,11 Z"
     id="path943"
     style="fill:#664500;fill-opacity:1" />
  <path
     d="M 28.457,17.797 C 28.397,17.662 26.958,14.5 24,14.5 c -2.957,0 -4.397,3.162 -4.457,3.297 -0.092,0.207 -0.032,0.449 0.145,0.591 0.175,0.142 0.426,0.147 0.61,0.014 C 20.31,18.393 21.56,17.5 24,17.5 c 2.426,0 3.674,0.881 3.702,0.901 0.088,0.066 0.194,0.099 0.298,0.099 0.11,0 0.221,-0.037 0.312,-0.109 0.177,-0.142 0.238,-0.386 0.145,-0.594 z"
     id="path6"
     style="fill:#664500;fill-opacity:1" />
</svg>
