<?xml version="1.0" encoding="UTF-8" standalone="no"?>
<svg
   xmlns:dc="http://purl.org/dc/elements/1.1/"
   xmlns:cc="http://creativecommons.org/ns#"
   xmlns:rdf="http://www.w3.org/1999/02/22-rdf-syntax-ns#"
   xmlns:svg="http://www.w3.org/2000/svg"
   xmlns="http://www.w3.org/2000/svg"
   xmlns:sodipodi="http://sodipodi.sourceforge.net/DTD/sodipodi-0.dtd"
   xmlns:inkscape="http://www.inkscape.org/namespaces/inkscape"
   viewBox="0 0 36 36"
   version="1.1"
   id="svg6"
   sodipodi:docname="1f61e.svg"
   inkscape:version="1.0.1 (3bc2e813f5, 2020-09-07)">
  <metadata
     id="metadata12">
    <rdf:RDF>
      <cc:Work
         rdf:about="">
        <dc:format>image/svg+xml</dc:format>
        <dc:type
           rdf:resource="http://purl.org/dc/dcmitype/StillImage" />
        <dc:title></dc:title>
      </cc:Work>
    </rdf:RDF>
  </metadata>
  <defs
     id="defs10" />
  <sodipodi:namedview
     pagecolor="#ffffff"
     bordercolor="#666666"
     borderopacity="1"
     objecttolerance="10"
     gridtolerance="10"
     guidetolerance="10"
     inkscape:pageopacity="0"
     inkscape:pageshadow="2"
     inkscape:window-width="1366"
     inkscape:window-height="728"
     id="namedview8"
     showgrid="false"
     inkscape:zoom="16.479516"
     inkscape:cx="13.936908"
     inkscape:cy="19.193637"
     inkscape:window-x="3840"
     inkscape:window-y="312"
     inkscape:window-maximized="1"
     inkscape:current-layer="svg6" />
  <path
     d="m 24.774,15.512 c 0.317,0 0.636,0.039 0.947,0.116 2.87,0.707 3.513,4.121 3.539,4.267 0.04,0.223 -0.076,0.443 -0.281,0.54 -0.067,0.031 -0.14,0.047 -0.211,0.047 -0.145,0 -0.287,-0.063 -0.385,-0.18 -0.01,-0.012 -1.01,-1.178 -3.379,-1.761 -0.714,-0.176 -1.412,-0.265 -2.073,-0.265 -1.104,0 -1.731,0.253 -1.735,0.254 -0.067,0.028 -0.131,0.04 -0.206,0.04 -0.272,0.012 -0.509,-0.221 -0.509,-0.5 0,-0.165 0.08,-0.311 0.203,-0.402 0.366,-0.435 1.952,-2.156 4.09,-2.156 z"
     id="path847"
     style="fill:#664500;fill-opacity:1" />
  <path
     d="m 11.226,15.512 c -0.317,0 -0.636,0.039 -0.947,0.116 -2.87,0.707 -3.513,4.121 -3.539,4.267 -0.04,0.223 0.076,0.443 0.281,0.54 0.067,0.031 0.14,0.047 0.211,0.047 0.145,0 0.287,-0.063 0.385,-0.18 0.01,-0.012 1.01,-1.178 3.379,-1.761 0.714,-0.176 1.412,-0.265 2.073,-0.265 1.104,0 1.732,0.253 1.735,0.254 0.067,0.028 0.131,0.04 0.207,0.04 0.272,0.012 0.509,-0.221 0.509,-0.5 0,-0.165 -0.08,-0.311 -0.203,-0.402 -0.367,-0.435 -1.953,-2.156 -4.091,-2.156 z"
     id="path845"
     style="fill:#664500;fill-opacity:1" />
</svg>
