<?xml version="1.0" encoding="UTF-8" standalone="no"?>
<svg
   xmlns:dc="http://purl.org/dc/elements/1.1/"
   xmlns:cc="http://creativecommons.org/ns#"
   xmlns:rdf="http://www.w3.org/1999/02/22-rdf-syntax-ns#"
   xmlns:svg="http://www.w3.org/2000/svg"
   xmlns="http://www.w3.org/2000/svg"
   xmlns:sodipodi="http://sodipodi.sourceforge.net/DTD/sodipodi-0.dtd"
   xmlns:inkscape="http://www.inkscape.org/namespaces/inkscape"
   viewBox="0 0 36 36"
   version="1.1"
   id="svg10"
   sodipodi:docname="1f627.svg"
   inkscape:version="1.0.1 (3bc2e813f5, 2020-09-07)">
  <metadata
     id="metadata16">
    <rdf:RDF>
      <cc:Work
         rdf:about="">
        <dc:format>image/svg+xml</dc:format>
        <dc:type
           rdf:resource="http://purl.org/dc/dcmitype/StillImage" />
        <dc:title></dc:title>
      </cc:Work>
    </rdf:RDF>
  </metadata>
  <defs
     id="defs14" />
  <sodipodi:namedview
     pagecolor="#ffffff"
     bordercolor="#666666"
     borderopacity="1"
     objecttolerance="10"
     gridtolerance="10"
     guidetolerance="10"
     inkscape:pageopacity="0"
     inkscape:pageshadow="2"
     inkscape:window-width="1920"
     inkscape:window-height="1053"
     id="namedview12"
     showgrid="false"
     inkscape:zoom="23.305556"
     inkscape:cx="18"
     inkscape:cy="18"
     inkscape:window-x="0"
     inkscape:window-y="27"
     inkscape:window-maximized="1"
     inkscape:current-layer="svg10" />
  <ellipse
     fill="#664500"
     cx="11.5"
     cy="16.5"
     rx="2.5"
     ry="3.5"
     id="ellipse4" />
  <ellipse
     fill="#664500"
     cx="24.5"
     cy="16.5"
     rx="2.5"
     ry="3.5"
     id="ellipse6" />
  <path
     d="M 30.001,12 C 29.696,12 29.397,11.862 29.2,11.6 26.56,8.079 23.139,8.002 22.994,8 22.444,7.994 22,7.544 22.003,6.995 22.006,6.444 22.45,6 23,6 c 0.184,0 4.537,0.05 7.8,4.4 0.332,0.442 0.242,1.069 -0.2,1.4 -0.18,0.135 -0.39,0.2 -0.599,0.2 z"
     id="path843"
     style="fill:#664500;fill-opacity:1" />
  <path
     d="M 5.999,12 C 5.791,12 5.58,11.935 5.4,11.8 4.958,11.469 4.869,10.842 5.2,10.4 8.462,6.05 12.816,6 13,6 13.552,6 14,6.448 14,7 14,7.551 13.555,7.998 13.004,8 12.849,8.002 9.436,8.086 6.8,11.6 6.604,11.862 6.303,12 5.999,12 Z"
     id="path8"
     style="fill:#664500;fill-opacity:1" />
</svg>
