<?xml version="1.0" encoding="UTF-8" standalone="no"?>
<svg
   xmlns:dc="http://purl.org/dc/elements/1.1/"
   xmlns:cc="http://creativecommons.org/ns#"
   xmlns:rdf="http://www.w3.org/1999/02/22-rdf-syntax-ns#"
   xmlns:svg="http://www.w3.org/2000/svg"
   xmlns="http://www.w3.org/2000/svg"
   xmlns:sodipodi="http://sodipodi.sourceforge.net/DTD/sodipodi-0.dtd"
   xmlns:inkscape="http://www.inkscape.org/namespaces/inkscape"
   viewBox="0 0 36 36"
   version="1.1"
   id="svg14"
   sodipodi:docname="1f62d.svg"
   inkscape:version="1.0.1 (3bc2e813f5, 2020-09-07)">
  <metadata
     id="metadata20">
    <rdf:RDF>
      <cc:Work
         rdf:about="">
        <dc:format>image/svg+xml</dc:format>
        <dc:type
           rdf:resource="http://purl.org/dc/dcmitype/StillImage" />
        <dc:title></dc:title>
      </cc:Work>
    </rdf:RDF>
  </metadata>
  <defs
     id="defs18" />
  <sodipodi:namedview
     pagecolor="#ffffff"
     bordercolor="#666666"
     borderopacity="1"
     objecttolerance="10"
     gridtolerance="10"
     guidetolerance="10"
     inkscape:pageopacity="0"
     inkscape:pageshadow="2"
     inkscape:window-width="1366"
     inkscape:window-height="728"
     id="namedview16"
     showgrid="false"
     inkscape:zoom="16.479516"
     inkscape:cx="12.279591"
     inkscape:cy="19.571337"
     inkscape:window-x="3840"
     inkscape:window-y="312"
     inkscape:window-maximized="1"
     inkscape:current-layer="svg14" />
  <path
     d="M 6,15 C 5.603,15 5.228,14.762 5.071,14.371 4.866,13.858 5.115,13.276 5.628,13.071 10.24,11.227 12.151,8.469 12.17,8.442 12.478,7.986 13.099,7.865 13.557,8.172 14.014,8.48 14.138,9.097 13.832,9.555 13.743,9.688 11.6,12.838 6.372,14.929 6.25,14.977 6.124,15 6,15 Z"
     id="path867"
     style="fill:#664500;fill-opacity:1" />
  <path
     d="M 30,15 C 29.876,15 29.75,14.977 29.629,14.928 24.4,12.837 22.257,9.687 22.168,9.554 21.861,9.094 21.985,8.473 22.445,8.167 c 0.459,-0.306 1.077,-0.184 1.385,0.274 0.019,0.027 1.93,2.785 6.541,4.629 0.513,0.206 0.763,0.787 0.558,1.3 C 30.772,14.762 30.396,15 30,15 Z"
     id="path865"
     style="fill:#664500;fill-opacity:1" />
  <path
     fill="#664500"
     d="M14.999 18c-.15 0-.303-.034-.446-.105-3.512-1.756-7.07-.018-7.105 0-.495.249-1.095.046-1.342-.447-.247-.494-.047-1.095.447-1.342.182-.09 4.498-2.197 8.895 0 .494.247.694.848.447 1.342-.176.35-.529.552-.896.552zm14 0c-.15 0-.303-.034-.446-.105-3.513-1.756-7.07-.018-7.105 0-.494.248-1.094.047-1.342-.447-.247-.494-.047-1.095.447-1.342.182-.09 4.501-2.196 8.895 0 .494.247.694.848.447 1.342-.176.35-.529.552-.896.552z"
     id="path8" />
</svg>
