<?xml version="1.0" encoding="UTF-8" standalone="no"?>
<svg
   xmlns:dc="http://purl.org/dc/elements/1.1/"
   xmlns:cc="http://creativecommons.org/ns#"
   xmlns:rdf="http://www.w3.org/1999/02/22-rdf-syntax-ns#"
   xmlns:svg="http://www.w3.org/2000/svg"
   xmlns="http://www.w3.org/2000/svg"
   xmlns:sodipodi="http://sodipodi.sourceforge.net/DTD/sodipodi-0.dtd"
   xmlns:inkscape="http://www.inkscape.org/namespaces/inkscape"
   viewBox="0 0 36 36"
   version="1.1"
   id="svg12"
   sodipodi:docname="1f622.svg"
   inkscape:version="1.0.1 (3bc2e813f5, 2020-09-07)">
  <metadata
     id="metadata18">
    <rdf:RDF>
      <cc:Work
         rdf:about="">
        <dc:format>image/svg+xml</dc:format>
        <dc:type
           rdf:resource="http://purl.org/dc/dcmitype/StillImage" />
        <dc:title></dc:title>
      </cc:Work>
    </rdf:RDF>
  </metadata>
  <defs
     id="defs16" />
  <sodipodi:namedview
     pagecolor="#ffffff"
     bordercolor="#666666"
     borderopacity="1"
     objecttolerance="10"
     gridtolerance="10"
     guidetolerance="10"
     inkscape:pageopacity="0"
     inkscape:pageshadow="2"
     inkscape:window-width="1920"
     inkscape:window-height="1053"
     id="namedview14"
     showgrid="false"
     inkscape:zoom="23.305556"
     inkscape:cx="18"
     inkscape:cy="18"
     inkscape:window-x="0"
     inkscape:window-y="27"
     inkscape:window-maximized="1"
     inkscape:current-layer="svg12" />
  <ellipse
     fill="#664500"
     cx="11.5"
     cy="17"
     rx="2.5"
     ry="3.5"
     id="ellipse4" />
  <ellipse
     fill="#664500"
     cx="24.5"
     cy="17"
     rx="2.5"
     ry="3.5"
     id="ellipse6" />
  <path
     d="M 30.001,13.5 C 29.696,13.5 29.397,13.362 29.2,13.1 26.559,9.579 23.139,9.501 22.994,9.5 22.444,9.494 22,9.044 22.003,8.495 22.006,7.944 22.45,7.5 23,7.5 c 0.184,0 4.537,0.05 7.8,4.4 0.332,0.442 0.242,1.069 -0.2,1.4 -0.18,0.135 -0.39,0.2 -0.599,0.2 z"
     id="path863"
     style="fill:#664500;fill-opacity:1" />
  <path
     d="M 5.999,13.5 C 5.791,13.5 5.58,13.435 5.4,13.3 4.958,12.969 4.869,12.342 5.2,11.9 8.462,7.55 12.816,7.5 13,7.5 c 0.552,0 1,0.448 1,1 0,0.551 -0.445,0.998 -0.996,1 C 12.849,9.502 9.436,9.586 6.8,13.1 6.604,13.362 6.303,13.5 5.999,13.5 Z"
     id="path8"
     style="fill:#664500;fill-opacity:1" />
</svg>
