<?xml version="1.0" encoding="UTF-8" standalone="no"?>
<svg
   xmlns:dc="http://purl.org/dc/elements/1.1/"
   xmlns:cc="http://creativecommons.org/ns#"
   xmlns:rdf="http://www.w3.org/1999/02/22-rdf-syntax-ns#"
   xmlns:svg="http://www.w3.org/2000/svg"
   xmlns="http://www.w3.org/2000/svg"
   xmlns:sodipodi="http://sodipodi.sourceforge.net/DTD/sodipodi-0.dtd"
   xmlns:inkscape="http://www.inkscape.org/namespaces/inkscape"
   viewBox="0 0 36 36"
   version="1.1"
   id="svg14"
   sodipodi:docname="1f63d.svg"
   inkscape:version="1.0.1 (3bc2e813f5, 2020-09-07)">
  <metadata
     id="metadata20">
    <rdf:RDF>
      <cc:Work
         rdf:about="">
        <dc:format>image/svg+xml</dc:format>
        <dc:type
           rdf:resource="http://purl.org/dc/dcmitype/StillImage" />
        <dc:title></dc:title>
      </cc:Work>
    </rdf:RDF>
  </metadata>
  <defs
     id="defs18" />
  <sodipodi:namedview
     pagecolor="#ffffff"
     bordercolor="#666666"
     borderopacity="1"
     objecttolerance="10"
     gridtolerance="10"
     guidetolerance="10"
     inkscape:pageopacity="0"
     inkscape:pageshadow="2"
     inkscape:window-width="1366"
     inkscape:window-height="728"
     id="namedview16"
     showgrid="false"
     inkscape:zoom="16.479516"
     inkscape:cx="20.368378"
     inkscape:cy="21.426943"
     inkscape:window-x="3840"
     inkscape:window-y="312"
     inkscape:window-maximized="1"
     inkscape:current-layer="svg14" />
  <path
     d="M 4.999,16 C 4.791,16 4.58,15.935 4.4,15.8 3.958,15.469 3.869,14.842 4.2,14.4 7.462,10.05 11.816,10 12,10 c 0.552,0 1,0.448 1,1 0,0.551 -0.445,0.998 -0.996,1 -0.156,0.002 -3.569,0.086 -6.205,3.6 -0.195,0.262 -0.496,0.4 -0.8,0.4 z"
     id="path853"
     style="fill:#292f33;fill-opacity:1" />
  <path
     d="M 31.001,16 C 30.696,16 30.397,15.862 30.2,15.6 27.559,12.079 24.139,12.001 23.994,12 23.444,11.994 23,11.544 23.003,10.995 23.006,10.444 23.45,10 24,10 c 0.184,0 4.537,0.05 7.8,4.4 0.332,0.442 0.242,1.069 -0.2,1.4 -0.18,0.135 -0.39,0.2 -0.599,0.2 z"
     id="path851"
     style="fill:#292f33;fill-opacity:1" />
  <path
     d="M 16.416,17.723 C 16.355,17.632 14.901,15.5 12,15.5 9.1,15.5 7.645,17.632 7.584,17.723 7.45,17.925 7.48,18.193 7.655,18.361 7.83,18.528 8.102,18.546 8.297,18.403 8.31,18.393 9.559,17.5 12,17.5 c 2.426,0 3.674,0.881 3.702,0.901 0.089,0.066 0.194,0.099 0.298,0.099 0.124,0 0.248,-0.046 0.344,-0.137 0.177,-0.167 0.207,-0.438 0.072,-0.64 z"
     id="path849"
     style="fill:#292f33;fill-opacity:1" />
  <path
     d="M 28.416,17.723 C 28.355,17.632 26.901,15.5 24,15.5 c -2.9,0 -4.355,2.132 -4.416,2.223 -0.135,0.202 -0.104,0.47 0.071,0.638 0.174,0.167 0.446,0.185 0.643,0.042 C 20.31,18.393 21.56,17.5 24,17.5 c 2.426,0 3.674,0.881 3.702,0.901 0.089,0.066 0.194,0.099 0.298,0.099 0.124,0 0.248,-0.046 0.344,-0.137 0.177,-0.167 0.207,-0.438 0.072,-0.64 z"
     id="path847"
     style="fill:#292f33;fill-opacity:1" />
</svg>
