<?xml version="1.0" encoding="UTF-8" standalone="no"?>
<svg
   xmlns:dc="http://purl.org/dc/elements/1.1/"
   xmlns:cc="http://creativecommons.org/ns#"
   xmlns:rdf="http://www.w3.org/1999/02/22-rdf-syntax-ns#"
   xmlns:svg="http://www.w3.org/2000/svg"
   xmlns="http://www.w3.org/2000/svg"
   xmlns:sodipodi="http://sodipodi.sourceforge.net/DTD/sodipodi-0.dtd"
   xmlns:inkscape="http://www.inkscape.org/namespaces/inkscape"
   viewBox="0 0 36 36"
   version="1.1"
   id="svg22"
   sodipodi:docname="1f63c.svg"
   inkscape:version="1.0.1 (3bc2e813f5, 2020-09-07)">
  <metadata
     id="metadata28">
    <rdf:RDF>
      <cc:Work
         rdf:about="">
        <dc:format>image/svg+xml</dc:format>
        <dc:type
           rdf:resource="http://purl.org/dc/dcmitype/StillImage" />
        <dc:title></dc:title>
      </cc:Work>
    </rdf:RDF>
  </metadata>
  <defs
     id="defs26" />
  <sodipodi:namedview
     pagecolor="#ffffff"
     bordercolor="#666666"
     borderopacity="1"
     objecttolerance="10"
     gridtolerance="10"
     guidetolerance="10"
     inkscape:pageopacity="0"
     inkscape:pageshadow="2"
     inkscape:window-width="1366"
     inkscape:window-height="728"
     id="namedview24"
     showgrid="false"
     inkscape:zoom="16.479516"
     inkscape:cx="18.66504"
     inkscape:cy="20.246145"
     inkscape:window-x="3840"
     inkscape:window-y="312"
     inkscape:window-maximized="1"
     inkscape:current-layer="svg22" />
  <g
     fill="#292f33"
     id="g20">
    <ellipse
       cx="12"
       cy="14.5"
       rx="2"
       ry="3.5"
       id="ellipse14" />
    <ellipse
       cx="24"
       cy="14.5"
       rx="2"
       ry="3.5"
       id="ellipse16" />
    <path
       d="m 21,12 c -0.256,0 -0.512,-0.098 -0.707,-0.293 -0.391,-0.391 -0.391,-1.023 0,-1.414 C 24.537,6.049 28.819,6 29,6 29.553,6 30,6.448 30,7 30,7.551 29.555,7.998 29.005,8 28.94,8.001 25.318,8.096 21.707,11.707 21.512,11.902 21.256,12 21,12 Z m -6,0 C 14.744,12 14.488,11.902 14.293,11.707 10.667,8.082 7.031,8 6.995,8 6.444,7.994 6,7.545 6.003,6.995 6.006,6.444 6.45,6 7,6 c 0.18,0 4.463,0.049 8.707,4.293 0.391,0.391 0.391,1.023 0,1.414 C 15.512,11.902 15.256,12 15,12 Z"
       id="path18" />
  </g>
</svg>
