<?xml version="1.0" encoding="UTF-8" standalone="no"?>
<svg
   xmlns:dc="http://purl.org/dc/elements/1.1/"
   xmlns:cc="http://creativecommons.org/ns#"
   xmlns:rdf="http://www.w3.org/1999/02/22-rdf-syntax-ns#"
   xmlns:svg="http://www.w3.org/2000/svg"
   xmlns="http://www.w3.org/2000/svg"
   xmlns:sodipodi="http://sodipodi.sourceforge.net/DTD/sodipodi-0.dtd"
   xmlns:inkscape="http://www.inkscape.org/namespaces/inkscape"
   viewBox="0 0 36 36"
   version="1.1"
   id="svg18"
   sodipodi:docname="1f63b.svg"
   inkscape:version="1.0.1 (3bc2e813f5, 2020-09-07)">
  <metadata
     id="metadata24">
    <rdf:RDF>
      <cc:Work
         rdf:about="">
        <dc:format>image/svg+xml</dc:format>
        <dc:type
           rdf:resource="http://purl.org/dc/dcmitype/StillImage" />
        <dc:title></dc:title>
      </cc:Work>
    </rdf:RDF>
  </metadata>
  <defs
     id="defs22" />
  <sodipodi:namedview
     pagecolor="#ffffff"
     bordercolor="#666666"
     borderopacity="1"
     objecttolerance="10"
     gridtolerance="10"
     guidetolerance="10"
     inkscape:pageopacity="0"
     inkscape:pageshadow="2"
     inkscape:window-width="1366"
     inkscape:window-height="728"
     id="namedview20"
     showgrid="false"
     inkscape:zoom="16.479516"
     inkscape:cx="15.948589"
     inkscape:cy="19.386912"
     inkscape:window-x="3840"
     inkscape:window-y="312"
     inkscape:window-maximized="1"
     inkscape:current-layer="svg18" />
  <path
     fill="#FFCC4D"
     d="M4.934 5.603C4.934 4.189 11 7 10 8s-2 1.603-3 2.603-2.066-4-2.066-5zm26.132 0C31.066 4.189 25 7 26 8s2 1.603 3 2.603 2.066-4 2.066-5z"
     id="path8" />
  <path
     d="M16.226 5.117c-.859-2.431-3.525-3.707-5.956-2.85-1.477.52-2.521 1.711-2.928 3.104-1.191-.829-2.751-1.1-4.225-.58-2.431.857-3.708 3.525-2.85 5.956.122.345.284.663.472.958 1.951 3.582 7.588 6.1 11.002 6.131 2.637-2.167 5.445-7.664 4.717-11.677-.038-.349-.113-.698-.232-1.042zm3.548 0c.859-2.431 3.525-3.707 5.956-2.85 1.477.52 2.521 1.711 2.929 3.104 1.191-.829 2.751-1.1 4.225-.58 2.43.857 3.707 3.525 2.85 5.956-.123.345-.284.663-.473.958-1.951 3.582-7.588 6.1-11.002 6.131-2.637-2.167-5.445-7.664-4.717-11.677.038-.349.113-.698.232-1.042z"
     fill="#DD2E44"
     id="path16" />
</svg>
