<?xml version="1.0" encoding="UTF-8" standalone="no"?>
<svg
   xmlns:dc="http://purl.org/dc/elements/1.1/"
   xmlns:cc="http://creativecommons.org/ns#"
   xmlns:rdf="http://www.w3.org/1999/02/22-rdf-syntax-ns#"
   xmlns:svg="http://www.w3.org/2000/svg"
   xmlns="http://www.w3.org/2000/svg"
   xmlns:sodipodi="http://sodipodi.sourceforge.net/DTD/sodipodi-0.dtd"
   xmlns:inkscape="http://www.inkscape.org/namespaces/inkscape"
   viewBox="0 0 36 36"
   version="1.1"
   id="svg22"
   sodipodi:docname="1f63e.svg"
   inkscape:version="1.0.1 (3bc2e813f5, 2020-09-07)">
  <metadata
     id="metadata28">
    <rdf:RDF>
      <cc:Work
         rdf:about="">
        <dc:format>image/svg+xml</dc:format>
        <dc:type
           rdf:resource="http://purl.org/dc/dcmitype/StillImage" />
        <dc:title></dc:title>
      </cc:Work>
    </rdf:RDF>
  </metadata>
  <defs
     id="defs26" />
  <sodipodi:namedview
     pagecolor="#ffffff"
     bordercolor="#666666"
     borderopacity="1"
     objecttolerance="10"
     gridtolerance="10"
     guidetolerance="10"
     inkscape:pageopacity="0"
     inkscape:pageshadow="2"
     inkscape:window-width="1366"
     inkscape:window-height="728"
     id="namedview24"
     showgrid="false"
     inkscape:zoom="16.479516"
     inkscape:cx="10.257434"
     inkscape:cy="19.907874"
     inkscape:window-x="3840"
     inkscape:window-y="312"
     inkscape:window-maximized="1"
     inkscape:current-layer="svg22" />
  <g
     fill="#292F33"
     id="g20">
    <ellipse
       cx="12"
       cy="14.5"
       rx="2"
       ry="3.5"
       id="ellipse14" />
    <ellipse
       cx="24"
       cy="14.5"
       rx="2"
       ry="3.5"
       id="ellipse16" />
    <path
       d="M21.137 13.031c-.225-.06-.425-.215-.547-.45-.243-.469-.079-1.081.366-1.366 4.834-3.099 8.616-2.136 8.775-2.093.486.13.764.668.621 1.202-.142.532-.65.859-1.135.731-.058-.015-3.27-.777-7.383 1.859-.221.144-.471.178-.697.117zm-6.274.001c-.225.06-.476.026-.698-.116-4.13-2.647-7.352-1.867-7.384-1.859-.486.124-.993-.205-1.133-.737s.136-1.066.62-1.196c.159-.042 3.941-1.005 8.775 2.093.445.285.609.896.366 1.366-.121.234-.321.388-.546.449z"
       id="path18" />
  </g>
</svg>
