<?xml version="1.0" encoding="UTF-8" standalone="no"?>
<svg
   xmlns:dc="http://purl.org/dc/elements/1.1/"
   xmlns:cc="http://creativecommons.org/ns#"
   xmlns:rdf="http://www.w3.org/1999/02/22-rdf-syntax-ns#"
   xmlns:svg="http://www.w3.org/2000/svg"
   xmlns="http://www.w3.org/2000/svg"
   xmlns:sodipodi="http://sodipodi.sourceforge.net/DTD/sodipodi-0.dtd"
   xmlns:inkscape="http://www.inkscape.org/namespaces/inkscape"
   viewBox="0 0 36 36"
   version="1.1"
   id="svg10"
   sodipodi:docname="1f644.svg"
   inkscape:version="1.0.1 (3bc2e813f5, 2020-09-07)">
  <metadata
     id="metadata16">
    <rdf:RDF>
      <cc:Work
         rdf:about="">
        <dc:format>image/svg+xml</dc:format>
        <dc:type
           rdf:resource="http://purl.org/dc/dcmitype/StillImage" />
        <dc:title></dc:title>
      </cc:Work>
    </rdf:RDF>
  </metadata>
  <defs
     id="defs14" />
  <sodipodi:namedview
     pagecolor="#ffffff"
     bordercolor="#666666"
     borderopacity="1"
     objecttolerance="10"
     gridtolerance="10"
     guidetolerance="10"
     inkscape:pageopacity="0"
     inkscape:pageshadow="2"
     inkscape:window-width="1920"
     inkscape:window-height="1053"
     id="namedview12"
     showgrid="false"
     inkscape:zoom="23.305556"
     inkscape:cx="18"
     inkscape:cy="18"
     inkscape:window-x="0"
     inkscape:window-y="27"
     inkscape:window-maximized="1"
     inkscape:current-layer="svg10" />
  <circle
     fill="#F4F7F9"
     cx="24.5"
     cy="13.5"
     r="5.5"
     id="circle4" />
  <circle
     fill="#F4F7F9"
     cx="11.5"
     cy="13.5"
     r="5.5"
     id="circle6" />
  <path
     d="M 23.5,13 C 24.881,13 26,11.881 26,10.5 26,9.248 25.077,8.22 23.876,8.038 23.087,8.127 22.35,8.386 21.699,8.774 21.268,9.223 21,9.829 21,10.5 c 0,1.381 1.119,2.5 2.5,2.5 z"
     id="path845"
     style="fill:#65471b;fill-opacity:1" />
  <path
     d="M 10.5,13 C 11.881,13 13,11.881 13,10.5 13,9.248 12.077,8.22 10.876,8.038 10.086,8.127 9.35,8.386 8.698,8.774 8.268,9.223 8,9.829 8,10.5 8,11.881 9.119,13 10.5,13 Z"
     id="path843"
     style="fill:#65471b;fill-opacity:1" />
</svg>
