<?xml version="1.0" encoding="UTF-8" standalone="no"?>
<svg
   xmlns:dc="http://purl.org/dc/elements/1.1/"
   xmlns:cc="http://creativecommons.org/ns#"
   xmlns:rdf="http://www.w3.org/1999/02/22-rdf-syntax-ns#"
   xmlns:svg="http://www.w3.org/2000/svg"
   xmlns="http://www.w3.org/2000/svg"
   xmlns:sodipodi="http://sodipodi.sourceforge.net/DTD/sodipodi-0.dtd"
   xmlns:inkscape="http://www.inkscape.org/namespaces/inkscape"
   viewBox="0 0 36 36"
   version="1.1"
   id="svg12"
   sodipodi:docname="1f917.svg"
   inkscape:version="1.0.1 (3bc2e813f5, 2020-09-07)">
  <metadata
     id="metadata18">
    <rdf:RDF>
      <cc:Work
         rdf:about="">
        <dc:format>image/svg+xml</dc:format>
        <dc:type
           rdf:resource="http://purl.org/dc/dcmitype/StillImage" />
        <dc:title></dc:title>
      </cc:Work>
    </rdf:RDF>
  </metadata>
  <defs
     id="defs16" />
  <sodipodi:namedview
     pagecolor="#ffffff"
     bordercolor="#666666"
     borderopacity="1"
     objecttolerance="10"
     gridtolerance="10"
     guidetolerance="10"
     inkscape:pageopacity="0"
     inkscape:pageshadow="2"
     inkscape:window-width="1920"
     inkscape:window-height="1053"
     id="namedview14"
     showgrid="false"
     inkscape:zoom="23.305556"
     inkscape:cx="14.074779"
     inkscape:cy="18.388919"
     inkscape:window-x="0"
     inkscape:window-y="27"
     inkscape:window-maximized="1"
     inkscape:current-layer="svg12" />
  <path
     fill="#664500"
     d="m 27.53853,11.238629 c -0.051,-0.122 -1.285,-2.9829998 -3.821,-2.9829998 -2.534,0 -3.768,2.8609998 -3.819,2.9829998 -0.08,0.188 -0.028,0.406 0.123,0.536 0.149,0.128 0.365,0.132 0.523,0.012 0.01,-0.009 1.081,-0.816 3.173,-0.816 2.079,0 3.149,0.797 3.174,0.816 0.075,0.059 0.165,0.089 0.255,0.089 0.095,0 0.189,-0.034 0.267,-0.099 0.153,-0.129 0.205,-0.35 0.125,-0.538 z m -11,0 c -0.052,-0.122 -1.285,-2.9829998 -3.821,-2.9829998 -2.534,0 -3.7679996,2.8609998 -3.8199996,2.9829998 -0.079,0.188 -0.028,0.406 0.124,0.536 0.15,0.128 0.366,0.132 0.523,0.012 0.011,-0.009 1.0809996,-0.816 3.1729996,-0.816 2.08,0 3.149,0.797 3.173,0.816 0.076,0.059 0.165,0.089 0.255,0.089 0.095,0 0.189,-0.034 0.267,-0.099 0.154,-0.129 0.205,-0.35 0.126,-0.538 z"
     id="path8" />
</svg>
