<?xml version="1.0" encoding="UTF-8" standalone="no"?>
<svg
   xmlns:dc="http://purl.org/dc/elements/1.1/"
   xmlns:cc="http://creativecommons.org/ns#"
   xmlns:rdf="http://www.w3.org/1999/02/22-rdf-syntax-ns#"
   xmlns:svg="http://www.w3.org/2000/svg"
   xmlns="http://www.w3.org/2000/svg"
   xmlns:sodipodi="http://sodipodi.sourceforge.net/DTD/sodipodi-0.dtd"
   xmlns:inkscape="http://www.inkscape.org/namespaces/inkscape"
   viewBox="0 0 36 36"
   version="1.1"
   id="svg12"
   sodipodi:docname="1f923.svg"
   inkscape:version="1.0.1 (3bc2e813f5, 2020-09-07)">
  <metadata
     id="metadata18">
    <rdf:RDF>
      <cc:Work
         rdf:about="">
        <dc:format>image/svg+xml</dc:format>
        <dc:type
           rdf:resource="http://purl.org/dc/dcmitype/StillImage" />
        <dc:title></dc:title>
      </cc:Work>
    </rdf:RDF>
  </metadata>
  <defs
     id="defs16" />
  <sodipodi:namedview
     pagecolor="#ffffff"
     bordercolor="#666666"
     borderopacity="1"
     objecttolerance="10"
     gridtolerance="10"
     guidetolerance="10"
     inkscape:pageopacity="0"
     inkscape:pageshadow="2"
     inkscape:window-width="1920"
     inkscape:window-height="1053"
     id="namedview14"
     showgrid="false"
     inkscape:zoom="23.305556"
     inkscape:cx="18"
     inkscape:cy="18"
     inkscape:window-x="0"
     inkscape:window-y="27"
     inkscape:window-maximized="1"
     inkscape:current-layer="svg12" />
  <path
     fill="#65471B"
     d="M24.299 6.655c-.141.02-2.373.357-4.943 1.628-.062-.101-.132-.198-.219-.285-.261-.261-.595-.399-.936-.427.907-1.643 1.978-2.737 1.998-2.756.388-.39.388-1.024-.003-1.413s-1.022-.39-1.412 0c-.156.156-3.828 3.881-3.828 8.485 0 .405.243.769.617.924.373.155.804.069 1.09-.217 3.245-3.245 7.874-3.953 7.921-3.96.222-.032.416-.135.563-.282.215-.215.33-.526.284-.85-.081-.547-.586-.925-1.132-.847zM11.712 15.13c-4.604 0-8.329 3.672-8.485 3.828-.39.39-.39 1.022 0 1.412.389.391 1.022.392 1.414.003.019-.019 1.113-1.091 2.756-1.997.029.341.166.675.427.936.087.087.184.157.285.219C6.837 22.1 6.5 24.333 6.48 24.474c-.078.547.302 1.053.848 1.131.325.047.634-.068.849-.283.147-.147.25-.342.282-.565.007-.046.698-4.657 3.96-7.919.286-.286.371-.716.217-1.09-.155-.375-.519-.618-.924-.618z"
     id="path8" />
</svg>
