<?xml version="1.0" encoding="UTF-8" standalone="no"?>
<svg
   xmlns:dc="http://purl.org/dc/elements/1.1/"
   xmlns:cc="http://creativecommons.org/ns#"
   xmlns:rdf="http://www.w3.org/1999/02/22-rdf-syntax-ns#"
   xmlns:svg="http://www.w3.org/2000/svg"
   xmlns="http://www.w3.org/2000/svg"
   xmlns:sodipodi="http://sodipodi.sourceforge.net/DTD/sodipodi-0.dtd"
   xmlns:inkscape="http://www.inkscape.org/namespaces/inkscape"
   viewBox="0 0 36 36"
   version="1.1"
   id="svg8"
   sodipodi:docname="1f924.svg"
   inkscape:version="1.0.1 (3bc2e813f5, 2020-09-07)">
  <metadata
     id="metadata14">
    <rdf:RDF>
      <cc:Work
         rdf:about="">
        <dc:format>image/svg+xml</dc:format>
        <dc:type
           rdf:resource="http://purl.org/dc/dcmitype/StillImage" />
        <dc:title></dc:title>
      </cc:Work>
    </rdf:RDF>
  </metadata>
  <defs
     id="defs12" />
  <sodipodi:namedview
     pagecolor="#ffffff"
     bordercolor="#666666"
     borderopacity="1"
     objecttolerance="10"
     gridtolerance="10"
     guidetolerance="10"
     inkscape:pageopacity="0"
     inkscape:pageshadow="2"
     inkscape:window-width="1920"
     inkscape:window-height="1053"
     id="namedview10"
     showgrid="false"
     inkscape:zoom="23.305556"
     inkscape:cx="18"
     inkscape:cy="18"
     inkscape:window-x="0"
     inkscape:window-y="27"
     inkscape:window-maximized="1"
     inkscape:current-layer="svg8" />
  <path
     d="m 22.517,7.674 c 0.181,-0.033 4.473,-0.763 8.461,2.933 0.406,0.375 0.43,1.008 0.053,1.413 -0.375,0.407 -1.007,0.429 -1.413,0.054 C 26.39,9.082 23.01,9.618 22.868,9.642 22.326,9.735 21.808,9.372 21.713,8.83 21.618,8.289 21.976,7.773 22.517,7.674 Z"
     id="path875"
     style="fill:#664500;fill-opacity:1" />
  <path
     d="M 13.114,6.002 C 13.666,6.023 14.096,6.488 14.075,7.04 14.053,7.59 13.591,8.019 13.041,8 12.885,7.996 9.471,7.948 6.702,11.357 6.354,11.784 5.725,11.851 5.295,11.502 4.866,11.154 4.801,10.524 5.15,10.095 8.578,5.876 12.93,5.995 13.114,6.002 Z"
     id="path873"
     style="fill:#664500;fill-opacity:1" />
  <path
     d="m 28.812,17.888 c -0.176,0.143 -0.426,0.148 -0.61,0.014 C 28.19,17.892 26.941,17 24.5,17 c -2.44,0 -3.69,0.893 -3.7,0.9 -0.183,0.137 -0.434,0.133 -0.611,-0.009 C 20.011,17.749 19.951,17.505 20.043,17.297 20.102,17.162 21.543,14 24.5,14 c 2.958,0 4.398,3.162 4.457,3.297 0.092,0.207 0.032,0.449 -0.145,0.591 z"
     id="path871"
     style="fill:#664500;fill-opacity:1" />
  <path
     d="m 15.813,17.888 c -0.176,0.143 -0.427,0.147 -0.61,0.014 C 15.19,17.892 13.942,17 11.5,17 9.059,17 7.81,17.893 7.8,17.9 7.617,18.037 7.365,18.033 7.189,17.891 7.011,17.749 6.951,17.505 7.043,17.297 7.103,17.162 8.543,14 11.5,14 c 2.958,0 4.397,3.162 4.457,3.297 0.092,0.207 0.032,0.449 -0.144,0.591 z"
     id="path869"
     style="fill:#664500;fill-opacity:1" />
</svg>
