<?xml version="1.0" encoding="UTF-8" standalone="no"?>
<svg
   xmlns:dc="http://purl.org/dc/elements/1.1/"
   xmlns:cc="http://creativecommons.org/ns#"
   xmlns:rdf="http://www.w3.org/1999/02/22-rdf-syntax-ns#"
   xmlns:svg="http://www.w3.org/2000/svg"
   xmlns="http://www.w3.org/2000/svg"
   xmlns:sodipodi="http://sodipodi.sourceforge.net/DTD/sodipodi-0.dtd"
   xmlns:inkscape="http://www.inkscape.org/namespaces/inkscape"
   viewBox="0 0 36 36"
   version="1.1"
   id="svg8"
   sodipodi:docname="1f922.svg"
   inkscape:version="1.0.1 (3bc2e813f5, 2020-09-07)">
  <metadata
     id="metadata14">
    <rdf:RDF>
      <cc:Work
         rdf:about="">
        <dc:format>image/svg+xml</dc:format>
        <dc:type
           rdf:resource="http://purl.org/dc/dcmitype/StillImage" />
        <dc:title></dc:title>
      </cc:Work>
    </rdf:RDF>
  </metadata>
  <defs
     id="defs12" />
  <sodipodi:namedview
     pagecolor="#ffffff"
     bordercolor="#666666"
     borderopacity="1"
     objecttolerance="10"
     gridtolerance="10"
     guidetolerance="10"
     inkscape:pageopacity="0"
     inkscape:pageshadow="2"
     inkscape:window-width="1920"
     inkscape:window-height="1053"
     id="namedview10"
     showgrid="false"
     inkscape:zoom="23.305556"
     inkscape:cx="18"
     inkscape:cy="18"
     inkscape:window-x="1920"
     inkscape:window-y="27"
     inkscape:window-maximized="1"
     inkscape:current-layer="svg8" />
  <path
     d="m 14.756,11.534 c -0.056,0 -6.583,1.202 -6.827,1.502 -0.048,0.059 -0.068,0.14 -0.052,0.213 0.389,1.84 1.939,3.176 3.686,3.176 0.236,0 0.474,-0.025 0.707,-0.074 1.972,-0.417 3.211,-2.486 2.762,-4.613 -0.024,-0.115 -0.157,-0.204 -0.276,-0.204 z"
     id="path861"
     style="fill:#292f33;fill-opacity:1" />
  <path
     d="m 28.028,13.036 c -0.244,-0.3 -6.771,-1.502 -6.826,-1.502 -0.118,0 -0.251,0.089 -0.275,0.205 -0.218,1.027 -0.052,2.071 0.466,2.941 0.521,0.876 1.337,1.47 2.296,1.673 0.232,0.049 0.471,0.074 0.707,0.074 1.746,0 3.296,-1.336 3.686,-3.177 0.014,-0.075 -0.006,-0.156 -0.054,-0.214 z"
     id="path859"
     style="fill:#292f33;fill-opacity:1" />
</svg>
