<?xml version="1.0" encoding="UTF-8" standalone="no"?>
<svg
   xmlns:dc="http://purl.org/dc/elements/1.1/"
   xmlns:cc="http://creativecommons.org/ns#"
   xmlns:rdf="http://www.w3.org/1999/02/22-rdf-syntax-ns#"
   xmlns:svg="http://www.w3.org/2000/svg"
   xmlns="http://www.w3.org/2000/svg"
   xmlns:sodipodi="http://sodipodi.sourceforge.net/DTD/sodipodi-0.dtd"
   xmlns:inkscape="http://www.inkscape.org/namespaces/inkscape"
   viewBox="0 0 36 36"
   version="1.1"
   id="svg10"
   sodipodi:docname="1f928.svg"
   inkscape:version="1.0.1 (3bc2e813f5, 2020-09-07)">
  <metadata
     id="metadata16">
    <rdf:RDF>
      <cc:Work
         rdf:about="">
        <dc:format>image/svg+xml</dc:format>
        <dc:type
           rdf:resource="http://purl.org/dc/dcmitype/StillImage" />
        <dc:title></dc:title>
      </cc:Work>
    </rdf:RDF>
  </metadata>
  <defs
     id="defs14" />
  <sodipodi:namedview
     pagecolor="#ffffff"
     bordercolor="#666666"
     borderopacity="1"
     objecttolerance="10"
     gridtolerance="10"
     guidetolerance="10"
     inkscape:pageopacity="0"
     inkscape:pageshadow="2"
     inkscape:window-width="1920"
     inkscape:window-height="1053"
     id="namedview12"
     showgrid="false"
     inkscape:zoom="23.305556"
     inkscape:cx="18"
     inkscape:cy="18"
     inkscape:window-x="0"
     inkscape:window-y="27"
     inkscape:window-maximized="1"
     inkscape:current-layer="svg10" />
  <ellipse
     fill="#664500"
     cx="12"
     cy="16.5"
     rx="2.5"
     ry="2.75"
     id="ellipse4" />
  <ellipse
     fill="#664500"
     cx="24"
     cy="16.5"
     rx="2.5"
     ry="3.5"
     id="ellipse6" />
  <path
     d="m 30.001,10.408 c -0.368,0 -0.731,-0.161 -0.979,-0.471 C 27.627,8.186 24.723,6.65 23.708,6.65 23.066,6.65 21.783,7.561 21.104,8.218 20.608,8.7 19.816,8.685 19.337,8.19 18.857,7.695 18.868,6.905 19.361,6.424 c 0.391,-0.38 2.436,-2.275 4.347,-2.275 2.005,0 5.538,2.056 7.27,4.229 0.431,0.54 0.341,1.326 -0.198,1.756 -0.231,0.185 -0.507,0.274 -0.779,0.274 z"
     id="path845"
     style="fill:#664500;fill-opacity:1" />
  <path
     d="m 7.102,12.559 c 0.249,0.176 0.574,0.236 0.885,0.135 4.187,-1.355 7.027,0.554 7.146,0.636 0.453,0.312 1.075,0.201 1.39,-0.25 0.315,-0.451 0.208,-1.071 -0.241,-1.388 -0.15,-0.106 -3.736,-2.575 -8.91,-0.901 -0.526,0.17 -0.814,0.734 -0.643,1.259 0.068,0.214 0.203,0.388 0.373,0.509 z"
     id="path8"
     style="fill:#664500;fill-opacity:1" />
</svg>
