<?xml version="1.0" encoding="UTF-8" standalone="no"?>
<svg
   xmlns:dc="http://purl.org/dc/elements/1.1/"
   xmlns:cc="http://creativecommons.org/ns#"
   xmlns:rdf="http://www.w3.org/1999/02/22-rdf-syntax-ns#"
   xmlns:svg="http://www.w3.org/2000/svg"
   xmlns="http://www.w3.org/2000/svg"
   xmlns:sodipodi="http://sodipodi.sourceforge.net/DTD/sodipodi-0.dtd"
   xmlns:inkscape="http://www.inkscape.org/namespaces/inkscape"
   viewBox="0 0 36 36"
   version="1.1"
   id="svg10"
   sodipodi:docname="1f92b.svg"
   inkscape:version="1.0.1 (3bc2e813f5, 2020-09-07)">
  <metadata
     id="metadata16">
    <rdf:RDF>
      <cc:Work
         rdf:about="">
        <dc:format>image/svg+xml</dc:format>
        <dc:type
           rdf:resource="http://purl.org/dc/dcmitype/StillImage" />
        <dc:title></dc:title>
      </cc:Work>
    </rdf:RDF>
  </metadata>
  <defs
     id="defs14" />
  <sodipodi:namedview
     pagecolor="#ffffff"
     bordercolor="#666666"
     borderopacity="1"
     objecttolerance="10"
     gridtolerance="10"
     guidetolerance="10"
     inkscape:pageopacity="0"
     inkscape:pageshadow="2"
     inkscape:window-width="1366"
     inkscape:window-height="728"
     id="namedview12"
     showgrid="false"
     inkscape:zoom="11.652778"
     inkscape:cx="22.931414"
     inkscape:cy="20.23867"
     inkscape:window-x="3840"
     inkscape:window-y="312"
     inkscape:window-maximized="1"
     inkscape:current-layer="svg10" />
  <path
     d="M 6.114,10.271 C 5.892,10.271 5.669,10.202 5.477,10.058 5.008,9.706 4.913,9.04 5.265,8.571 8.731,3.949 13.357,3.896 13.552,3.896 c 0.587,0 1.062,0.476 1.062,1.063 0,0.585 -0.473,1.06 -1.058,1.062 -0.166,0.002 -3.792,0.091 -6.592,3.825 -0.208,0.278 -0.527,0.425 -0.85,0.425 z"
     id="path869"
     style="fill:#65471b;fill-opacity:1" />
  <path
     d="m 21.778,13.222 c 0,1.391 0.846,2.519 1.889,2.519 1.043,0 1.889,-1.127 1.889,-2.519 0,-1.391 -0.845,-2.519 -1.889,-2.519 -1.044,0.001 -1.889,1.128 -1.889,2.519 z"
     id="path867"
     style="fill:#65471b;fill-opacity:1" />
  <path
     d="m 29.886,10.271 c 0.222,0 0.445,-0.069 0.637,-0.213 0.47,-0.352 0.564,-1.018 0.212,-1.487 -3.466,-4.622 -8.092,-4.675 -8.287,-4.675 -0.587,0 -1.062,0.476 -1.062,1.063 0,0.585 0.473,1.06 1.058,1.062 0.166,0.002 3.792,0.091 6.592,3.825 0.208,0.278 0.527,0.425 0.85,0.425 z"
     id="path865"
     style="fill:#65471b;fill-opacity:1" />
  <path
     d="m 14.222,13.222 c 0,1.391 -0.846,2.519 -1.889,2.519 -1.043,0 -1.889,-1.127 -1.889,-2.519 0,-1.391 0.845,-2.519 1.889,-2.519 1.043,0.001 1.889,1.128 1.889,2.519 z"
     id="path863"
     style="fill:#65471b;fill-opacity:1" />
</svg>
