<?xml version="1.0" encoding="UTF-8" standalone="no"?>
<svg
   xmlns:dc="http://purl.org/dc/elements/1.1/"
   xmlns:cc="http://creativecommons.org/ns#"
   xmlns:rdf="http://www.w3.org/1999/02/22-rdf-syntax-ns#"
   xmlns:svg="http://www.w3.org/2000/svg"
   xmlns="http://www.w3.org/2000/svg"
   xmlns:sodipodi="http://sodipodi.sourceforge.net/DTD/sodipodi-0.dtd"
   xmlns:inkscape="http://www.inkscape.org/namespaces/inkscape"
   viewBox="0 0 36 36"
   version="1.1"
   id="svg10"
   sodipodi:docname="1f929.svg"
   inkscape:version="1.0.1 (3bc2e813f5, 2020-09-07)">
  <metadata
     id="metadata16">
    <rdf:RDF>
      <cc:Work
         rdf:about="">
        <dc:format>image/svg+xml</dc:format>
        <dc:type
           rdf:resource="http://purl.org/dc/dcmitype/StillImage" />
        <dc:title></dc:title>
      </cc:Work>
    </rdf:RDF>
  </metadata>
  <defs
     id="defs14" />
  <sodipodi:namedview
     pagecolor="#ffffff"
     bordercolor="#666666"
     borderopacity="1"
     objecttolerance="10"
     gridtolerance="10"
     guidetolerance="10"
     inkscape:pageopacity="0"
     inkscape:pageshadow="2"
     inkscape:window-width="1920"
     inkscape:window-height="1053"
     id="namedview12"
     showgrid="false"
     inkscape:zoom="23.305556"
     inkscape:cx="18"
     inkscape:cy="18"
     inkscape:window-x="0"
     inkscape:window-y="27"
     inkscape:window-maximized="1"
     inkscape:current-layer="svg10" />
  <path
     fill="#E95F28"
     d="M15.682 4.413l-4.542.801L8.8.961C8.542.492 8.012.241 7.488.333c-.527.093-.937.511-1.019 1.039l-.745 4.797-4.542.801c-.535.094-.948.525-1.021 1.064s.211 1.063.703 1.297l4.07 1.932-.748 4.812c-.083.536.189 1.064.673 1.309.179.09.371.133.562.133.327 0 .65-.128.891-.372l3.512-3.561 4.518 2.145c.49.232 1.074.123 1.446-.272.372-.395.446-.984.185-1.459L13.625 9.73l3.165-3.208c.382-.387.469-.977.217-1.459-.254-.482-.793-.743-1.325-.65zm4.636 0l4.542.801L27.2.961c.258-.469.788-.72 1.312-.628.526.093.936.511 1.018 1.039l.745 4.797 4.542.801c.536.094.949.524 1.021 1.063s-.211 1.063-.703 1.297l-4.07 1.932.748 4.812c.083.536-.189 1.064-.673 1.309-.179.09-.371.133-.562.133-.327 0-.65-.128-.891-.372l-3.512-3.561-4.518 2.145c-.49.232-1.074.123-1.446-.272-.372-.395-.446-.984-.185-1.459l2.348-4.267-3.165-3.208c-.382-.387-.469-.977-.217-1.459.255-.482.794-.743 1.326-.65z"
     id="path8" />
</svg>
