<?xml version="1.0" encoding="UTF-8" standalone="no"?>
<svg
   xmlns:dc="http://purl.org/dc/elements/1.1/"
   xmlns:cc="http://creativecommons.org/ns#"
   xmlns:rdf="http://www.w3.org/1999/02/22-rdf-syntax-ns#"
   xmlns:svg="http://www.w3.org/2000/svg"
   xmlns="http://www.w3.org/2000/svg"
   xmlns:sodipodi="http://sodipodi.sourceforge.net/DTD/sodipodi-0.dtd"
   xmlns:inkscape="http://www.inkscape.org/namespaces/inkscape"
   viewBox="0 0 36 36"
   version="1.1"
   id="svg10"
   sodipodi:docname="1f927.svg"
   inkscape:version="1.0.1 (3bc2e813f5, 2020-09-07)">
  <metadata
     id="metadata16">
    <rdf:RDF>
      <cc:Work
         rdf:about="">
        <dc:format>image/svg+xml</dc:format>
        <dc:type
           rdf:resource="http://purl.org/dc/dcmitype/StillImage" />
        <dc:title></dc:title>
      </cc:Work>
    </rdf:RDF>
  </metadata>
  <defs
     id="defs14" />
  <sodipodi:namedview
     pagecolor="#ffffff"
     bordercolor="#666666"
     borderopacity="1"
     objecttolerance="10"
     gridtolerance="10"
     guidetolerance="10"
     inkscape:pageopacity="0"
     inkscape:pageshadow="2"
     inkscape:window-width="1920"
     inkscape:window-height="1053"
     id="namedview12"
     showgrid="false"
     inkscape:zoom="23.305556"
     inkscape:cx="18"
     inkscape:cy="18.838577"
     inkscape:window-x="0"
     inkscape:window-y="27"
     inkscape:window-maximized="1"
     inkscape:current-layer="svg10" />
  <path
     d="m 15.707,14.287674 c -3.255,-3.255 -8.486,-3.293 -8.707,-3.293 -0.552,0 -0.999,0.447 -0.999,0.998 -0.001,0.552 0.446,1 0.998,1.002 0.026,0 1.558,0.016 3.361,0.536 -0.221,0.261 -0.36,0.595 -0.36,0.964 0,0.123 0.019,0.241 0.047,0.356 -2.716,0.918 -4.533,2.259 -4.647,2.344 -0.442,0.331 -0.531,0.958 -0.2,1.399 0.196,0.263 0.497,0.401 0.801,0.401 0.208,0 0.419,-0.065 0.599,-0.2 0.037,-0.028 3.787,-2.8 8.4,-2.8 0.404,0 0.769,-0.244 0.924,-0.617 0.155,-0.374 0.069,-0.804 -0.217,-1.09 z"
     id="path861"
     style="fill:#664500;fill-opacity:1" />
  <path
     d="m 30.6,17.194674 c -0.114,-0.085 -1.931,-1.426 -4.646,-2.344 0.026,-0.115 0.046,-0.233 0.046,-0.356 0,-0.369 -0.139,-0.703 -0.359,-0.964 1.802,-0.52 3.334,-0.536 3.361,-0.536 0.551,-0.002 0.998,-0.45 0.997,-1.002 -10e-4,-0.551 -0.447,-0.998 -0.999,-0.998 -0.221,0 -5.451,0.038 -8.707,3.293 -0.286,0.286 -0.372,0.716 -0.217,1.09 0.154,0.373 0.52,0.617 0.924,0.617 4.59,0 8.363,2.772 8.401,2.801 0.18,0.134 0.39,0.198 0.598,0.198 0.305,0 0.605,-0.139 0.802,-0.4 0.33,-0.443 0.24,-1.068 -0.201,-1.399 z"
     id="path4"
     style="fill:#664500;fill-opacity:1" />
</svg>
