<?xml version="1.0" encoding="UTF-8" standalone="no"?>
<svg
   xmlns:dc="http://purl.org/dc/elements/1.1/"
   xmlns:cc="http://creativecommons.org/ns#"
   xmlns:rdf="http://www.w3.org/1999/02/22-rdf-syntax-ns#"
   xmlns:svg="http://www.w3.org/2000/svg"
   xmlns="http://www.w3.org/2000/svg"
   xmlns:sodipodi="http://sodipodi.sourceforge.net/DTD/sodipodi-0.dtd"
   xmlns:inkscape="http://www.inkscape.org/namespaces/inkscape"
   viewBox="0 0 36 36"
   version="1.1"
   id="svg16"
   sodipodi:docname="1f92e.svg"
   inkscape:version="1.0.1 (3bc2e813f5, 2020-09-07)">
  <metadata
     id="metadata22">
    <rdf:RDF>
      <cc:Work
         rdf:about="">
        <dc:format>image/svg+xml</dc:format>
        <dc:type
           rdf:resource="http://purl.org/dc/dcmitype/StillImage" />
        <dc:title></dc:title>
      </cc:Work>
    </rdf:RDF>
  </metadata>
  <defs
     id="defs20" />
  <sodipodi:namedview
     pagecolor="#ffffff"
     bordercolor="#666666"
     borderopacity="1"
     objecttolerance="10"
     gridtolerance="10"
     guidetolerance="10"
     inkscape:pageopacity="0"
     inkscape:pageshadow="2"
     inkscape:window-width="1366"
     inkscape:window-height="728"
     id="namedview18"
     showgrid="false"
     inkscape:zoom="16.479516"
     inkscape:cx="18.132384"
     inkscape:cy="18.175914"
     inkscape:window-x="3840"
     inkscape:window-y="312"
     inkscape:window-maximized="1"
     inkscape:current-layer="svg16" />
  <path
     d="m 15.834,14.443 c -3.074,-3.075 -8.014,-3.11 -8.223,-3.11 -0.521,0 -0.943,0.422 -0.944,0.943 -10e-4,0.521 0.421,0.944 0.942,0.946 0.025,0 1.472,0.015 3.174,0.506 -0.208,0.247 -0.339,0.562 -0.339,0.91 0,0.116 0.018,0.228 0.044,0.336 -2.565,0.867 -4.281,2.133 -4.389,2.214 -0.417,0.313 -0.502,0.905 -0.189,1.322 0.185,0.248 0.469,0.378 0.756,0.378 0.197,0 0.396,-0.062 0.566,-0.189 0.035,-0.026 3.576,-2.644 7.933,-2.644 0.382,0 0.726,-0.23 0.872,-0.583 0.148,-0.353 0.068,-0.758 -0.203,-1.029 z"
     id="path851"
     style="fill:#65471b;fill-opacity:1" />
  <path
     d="m 29.9,17.189 c -0.108,-0.081 -1.823,-1.347 -4.388,-2.214 0.026,-0.108 0.044,-0.22 0.044,-0.336 0,-0.349 -0.131,-0.664 -0.339,-0.91 1.703,-0.492 3.149,-0.506 3.175,-0.506 0.52,-0.001 0.943,-0.425 0.942,-0.946 -0.001,-0.521 -0.422,-0.943 -0.944,-0.943 -0.208,0 -5.148,0.036 -8.223,3.11 -0.27,0.27 -0.351,0.676 -0.205,1.029 0.146,0.353 0.491,0.583 0.872,0.583 4.335,0 7.899,2.618 7.935,2.645 0.17,0.126 0.368,0.187 0.564,0.187 0.288,0 0.572,-0.131 0.757,-0.378 0.311,-0.418 0.226,-1.008 -0.19,-1.321 z"
     id="path849"
     style="fill:#65471b;fill-opacity:1" />
</svg>
