<?xml version="1.0" encoding="UTF-8" standalone="no"?>
<svg
   xmlns:dc="http://purl.org/dc/elements/1.1/"
   xmlns:cc="http://creativecommons.org/ns#"
   xmlns:rdf="http://www.w3.org/1999/02/22-rdf-syntax-ns#"
   xmlns:svg="http://www.w3.org/2000/svg"
   xmlns="http://www.w3.org/2000/svg"
   xmlns:sodipodi="http://sodipodi.sourceforge.net/DTD/sodipodi-0.dtd"
   xmlns:inkscape="http://www.inkscape.org/namespaces/inkscape"
   viewBox="0 0 36 36"
   version="1.1"
   id="svg16"
   sodipodi:docname="263a.svg"
   inkscape:version="1.0.1 (3bc2e813f5, 2020-09-07)">
  <metadata
     id="metadata22">
    <rdf:RDF>
      <cc:Work
         rdf:about="">
        <dc:format>image/svg+xml</dc:format>
        <dc:type
           rdf:resource="http://purl.org/dc/dcmitype/StillImage" />
        <dc:title></dc:title>
      </cc:Work>
    </rdf:RDF>
  </metadata>
  <defs
     id="defs20" />
  <sodipodi:namedview
     pagecolor="#ffffff"
     bordercolor="#666666"
     borderopacity="1"
     objecttolerance="10"
     gridtolerance="10"
     guidetolerance="10"
     inkscape:pageopacity="0"
     inkscape:pageshadow="2"
     inkscape:window-width="1920"
     inkscape:window-height="1053"
     id="namedview18"
     showgrid="false"
     inkscape:zoom="23.305556"
     inkscape:cx="18"
     inkscape:cy="18"
     inkscape:window-x="1920"
     inkscape:window-y="27"
     inkscape:window-maximized="1"
     inkscape:current-layer="svg16" />
  <path
     fill="#664500"
     d="M29 14c-.256 0-.512-.098-.707-.293-2.577-2.575-7.055-1.736-7.099-1.726-.548.109-1.067-.247-1.174-.787-.107-.541.242-1.066.783-1.174.227-.046 5.563-1.065 8.903 2.273.391.391.391 1.023 0 1.414-.194.195-.45.293-.706.293zM7 14c-.256 0-.512-.098-.707-.293-.391-.391-.391-1.023 0-1.414 3.34-3.341 8.678-2.318 8.903-2.273.542.108.893.635.784 1.177-.108.54-.633.892-1.175.785-.069-.015-4.529-.843-7.098 1.726-.195.194-.451.292-.707.292zm19 5c-.256 0-.512-.098-.707-.293-1.304-1.305-4.09-.974-5.052-.736-.54.132-1.077-.195-1.211-.73-.133-.536.192-1.077.728-1.211.186-.046 4.575-1.111 6.949 1.263.391.391.391 1.023 0 1.414-.195.195-.451.293-.707.293zm-16 0c-.256 0-.512-.098-.707-.293-.391-.391-.391-1.023 0-1.414 2.373-2.373 6.764-1.309 6.95-1.263.535.134.86.675.727 1.211-.132.536-.673.863-1.21.73-.964-.237-3.749-.567-5.052.736-.196.195-.452.293-.708.293z"
     id="path8" />
</svg>
