<?xml version="1.0" encoding="UTF-8" standalone="no"?>
<svg
   xmlns:dc="http://purl.org/dc/elements/1.1/"
   xmlns:cc="http://creativecommons.org/ns#"
   xmlns:rdf="http://www.w3.org/1999/02/22-rdf-syntax-ns#"
   xmlns:svg="http://www.w3.org/2000/svg"
   xmlns="http://www.w3.org/2000/svg"
   xmlns:sodipodi="http://sodipodi.sourceforge.net/DTD/sodipodi-0.dtd"
   xmlns:inkscape="http://www.inkscape.org/namespaces/inkscape"
   viewBox="0 0 36 36"
   version="1.1"
   id="svg22"
   sodipodi:docname="1f42d.svg"
   inkscape:version="1.0.1 (3bc2e813f5, 2020-09-07)">
  <metadata
     id="metadata28">
    <rdf:RDF>
      <cc:Work
         rdf:about="">
        <dc:format>image/svg+xml</dc:format>
        <dc:type
           rdf:resource="http://purl.org/dc/dcmitype/StillImage" />
        <dc:title></dc:title>
      </cc:Work>
    </rdf:RDF>
  </metadata>
  <defs
     id="defs26" />
  <sodipodi:namedview
     pagecolor="#ffffff"
     bordercolor="#666666"
     borderopacity="1"
     objecttolerance="10"
     gridtolerance="10"
     guidetolerance="10"
     inkscape:pageopacity="0"
     inkscape:pageshadow="2"
     inkscape:window-width="1920"
     inkscape:window-height="1053"
     id="namedview24"
     showgrid="false"
     inkscape:zoom="23.305556"
     inkscape:cx="18"
     inkscape:cy="18"
     inkscape:window-x="0"
     inkscape:window-y="27"
     inkscape:window-maximized="1"
     inkscape:current-layer="svg22" />
  <path
     fill="#F4ABBA"
     d="M20.905 29.648C20.905 31.252 18.894 33 18 33c-.894 0-2.905-1.748-2.905-3.352 0-1.605 1.788-1.956 2.905-1.956 1.117 0 2.905.351 2.905 1.956z"
     id="path10" />
  <g
     fill="#66757F"
     id="g18">
    <path
       d="M34.999 32.16c-.175 0-.353-.046-.514-.143-4.628-2.777-11.278-1.877-11.345-1.867-.559.079-1.053-.304-1.13-.85-.078-.547.302-1.053.848-1.131.301-.042 7.411-1.014 12.656 2.133.474.284.627.898.343 1.372-.187.313-.518.486-.858.486z"
       id="path12" />
    <path
       d="M32.001 35.16c-.305 0-.604-.138-.801-.4-2.728-3.637-8.309-4.604-8.364-4.613-.545-.091-.913-.606-.822-1.15.09-.545.606-.92 1.15-.822.262.044 6.433 1.115 9.636 5.387.332.441.242 1.068-.2 1.399-.18.134-.39.199-.599.199zm-31-3c-.34 0-.671-.173-.858-.485-.284-.474-.131-1.088.343-1.372 5.244-3.146 12.355-2.175 12.656-2.133.546.078.926.584.848 1.131-.078.547-.582.93-1.13.85-.066-.009-6.717-.909-11.345 1.867-.161.096-.339.142-.514.142z"
       id="path14" />
    <path
       d="M3.999 35.16c-.208 0-.419-.065-.599-.2-.442-.331-.531-.958-.2-1.399 3.203-4.271 9.375-5.343 9.635-5.387.548-.097 1.059.276 1.15.821.091.544-.276 1.06-.82 1.151-.056.01-5.648.991-8.366 4.613-.195.263-.496.401-.8.401z"
       id="path16" />
  </g>
</svg>
