<?xml version="1.0" encoding="UTF-8" standalone="no"?>
<svg
   xmlns:dc="http://purl.org/dc/elements/1.1/"
   xmlns:cc="http://creativecommons.org/ns#"
   xmlns:rdf="http://www.w3.org/1999/02/22-rdf-syntax-ns#"
   xmlns:svg="http://www.w3.org/2000/svg"
   xmlns="http://www.w3.org/2000/svg"
   xmlns:sodipodi="http://sodipodi.sourceforge.net/DTD/sodipodi-0.dtd"
   xmlns:inkscape="http://www.inkscape.org/namespaces/inkscape"
   viewBox="0 0 36 36"
   version="1.1"
   id="svg18"
   sodipodi:docname="1f439.svg"
   inkscape:version="1.0.1 (3bc2e813f5, 2020-09-07)">
  <metadata
     id="metadata24">
    <rdf:RDF>
      <cc:Work
         rdf:about="">
        <dc:format>image/svg+xml</dc:format>
        <dc:type
           rdf:resource="http://purl.org/dc/dcmitype/StillImage" />
        <dc:title></dc:title>
      </cc:Work>
    </rdf:RDF>
  </metadata>
  <defs
     id="defs22" />
  <sodipodi:namedview
     pagecolor="#ffffff"
     bordercolor="#666666"
     borderopacity="1"
     objecttolerance="10"
     gridtolerance="10"
     guidetolerance="10"
     inkscape:pageopacity="0"
     inkscape:pageshadow="2"
     inkscape:window-width="1920"
     inkscape:window-height="1053"
     id="namedview20"
     showgrid="false"
     inkscape:zoom="23.305556"
     inkscape:cx="18"
     inkscape:cy="18"
     inkscape:window-x="0"
     inkscape:window-y="27"
     inkscape:window-maximized="1"
     inkscape:current-layer="svg18" />
  <path
     fill="#EA596E"
     d="M20.905 27.956c0 1.604-2.012 3.352-2.905 3.352-.894 0-2.905-1.748-2.905-3.352C15.095 26.351 16.882 26 18 26c1.117 0 2.905.351 2.905 1.956z"
     id="path12" />
  <path
     fill="#C1694F"
     d="M35.515 30.303c-5.245-3.146-12.355-2.175-12.656-2.133-.014.002-.023.011-.037.013-.081.015-.153.048-.228.081-.046.021-.093.035-.134.062-.061.039-.107.092-.158.144-.041.041-.084.076-.117.123-.036.052-.056.111-.082.17-.027.062-.058.121-.071.189-.004.016-.015.028-.018.045-.009.055.006.105.006.159-.001.049-.016.095-.009.146.002.016.012.027.015.042.013.069.041.13.067.193.024.06.044.12.079.173.028.044.067.076.101.115.053.058.104.114.168.158.038.026.083.041.125.062.074.036.146.07.229.087.015.003.026.013.041.016.056.01 5.636.977 8.364 4.613.196.263.496.4.801.4.209 0 .419-.065.599-.2.442-.331.532-.958.2-1.399-1.108-1.479-2.573-2.566-4.025-3.369 1.88.242 3.942.765 5.711 1.826.161.097.339.143.514.143.34 0 .671-.173.858-.485.284-.476.13-1.09-.343-1.374zm-21.686-.596c.034-.052.053-.111.077-.169.026-.064.055-.124.068-.193.003-.016.013-.028.016-.044.007-.053-.008-.103-.009-.154 0-.051.014-.1.005-.151-.002-.016-.013-.027-.016-.043-.015-.069-.045-.131-.074-.194-.025-.057-.045-.115-.08-.165-.032-.047-.075-.082-.115-.123-.051-.053-.099-.105-.16-.146-.04-.025-.087-.039-.131-.06-.075-.034-.148-.066-.23-.081-.014-.003-.024-.012-.038-.014-.301-.042-7.412-1.014-12.656 2.133-.474.284-.627.898-.343 1.372.188.312.519.485.858.485.175 0 .353-.046.514-.143 1.768-1.061 3.83-1.583 5.709-1.825-1.451.802-2.915 1.89-4.023 3.368-.332.441-.242 1.068.2 1.399.18.135.391.2.599.2.304 0 .604-.138.801-.4 2.717-3.622 8.31-4.604 8.366-4.613.015-.003.025-.012.04-.016.077-.016.144-.049.214-.082.048-.022.099-.039.142-.069.059-.04.104-.093.152-.144.039-.042.082-.079.114-.128z"
     id="path14" />
</svg>
