<?xml version="1.0" encoding="UTF-8" standalone="no"?>
<svg
   xmlns:dc="http://purl.org/dc/elements/1.1/"
   xmlns:cc="http://creativecommons.org/ns#"
   xmlns:rdf="http://www.w3.org/1999/02/22-rdf-syntax-ns#"
   xmlns:svg="http://www.w3.org/2000/svg"
   xmlns="http://www.w3.org/2000/svg"
   xmlns:sodipodi="http://sodipodi.sourceforge.net/DTD/sodipodi-0.dtd"
   xmlns:inkscape="http://www.inkscape.org/namespaces/inkscape"
   viewBox="0 0 36 36"
   version="1.1"
   id="svg6"
   sodipodi:docname="1f619.svg"
   inkscape:version="1.0.1 (3bc2e813f5, 2020-09-07)">
  <metadata
     id="metadata12">
    <rdf:RDF>
      <cc:Work
         rdf:about="">
        <dc:format>image/svg+xml</dc:format>
        <dc:type
           rdf:resource="http://purl.org/dc/dcmitype/StillImage" />
        <dc:title></dc:title>
      </cc:Work>
    </rdf:RDF>
  </metadata>
  <defs
     id="defs10" />
  <sodipodi:namedview
     pagecolor="#ffffff"
     bordercolor="#666666"
     borderopacity="1"
     objecttolerance="10"
     gridtolerance="10"
     guidetolerance="10"
     inkscape:pageopacity="0"
     inkscape:pageshadow="2"
     inkscape:window-width="1920"
     inkscape:window-height="1053"
     id="namedview8"
     showgrid="false"
     inkscape:zoom="23.305556"
     inkscape:cx="18.042836"
     inkscape:cy="22.211974"
     inkscape:window-x="0"
     inkscape:window-y="27"
     inkscape:window-maximized="1"
     inkscape:current-layer="svg6" />
  <path
     d="m 20.871,28 c 1.335,-0.412 2.629,-1.156 2.629,-2.5 0,-2.619 -4.912,-2.968 -5.472,-2.999 -0.274,-0.027 -0.509,0.193 -0.527,0.468 -0.017,0.274 0.19,0.511 0.464,0.53 0.035,0.002 3.535,0.299 3.535,2.001 0,1.702 -3.5,1.999 -3.535,2.001 -0.013,10e-4 -0.023,0.008 -0.036,0.01 -0.053,0.006 -0.102,0.018 -0.149,0.041 l -0.015,0.009 c -0.048,0.027 -0.091,0.059 -0.127,0.1 -0.014,0.015 -0.023,0.031 -0.035,0.047 -0.023,0.032 -0.044,0.064 -0.06,0.103 -0.012,0.029 -0.018,0.061 -0.024,0.092 -0.004,0.023 -0.016,0.044 -0.018,0.067 0,0.011 0.004,0.021 0.004,0.031 0,0.01 -0.005,0.021 -0.004,0.031 10e-4,0.024 0.013,0.045 0.018,0.068 0.006,0.031 0.011,0.061 0.023,0.09 0.013,0.03 0.031,0.057 0.049,0.084 0.017,0.024 0.032,0.05 0.052,0.071 0.023,0.023 0.05,0.041 0.078,0.061 0.024,0.017 0.046,0.034 0.074,0.047 0.032,0.015 0.066,0.021 0.101,0.027 0.024,0.006 0.044,0.018 0.069,0.02 0.035,0.001 3.535,0.298 3.535,2 0,1.702 -3.5,1.999 -3.535,2.001 -0.274,0.02 -0.481,0.257 -0.464,0.53 0.017,0.265 0.237,0.469 0.499,0.469 l 0.028,-10e-4 c 0.56,-0.031 5.472,-0.38 5.472,-2.999 0,-1.344 -1.294,-2.088 -2.629,-2.5 z"
     id="path4"
     style="fill:#664500;fill-opacity:1" />
</svg>
