<?xml version="1.0" encoding="UTF-8" standalone="no"?>
<svg
   xmlns:dc="http://purl.org/dc/elements/1.1/"
   xmlns:cc="http://creativecommons.org/ns#"
   xmlns:rdf="http://www.w3.org/1999/02/22-rdf-syntax-ns#"
   xmlns:svg="http://www.w3.org/2000/svg"
   xmlns="http://www.w3.org/2000/svg"
   xmlns:sodipodi="http://sodipodi.sourceforge.net/DTD/sodipodi-0.dtd"
   xmlns:inkscape="http://www.inkscape.org/namespaces/inkscape"
   viewBox="0 0 36 36"
   version="1.1"
   id="svg6"
   sodipodi:docname="1f616.svg"
   inkscape:version="1.0.1 (3bc2e813f5, 2020-09-07)">
  <metadata
     id="metadata12">
    <rdf:RDF>
      <cc:Work
         rdf:about="">
        <dc:format>image/svg+xml</dc:format>
        <dc:type
           rdf:resource="http://purl.org/dc/dcmitype/StillImage" />
        <dc:title></dc:title>
      </cc:Work>
    </rdf:RDF>
  </metadata>
  <defs
     id="defs10" />
  <sodipodi:namedview
     pagecolor="#ffffff"
     bordercolor="#666666"
     borderopacity="1"
     objecttolerance="10"
     gridtolerance="10"
     guidetolerance="10"
     inkscape:pageopacity="0"
     inkscape:pageshadow="2"
     inkscape:window-width="1920"
     inkscape:window-height="1053"
     id="namedview8"
     showgrid="false"
     inkscape:zoom="23.305556"
     inkscape:cx="18"
     inkscape:cy="18"
     inkscape:window-x="0"
     inkscape:window-y="27"
     inkscape:window-maximized="1"
     inkscape:current-layer="svg6" />
  <path
     d="m 18,30 c -0.304,0 -0.591,-0.138 -0.781,-0.375 L 14.025,25.633 11.8,28.6 c -0.174,0.232 -0.44,0.377 -0.729,0.397 -0.29,0.021 -0.574,-0.085 -0.778,-0.29 l -1,-1 c -0.391,-0.391 -0.391,-1.023 0,-1.414 0.391,-0.391 1.023,-0.391 1.414,0 L 10.892,26.478 13.2,23.4 c 0.186,-0.248 0.475,-0.396 0.784,-0.4 0.295,-0.01 0.603,0.133 0.796,0.375 L 18,27.399 21.219,23.375 C 21.412,23.134 21.703,23 22.016,23 c 0.31,0.005 0.599,0.152 0.784,0.4 l 2.309,3.077 0.185,-0.185 c 0.391,-0.391 1.023,-0.391 1.414,0 0.391,0.391 0.391,1.023 0,1.414 l -1,1 c -0.205,0.205 -0.479,0.314 -0.778,0.29 -0.289,-0.021 -0.555,-0.165 -0.729,-0.397 l -2.226,-2.967 -3.193,3.992 C 18.591,29.862 18.304,30 18,30 Z"
     id="path845"
     style="fill:#664500;fill-opacity:1" />
</svg>
