<?xml version="1.0" encoding="UTF-8" standalone="no"?>
<svg
   xmlns:dc="http://purl.org/dc/elements/1.1/"
   xmlns:cc="http://creativecommons.org/ns#"
   xmlns:rdf="http://www.w3.org/1999/02/22-rdf-syntax-ns#"
   xmlns:svg="http://www.w3.org/2000/svg"
   xmlns="http://www.w3.org/2000/svg"
   xmlns:sodipodi="http://sodipodi.sourceforge.net/DTD/sodipodi-0.dtd"
   xmlns:inkscape="http://www.inkscape.org/namespaces/inkscape"
   viewBox="0 0 36 36"
   version="1.1"
   id="svg14"
   sodipodi:docname="1f63d.svg"
   inkscape:version="1.0.1 (3bc2e813f5, 2020-09-07)">
  <metadata
     id="metadata20">
    <rdf:RDF>
      <cc:Work
         rdf:about="">
        <dc:format>image/svg+xml</dc:format>
        <dc:type
           rdf:resource="http://purl.org/dc/dcmitype/StillImage" />
        <dc:title></dc:title>
      </cc:Work>
    </rdf:RDF>
  </metadata>
  <defs
     id="defs18" />
  <sodipodi:namedview
     pagecolor="#ffffff"
     bordercolor="#666666"
     borderopacity="1"
     objecttolerance="10"
     gridtolerance="10"
     guidetolerance="10"
     inkscape:pageopacity="0"
     inkscape:pageshadow="2"
     inkscape:window-width="1366"
     inkscape:window-height="728"
     id="namedview16"
     showgrid="false"
     inkscape:zoom="16.479516"
     inkscape:cx="20.368378"
     inkscape:cy="20.75622"
     inkscape:window-x="3840"
     inkscape:window-y="312"
     inkscape:window-maximized="1"
     inkscape:current-layer="svg14" />
  <path
     fill="#E75A70"
     d="M18 19.5c3 0 3 .5 3 1.5s-1.5 3-3 3-3-2-3-3-.001-1.5 3-1.5z"
     id="path4" />
  <path
     fill="#FEE7B8"
     d="M.701 25c-.148 0-.294-.065-.393-.19-.171-.217-.134-.531.083-.702.162-.127 4.02-3.12 10.648-2.605.275.02.481.261.46.536-.021.275-.257.501-.537.46-6.233-.474-9.915 2.366-9.951 2.395-.093.071-.202.106-.31.106zm8.868-4.663c-.049 0-.1-.007-.149-.022-4.79-1.497-8.737-.347-8.777-.336-.265.081-.543-.07-.623-.335-.079-.265.071-.543.335-.622.173-.052 4.286-1.247 9.362.338.264.083.411.363.328.627-.066.213-.263.35-.476.35zM35.299 25c.148 0 .294-.065.393-.19.171-.217.134-.531-.083-.702-.162-.127-4.02-3.12-10.648-2.605-.275.02-.481.261-.46.536.021.275.257.501.537.46 6.233-.474 9.915 2.366 9.951 2.395.093.071.202.106.31.106zm-8.868-4.663c.049 0 .1-.007.149-.022 4.79-1.497 8.737-.347 8.777-.336.265.081.543-.07.623-.335.079-.265-.071-.543-.335-.622-.173-.052-4.286-1.247-9.362.338-.264.083-.411.363-.328.627.065.213.263.35.476.35z"
     id="path10" />
  <path
     d="m 21.871,30 c 1.335,-0.412 2.629,-1.156 2.629,-2.5 0,-2.619 -4.912,-2.968 -5.473,-2.999 -0.277,-0.035 -0.51,0.194 -0.526,0.468 -0.017,0.274 0.19,0.511 0.464,0.53 0.035,0.002 3.535,0.299 3.535,2.001 0,1.702 -3.5,1.999 -3.535,2.001 -0.01,10e-4 -0.017,0.006 -0.027,0.008 -0.123,0.008 -0.229,0.064 -0.308,0.157 -0.006,0.007 -0.011,0.016 -0.017,0.022 -0.028,0.039 -0.054,0.078 -0.072,0.124 -0.011,0.027 -0.016,0.057 -0.021,0.086 -0.005,0.023 -0.017,0.046 -0.019,0.07 -0.001,0.011 0.004,0.021 0.004,0.032 0,0.011 -0.005,0.021 -0.004,0.031 0.002,0.025 0.013,0.046 0.019,0.07 0.006,0.029 0.011,0.059 0.022,0.087 0.013,0.032 0.032,0.06 0.051,0.088 0.017,0.023 0.03,0.047 0.05,0.067 0.023,0.024 0.052,0.043 0.081,0.062 0.024,0.017 0.045,0.033 0.071,0.046 0.031,0.015 0.065,0.021 0.101,0.027 0.023,0.006 0.044,0.018 0.069,0.02 0.035,0.003 3.535,0.3 3.535,2.002 0,1.702 -3.5,1.999 -3.535,2.001 -0.273,0.02 -0.481,0.257 -0.464,0.53 0.017,0.265 0.236,0.469 0.499,0.469 l 0.027,-10e-4 C 19.588,35.468 24.5,35.119 24.5,32.5 24.5,31.156 23.206,30.412 21.871,30 Z"
     id="path12"
     style="fill:#292f33;fill-opacity:1" />
</svg>
