<?xml version="1.0" encoding="UTF-8" standalone="no"?>
<svg
   xmlns:dc="http://purl.org/dc/elements/1.1/"
   xmlns:cc="http://creativecommons.org/ns#"
   xmlns:rdf="http://www.w3.org/1999/02/22-rdf-syntax-ns#"
   xmlns:svg="http://www.w3.org/2000/svg"
   xmlns="http://www.w3.org/2000/svg"
   xmlns:sodipodi="http://sodipodi.sourceforge.net/DTD/sodipodi-0.dtd"
   xmlns:inkscape="http://www.inkscape.org/namespaces/inkscape"
   viewBox="0 0 36 36"
   version="1.1"
   id="svg18"
   sodipodi:docname="1f63b.svg"
   inkscape:version="1.0.1 (3bc2e813f5, 2020-09-07)">
  <metadata
     id="metadata24">
    <rdf:RDF>
      <cc:Work
         rdf:about="">
        <dc:format>image/svg+xml</dc:format>
        <dc:type
           rdf:resource="http://purl.org/dc/dcmitype/StillImage" />
        <dc:title></dc:title>
      </cc:Work>
    </rdf:RDF>
  </metadata>
  <defs
     id="defs22" />
  <sodipodi:namedview
     pagecolor="#ffffff"
     bordercolor="#666666"
     borderopacity="1"
     objecttolerance="10"
     gridtolerance="10"
     guidetolerance="10"
     inkscape:pageopacity="0"
     inkscape:pageshadow="2"
     inkscape:window-width="1366"
     inkscape:window-height="728"
     id="namedview20"
     showgrid="false"
     inkscape:zoom="16.479516"
     inkscape:cx="15.948589"
     inkscape:cy="19.386912"
     inkscape:window-x="3840"
     inkscape:window-y="312"
     inkscape:window-maximized="1"
     inkscape:current-layer="svg18" />
  <path
     fill="#E75A70"
     d="M18 19.5c3 0 3 .5 3 1.5s-1.5 3-3 3-3-2-3-3-.001-1.5 3-1.5z"
     id="path4" />
  <path
     fill="#FEE7B8"
     d="M.701 25c-.148 0-.294-.065-.393-.19-.171-.217-.134-.531.083-.702.162-.127 4.02-3.12 10.648-2.605.275.02.481.261.46.536-.021.275-.257.501-.537.46-6.233-.474-9.915 2.366-9.951 2.395-.093.071-.202.106-.31.106zm8.868-4.663c-.049 0-.1-.007-.149-.022-4.79-1.497-8.737-.347-8.777-.336-.265.081-.543-.07-.623-.335-.079-.265.071-.543.335-.622.173-.052 4.286-1.247 9.362.338.264.083.411.363.328.627-.066.213-.263.35-.476.35zM35.299 25c.148 0 .294-.065.393-.19.171-.217.134-.531-.083-.702-.162-.127-4.02-3.12-10.648-2.605-.275.02-.481.261-.46.536.021.275.257.501.537.46 6.233-.474 9.915 2.366 9.951 2.395.093.071.202.106.31.106zm-8.868-4.663c.049 0 .1-.007.149-.022 4.79-1.497 8.737-.347 8.777-.336.265.081.543-.07.623-.335.079-.265-.071-.543-.335-.622-.173-.052-4.286-1.247-9.362.338-.264.083-.411.363-.328.627.065.213.263.35.476.35z"
     id="path10" />
  <path
     fill="#292F33"
     d="M28.023 24.191C27.046 24.383 23 26 18 26s-9.046-1.617-10.023-1.809C7 24 6.885 25.264 7.442 27.132 8 29 11 33 18 33s10-4 10.558-5.868c.557-1.868.442-3.132-.535-2.941z"
     id="path12" />
  <path
     fill="#F5F8FA"
     d="M8 25s5 2 10 2 10-2 10-2-.5 3-1.5 3-1.5-1-1.5-1-4 2-7 2-7-2-7-2-.5 1-1.5 1S8 25 8 25z"
     id="path14" />
</svg>
