<?xml version="1.0" encoding="UTF-8" standalone="no"?>
<svg
   xmlns:dc="http://purl.org/dc/elements/1.1/"
   xmlns:cc="http://creativecommons.org/ns#"
   xmlns:rdf="http://www.w3.org/1999/02/22-rdf-syntax-ns#"
   xmlns:svg="http://www.w3.org/2000/svg"
   xmlns="http://www.w3.org/2000/svg"
   xmlns:sodipodi="http://sodipodi.sourceforge.net/DTD/sodipodi-0.dtd"
   xmlns:inkscape="http://www.inkscape.org/namespaces/inkscape"
   viewBox="0 0 36 36"
   version="1.1"
   id="svg12"
   sodipodi:docname="1f911.svg"
   inkscape:version="1.0.1 (3bc2e813f5, 2020-09-07)">
  <metadata
     id="metadata18">
    <rdf:RDF>
      <cc:Work
         rdf:about="">
        <dc:format>image/svg+xml</dc:format>
        <dc:type
           rdf:resource="http://purl.org/dc/dcmitype/StillImage" />
        <dc:title></dc:title>
      </cc:Work>
    </rdf:RDF>
  </metadata>
  <defs
     id="defs16" />
  <sodipodi:namedview
     pagecolor="#ffffff"
     bordercolor="#666666"
     borderopacity="1"
     objecttolerance="10"
     gridtolerance="10"
     guidetolerance="10"
     inkscape:pageopacity="0"
     inkscape:pageshadow="2"
     inkscape:window-width="1920"
     inkscape:window-height="1053"
     id="namedview14"
     showgrid="false"
     inkscape:zoom="23.305556"
     inkscape:cx="18"
     inkscape:cy="18"
     inkscape:window-x="0"
     inkscape:window-y="27"
     inkscape:window-maximized="1"
     inkscape:current-layer="svg12" />
  <path
     fill="#664500"
     d="M7 21.263c0 3.964 4.596 9 11 9s11-5 11-9c0 0-10.333 2.756-22 0z"
     id="path4" />
  <path
     fill="#5D9040"
     d="M12 23.003v6.961c0 3 2 6 6 6s6-3 6-6v-6.92c-6.291 1.292-12-.041-12-.041z"
     id="path6" />
  <path
     fill="#FFF"
     d="M20.97 31.069c0-1.368-1.379-1.901-2.487-2.329-.737-.284-1.434-.554-1.434-.943 0-.643.861-.675 1.034-.675.609 0 .912.229 1.18.43.205.155.418.315.713.315.55 0 .801-.388.801-.747 0-.717-.879-1.224-1.812-1.437V25.3c0-.505-.411-.916-.916-.916s-.916.411-.916.916v.415c-1.115.324-1.799 1.145-1.799 2.179 0 1.278 1.261 1.803 2.373 2.265.797.331 1.549.644 1.549 1.132 0 .357-.448.743-1.173.743-.731 0-1.15-.292-1.52-.551-.255-.178-.497-.347-.785-.347-.419 0-.748.354-.748.804 0 .663.907 1.322 2.102 1.554v.459c0 .504.411.914.917.914.505 0 .915-.41.915-.914l-.003-.486c1.263-.309 2.009-1.193 2.009-2.398z"
     id="path10" />
</svg>
