<?xml version="1.0" encoding="UTF-8" standalone="no"?>
<svg
   xmlns:dc="http://purl.org/dc/elements/1.1/"
   xmlns:cc="http://creativecommons.org/ns#"
   xmlns:rdf="http://www.w3.org/1999/02/22-rdf-syntax-ns#"
   xmlns:svg="http://www.w3.org/2000/svg"
   xmlns="http://www.w3.org/2000/svg"
   xmlns:sodipodi="http://sodipodi.sourceforge.net/DTD/sodipodi-0.dtd"
   xmlns:inkscape="http://www.inkscape.org/namespaces/inkscape"
   viewBox="0 0 36 36"
   version="1.1"
   id="svg14"
   sodipodi:docname="1f913.svg"
   inkscape:version="1.0.1 (3bc2e813f5, 2020-09-07)">
  <metadata
     id="metadata20">
    <rdf:RDF>
      <cc:Work
         rdf:about="">
        <dc:format>image/svg+xml</dc:format>
        <dc:type
           rdf:resource="http://purl.org/dc/dcmitype/StillImage" />
        <dc:title></dc:title>
      </cc:Work>
    </rdf:RDF>
  </metadata>
  <defs
     id="defs18" />
  <sodipodi:namedview
     pagecolor="#ffffff"
     bordercolor="#666666"
     borderopacity="1"
     objecttolerance="10"
     gridtolerance="10"
     guidetolerance="10"
     inkscape:pageopacity="0"
     inkscape:pageshadow="2"
     inkscape:window-width="1920"
     inkscape:window-height="1053"
     id="namedview16"
     showgrid="false"
     inkscape:zoom="23.305556"
     inkscape:cx="18"
     inkscape:cy="18"
     inkscape:window-x="0"
     inkscape:window-y="27"
     inkscape:window-maximized="1"
     inkscape:current-layer="svg14" />
  <path
     fill="#664500"
     d="M27.335 23.629c-.178-.161-.444-.171-.635-.029-.039.029-3.922 2.9-8.7 2.9-4.766 0-8.662-2.871-8.7-2.9-.191-.142-.457-.13-.635.029-.177.16-.217.424-.094.628C8.7 24.472 11.788 29.5 18 29.5s9.301-5.028 9.429-5.243c.123-.205.084-.468-.094-.628z"
     id="path4" />
  <path
     d="M 27.335,23.629 C 27.157,23.468 26.891,23.458 26.7,23.6 c -0.03,0.022 -2.259,1.668 -5.411,2.47 -0.443,0.113 -1.864,0.43 -3.286,0.431 -1.424,0 -2.849,-0.318 -3.292,-0.431 C 11.559,25.268 9.33,23.622 9.3,23.6 9.11,23.458 8.843,23.468 8.665,23.629 c -0.178,0.16 -0.217,0.423 -0.094,0.628 0.097,0.162 1.885,3.067 5.429,4.481 v -1.829 c -0.016,-0.004 1.45,0.378 2.446,0.486 0.366,0.042 0.737,0.076 1.117,0.089 0.146,0.005 0.289,0.016 0.437,0.016 0.148,0 0.291,-0.011 0.438,-0.016 0.38,-0.013 0.751,-0.046 1.117,-0.089 0.996,-0.108 2.462,-0.49 2.446,-0.486 v 1.829 c 3.544,-1.414 5.332,-4.319 5.429,-4.481 0.122,-0.205 0.083,-0.468 -0.095,-0.628 z"
     id="path10"
     style="fill:#65471b;fill-opacity:1" />
</svg>
