<?xml version="1.0" encoding="UTF-8" standalone="no"?>
<svg
   xmlns:dc="http://purl.org/dc/elements/1.1/"
   xmlns:cc="http://creativecommons.org/ns#"
   xmlns:rdf="http://www.w3.org/1999/02/22-rdf-syntax-ns#"
   xmlns:svg="http://www.w3.org/2000/svg"
   xmlns="http://www.w3.org/2000/svg"
   xmlns:sodipodi="http://sodipodi.sourceforge.net/DTD/sodipodi-0.dtd"
   xmlns:inkscape="http://www.inkscape.org/namespaces/inkscape"
   viewBox="0 0 36 36"
   version="1.1"
   id="svg10"
   sodipodi:docname="1f92c.svg"
   inkscape:version="1.0.1 (3bc2e813f5, 2020-09-07)">
  <metadata
     id="metadata16">
    <rdf:RDF>
      <cc:Work
         rdf:about="">
        <dc:format>image/svg+xml</dc:format>
        <dc:type
           rdf:resource="http://purl.org/dc/dcmitype/StillImage" />
        <dc:title></dc:title>
      </cc:Work>
    </rdf:RDF>
  </metadata>
  <defs
     id="defs14" />
  <sodipodi:namedview
     pagecolor="#ffffff"
     bordercolor="#666666"
     borderopacity="1"
     objecttolerance="10"
     gridtolerance="10"
     guidetolerance="10"
     inkscape:pageopacity="0"
     inkscape:pageshadow="2"
     inkscape:window-width="1920"
     inkscape:window-height="1053"
     id="namedview12"
     showgrid="false"
     inkscape:zoom="23.305556"
     inkscape:cx="18"
     inkscape:cy="18"
     inkscape:window-x="1920"
     inkscape:window-y="27"
     inkscape:window-maximized="1"
     inkscape:current-layer="svg10" />
  <path
     fill="#292F33"
     d="M29.739 33H6.261C5.017 33 4 31.983 4 30.739V25c0-1.244 1.017-2.261 2.261-2.261h23.478C30.983 22.739 32 23.756 32 25v5.739C32 31.983 30.983 33 29.739 33z"
     id="path6" />
  <path
     d="M7.841 27.229h-.818c-.314 0-.457-.229-.457-.457s.143-.456.457-.456h.95l.209-1.53c.047-.342.19-.456.475-.456.228 0 .438.151.438.38 0 .143 0 .076-.019.229l-.19 1.378h.913l.209-1.53c.047-.342.19-.456.475-.456.228 0 .438.151.438.38 0 .143 0 .076-.019.229l-.191 1.378h.818c.314 0 .456.229.456.456 0 .228-.143.457-.456.457h-.951l-.152 1.083h.818c.314 0 .456.229.456.457s-.143.456-.456.456h-.951l-.209 1.53c-.048.343-.191.456-.476.456-.228 0-.438-.151-.438-.38 0-.143 0-.076.019-.229l.191-1.378h-.912l-.209 1.53c-.048.343-.19.456-.476.456-.228 0-.438-.151-.438-.38 0-.143 0-.076.019-.229l.19-1.378h-.816c-.313 0-.456-.229-.456-.456 0-.229.143-.457.456-.457h.951l.152-1.083zm.77 1.083h.903l.152-1.083h-.903l-.152 1.083zm4.616-2.5c0-.827.618-1.54 1.464-1.54s1.464.713 1.464 1.54-.618 1.531-1.464 1.531c-.847.001-1.464-.703-1.464-1.531zm1.958 0c0-.304-.181-.57-.494-.57-.314 0-.495.267-.495.57 0 .305.181.562.495.562.313 0 .494-.257.494-.562zm2.31-1.292c.124-.237.219-.304.438-.304.295 0 .561.237.561.532 0 .076 0 .143-.076.285l-3.194 5.979c-.143.199-.2.313-.428.313-.247 0-.542-.237-.542-.522 0-.143.057-.275.095-.352l3.146-5.931zm-.922 5.219c0-.827.618-1.54 1.464-1.54s1.464.713 1.464 1.54c0 .826-.618 1.53-1.464 1.53-.847.001-1.464-.704-1.464-1.53zm1.958 0c0-.305-.181-.57-.495-.57s-.495.266-.495.57c0 .304.181.561.495.561s.495-.257.495-.561zm2.486.789c0-.409.333-.742.741-.742.409 0 .742.333.742.742 0 .408-.333.741-.742.741-.408.001-.741-.332-.741-.741zm.057-5.609c0-.399.294-.646.684-.646.381 0 .685.257.685.646v3.66c0 .39-.304.646-.685.646-.39 0-.684-.247-.684-.646v-3.66zm8.078 6.407c-.187 0-.304-.053-.431-.196l-.724-.79-.072.066c-.702.645-1.308.919-2.024.919-1.109 0-2.229-.632-2.229-2.044 0-1.107.867-1.769 1.384-2.065l.117-.067-.095-.098c-.425-.445-.599-.813-.599-1.269 0-1.077.983-1.567 1.896-1.567.764 0 1.84.453 1.84 1.458 0 .951-.883 1.501-1.153 1.647l-.115.062 1.161 1.341.444-.536c.247-.297.391-.422.646-.422.205 0 .424.184.424.523 0 .254-.252.585-.499.875l-.297.335.706.838c.131.156.185.239.185.428.001.295-.269.562-.565.562zm-3.447-3.474c-.428.287-.864.665-.864 1.291 0 .656.427 1.079 1.089 1.079.552 0 .909-.242 1.275-.606l.071-.069-1.5-1.743-.071.048zm.671-2.711c-.28 0-.67.229-.67.602 0 .348.171.56.534.929l.051.052.063-.033c.497-.26.749-.553.749-.869.001-.468-.376-.681-.727-.681z"
     fill="#FFF"
     id="path8" />
</svg>
