<?xml version="1.0" encoding="UTF-8" standalone="no"?>
<svg
   xmlns:dc="http://purl.org/dc/elements/1.1/"
   xmlns:cc="http://creativecommons.org/ns#"
   xmlns:rdf="http://www.w3.org/1999/02/22-rdf-syntax-ns#"
   xmlns:svg="http://www.w3.org/2000/svg"
   xmlns="http://www.w3.org/2000/svg"
   xmlns:sodipodi="http://sodipodi.sourceforge.net/DTD/sodipodi-0.dtd"
   xmlns:inkscape="http://www.inkscape.org/namespaces/inkscape"
   viewBox="0 0 36 36"
   version="1.1"
   id="svg16"
   sodipodi:docname="1f92e.svg"
   inkscape:version="1.0.1 (3bc2e813f5, 2020-09-07)">
  <metadata
     id="metadata22">
    <rdf:RDF>
      <cc:Work
         rdf:about="">
        <dc:format>image/svg+xml</dc:format>
        <dc:type
           rdf:resource="http://purl.org/dc/dcmitype/StillImage" />
        <dc:title></dc:title>
      </cc:Work>
    </rdf:RDF>
  </metadata>
  <defs
     id="defs20" />
  <sodipodi:namedview
     pagecolor="#ffffff"
     bordercolor="#666666"
     borderopacity="1"
     objecttolerance="10"
     gridtolerance="10"
     guidetolerance="10"
     inkscape:pageopacity="0"
     inkscape:pageshadow="2"
     inkscape:window-width="1366"
     inkscape:window-height="728"
     id="namedview18"
     showgrid="false"
     inkscape:zoom="16.479516"
     inkscape:cx="18.997656"
     inkscape:cy="21.45916"
     inkscape:window-x="3840"
     inkscape:window-y="312"
     inkscape:window-maximized="1"
     inkscape:current-layer="svg16" />
  <path
     d="m 18,27.136 c 3.335,0 5.547,0.388 8.284,0.92 0.625,0.12 1.841,0 1.841,-1.841 0,-3.682 -4.23,-8.284 -10.125,-8.284 -5.895,0 -10.125,4.602 -10.125,8.284 0,1.841 1.216,1.962 1.841,1.841 2.736,-0.532 4.949,-0.92 8.284,-0.92 z"
     id="path4"
     style="fill:#65471b;fill-opacity:1" />
  <path
     fill="#77AF57"
     d="M25.712 32.287v-7.101c0-2.593-3.889-5.185-7.778-5.185s-7.778 2.593-7.778 5.185v7.101c-4.403.349-7.359.985-7.359 1.713 0 1.105 6.777 2 15.137 2s15.137-.895 15.137-2c0-.728-2.956-1.364-7.359-1.713z"
     id="path6" />
  <circle
     fill="#5D8F3F"
     cx="15.875"
     cy="23.228"
     r="1.235"
     id="circle8" />
  <circle
     fill="#5D8F3F"
     cx="20.698"
     cy="25.64"
     r="1.235"
     id="circle10" />
  <ellipse
     transform="rotate(-80.781 21.232 30.514)"
     fill="#5D8F3F"
     cx="21.232"
     cy="30.515"
     rx="1.235"
     ry="1.235"
     id="ellipse12" />
  <ellipse
     transform="rotate(-80.781 15.107 32.548)"
     fill="#5D8F3F"
     cx="15.107"
     cy="32.548"
     rx="1.765"
     ry="1.765"
     id="ellipse14" />
</svg>
