<?xml version="1.0" encoding="UTF-8" standalone="no"?>
<svg
   xmlns:dc="http://purl.org/dc/elements/1.1/"
   xmlns:cc="http://creativecommons.org/ns#"
   xmlns:rdf="http://www.w3.org/1999/02/22-rdf-syntax-ns#"
   xmlns:svg="http://www.w3.org/2000/svg"
   xmlns="http://www.w3.org/2000/svg"
   xmlns:sodipodi="http://sodipodi.sourceforge.net/DTD/sodipodi-0.dtd"
   xmlns:inkscape="http://www.inkscape.org/namespaces/inkscape"
   viewBox="0 0 36 36"
   version="1.1"
   id="svg12"
   sodipodi:docname="1f923.svg"
   inkscape:version="1.0.1 (3bc2e813f5, 2020-09-07)">
  <metadata
     id="metadata18">
    <rdf:RDF>
      <cc:Work
         rdf:about="">
        <dc:format>image/svg+xml</dc:format>
        <dc:type
           rdf:resource="http://purl.org/dc/dcmitype/StillImage" />
        <dc:title></dc:title>
      </cc:Work>
    </rdf:RDF>
  </metadata>
  <defs
     id="defs16" />
  <sodipodi:namedview
     pagecolor="#ffffff"
     bordercolor="#666666"
     borderopacity="1"
     objecttolerance="10"
     gridtolerance="10"
     guidetolerance="10"
     inkscape:pageopacity="0"
     inkscape:pageshadow="2"
     inkscape:window-width="1920"
     inkscape:window-height="1053"
     id="namedview14"
     showgrid="false"
     inkscape:zoom="23.305556"
     inkscape:cx="18"
     inkscape:cy="18"
     inkscape:window-x="0"
     inkscape:window-y="27"
     inkscape:window-maximized="1"
     inkscape:current-layer="svg12" />
  <path
     fill="#65471B"
     d="M19.279 19.28c-3.494 3.494-6.219 5.404-9.645 7.713-.781.529-1.928 1.929.001 3.859 3.857 3.857 13.111 4.247 19.287-1.929 6.177-6.177 5.788-15.43 1.929-19.288-1.929-1.93-3.33-.782-3.858-.001-2.308 3.425-4.219 6.151-7.714 9.646z"
     id="path4" />
  <path
     fill="#FFF"
     d="M11.564 28.923s3.858-1.929 9.644-7.716c5.787-5.786 7.715-9.643 7.715-9.643s1.928 5.787-4.822 12.537c-6.75 6.751-12.537 4.822-12.537 4.822z"
     id="path6" />
</svg>
