<?xml version="1.0" encoding="UTF-8" standalone="no"?>
<svg
   xmlns:dc="http://purl.org/dc/elements/1.1/"
   xmlns:cc="http://creativecommons.org/ns#"
   xmlns:rdf="http://www.w3.org/1999/02/22-rdf-syntax-ns#"
   xmlns:svg="http://www.w3.org/2000/svg"
   xmlns="http://www.w3.org/2000/svg"
   xmlns:sodipodi="http://sodipodi.sourceforge.net/DTD/sodipodi-0.dtd"
   xmlns:inkscape="http://www.inkscape.org/namespaces/inkscape"
   viewBox="0 0 36 36"
   version="1.1"
   id="svg32"
   sodipodi:docname="1f973.svg"
   inkscape:version="1.0.1 (3bc2e813f5, 2020-09-07)">
  <metadata
     id="metadata38">
    <rdf:RDF>
      <cc:Work
         rdf:about="">
        <dc:format>image/svg+xml</dc:format>
        <dc:type
           rdf:resource="http://purl.org/dc/dcmitype/StillImage" />
        <dc:title></dc:title>
      </cc:Work>
    </rdf:RDF>
  </metadata>
  <defs
     id="defs36" />
  <sodipodi:namedview
     pagecolor="#ffffff"
     bordercolor="#666666"
     borderopacity="1"
     objecttolerance="10"
     gridtolerance="10"
     guidetolerance="10"
     inkscape:pageopacity="0"
     inkscape:pageshadow="2"
     inkscape:window-width="1920"
     inkscape:window-height="1053"
     id="namedview34"
     showgrid="false"
     inkscape:zoom="23.305556"
     inkscape:cx="18"
     inkscape:cy="18"
     inkscape:window-x="0"
     inkscape:window-y="27"
     inkscape:window-maximized="1"
     inkscape:current-layer="svg32" />
  <ellipse
     fill="#664500"
     cx="17.999"
     cy="26"
     rx="2"
     ry="2.5"
     id="ellipse4" />
  <path
     fill="#E2A62D"
     d="M13.346 31.273c-.068 0-.137-.009-.205-.028-.398-.113-.63-.527-.517-.926.437-1.54.258-3.029-.49-4.086-.497-.702-1.205-1.131-1.943-1.178-.414-.025-.728-.382-.702-.795s.381-.751.795-.701c1.193.074 2.313.733 3.073 1.807 1.011 1.429 1.27 3.383.709 5.361-.093.331-.394.546-.72.546zm11.037-3.061c-.142 0-.285-.04-.412-.124-1.167-.77-1.82-2.117-1.792-3.695.029-1.635.809-3.153 1.984-3.869.353-.216.814-.104 1.03.251.216.354.104.814-.251 1.03-.735.448-1.244 1.499-1.264 2.614-.02 1.055.389 1.936 1.118 2.417.346.228.441.693.213 1.039-.144.219-.382.337-.626.337z"
     id="path8" />
</svg>
