<?xml version="1.0" encoding="UTF-8" standalone="no"?>
<svg
   xmlns:dc="http://purl.org/dc/elements/1.1/"
   xmlns:cc="http://creativecommons.org/ns#"
   xmlns:rdf="http://www.w3.org/1999/02/22-rdf-syntax-ns#"
   xmlns:svg="http://www.w3.org/2000/svg"
   xmlns="http://www.w3.org/2000/svg"
   xmlns:sodipodi="http://sodipodi.sourceforge.net/DTD/sodipodi-0.dtd"
   xmlns:inkscape="http://www.inkscape.org/namespaces/inkscape"
   viewBox="0 0 36 36"
   version="1.1"
   id="svg16"
   sodipodi:docname="1f975.svg"
   inkscape:version="1.0.1 (3bc2e813f5, 2020-09-07)">
  <metadata
     id="metadata22">
    <rdf:RDF>
      <cc:Work
         rdf:about="">
        <dc:format>image/svg+xml</dc:format>
        <dc:type
           rdf:resource="http://purl.org/dc/dcmitype/StillImage" />
        <dc:title></dc:title>
      </cc:Work>
    </rdf:RDF>
  </metadata>
  <defs
     id="defs20" />
  <sodipodi:namedview
     pagecolor="#ffffff"
     bordercolor="#666666"
     borderopacity="1"
     objecttolerance="10"
     gridtolerance="10"
     guidetolerance="10"
     inkscape:pageopacity="0"
     inkscape:pageshadow="2"
     inkscape:window-width="1920"
     inkscape:window-height="1053"
     id="namedview18"
     showgrid="false"
     inkscape:zoom="23.305556"
     inkscape:cx="13.398103"
     inkscape:cy="17.993427"
     inkscape:window-x="1920"
     inkscape:window-y="27"
     inkscape:window-maximized="1"
     inkscape:current-layer="svg16" />
  <path
     d="m 26.125,29.261 c -0.028,0 -0.057,-0.003 -0.084,-0.01 C 17.617,27.309 10.045,29.229 9.969,29.249 9.858,29.277 9.738,29.254 9.645,29.183 9.554,29.111 9.5,29.002 9.5,28.886 c 0,-3.178 3.713,-6.872 8.5,-6.872 4.787,0 8.5,3.694 8.5,6.872 0,0.114 -0.052,0.223 -0.142,0.294 -0.067,0.052 -0.149,0.081 -0.233,0.081 z"
     id="path4"
     style="fill:#292f33;fill-opacity:1" />
  <path
     fill="#F4ABBA"
     d="M18.629 23.079v.827l-1.091.001v-.837c-2.277.127-4.191 1.162-5.455 2.516l.008.461c.086 2.932 2.08 5.802 5.992 5.802 3.899 0 5.892-2.851 5.991-5.773l.009-.284c-1.229-1.415-3.145-2.537-5.454-2.713z"
     id="path10" />
  <path
     fill="#EA596E"
     d="M18 23.049c-.157 0-.308.014-.462.022v4.447c0 .301.244.545.545.545s.545-.244.545-.545V23.08c-.207-.017-.414-.031-.628-.031z"
     id="path12" />
</svg>
