<?xml version="1.0" encoding="UTF-8" standalone="no"?>
<svg
   xmlns:dc="http://purl.org/dc/elements/1.1/"
   xmlns:cc="http://creativecommons.org/ns#"
   xmlns:rdf="http://www.w3.org/1999/02/22-rdf-syntax-ns#"
   xmlns:svg="http://www.w3.org/2000/svg"
   xmlns="http://www.w3.org/2000/svg"
   xmlns:sodipodi="http://sodipodi.sourceforge.net/DTD/sodipodi-0.dtd"
   xmlns:inkscape="http://www.inkscape.org/namespaces/inkscape"
   viewBox="0 0 36 36"
   version="1.1"
   id="svg20"
   sodipodi:docname="1f98d.svg"
   inkscape:version="1.0.1 (3bc2e813f5, 2020-09-07)">
  <metadata
     id="metadata26">
    <rdf:RDF>
      <cc:Work
         rdf:about="">
        <dc:format>image/svg+xml</dc:format>
        <dc:type
           rdf:resource="http://purl.org/dc/dcmitype/StillImage" />
        <dc:title></dc:title>
      </cc:Work>
    </rdf:RDF>
  </metadata>
  <defs
     id="defs24" />
  <sodipodi:namedview
     pagecolor="#ffffff"
     bordercolor="#666666"
     borderopacity="1"
     objecttolerance="10"
     gridtolerance="10"
     guidetolerance="10"
     inkscape:pageopacity="0"
     inkscape:pageshadow="2"
     inkscape:window-width="1920"
     inkscape:window-height="1053"
     id="namedview22"
     showgrid="false"
     inkscape:zoom="23.305556"
     inkscape:cx="18"
     inkscape:cy="18"
     inkscape:window-x="1920"
     inkscape:window-y="27"
     inkscape:window-maximized="1"
     inkscape:current-layer="svg20" />
  <ellipse
     fill="#31373D"
     cx="15.572"
     cy="23.655"
     rx="1.428"
     ry="1"
     id="ellipse10" />
  <path
     fill="#31373D"
     d="M21.856 23.655c0 .553-.639 1-1.428 1-.79 0-1.429-.447-1.429-1 0-.553.639-1 1.429-1s1.428.448 1.428 1z"
     id="path12" />
  <path
     fill="#99AAB5"
     d="M21.02 21.04c-1.965-.26-3.02.834-3.02.834s-1.055-1.094-3.021-.834c-3.156.417-3.285 3.287-1.939 3.105.766-.104.135-.938 1.713-1.556 1.579-.616 3.247.66 3.247.66s1.667-1.276 3.246-.659.947 1.452 1.714 1.556c1.346.181 1.218-2.689-1.94-3.106z"
     id="path14" />
  <path
     fill="#31373D"
     d="M24.835 30.021c-1.209.323-3.204.596-6.835.596s-5.625-.272-6.835-.596c-3.205-.854-1.923-1.735 0-1.477 1.923.259 3.631.415 6.835.415 3.205 0 4.914-.156 6.835-.415 1.923-.258 3.204.623 0 1.477z"
     id="path16" />
</svg>
