<?xml version="1.0" encoding="UTF-8" standalone="no"?>
<svg
   xmlns:dc="http://purl.org/dc/elements/1.1/"
   xmlns:cc="http://creativecommons.org/ns#"
   xmlns:rdf="http://www.w3.org/1999/02/22-rdf-syntax-ns#"
   xmlns:svg="http://www.w3.org/2000/svg"
   xmlns="http://www.w3.org/2000/svg"
   xmlns:sodipodi="http://sodipodi.sourceforge.net/DTD/sodipodi-0.dtd"
   xmlns:inkscape="http://www.inkscape.org/namespaces/inkscape"
   viewBox="0 0 36 36"
   version="1.1"
   id="svg14"
   sodipodi:docname="1f419.svg"
   inkscape:version="1.0.1 (3bc2e813f5, 2020-09-07)">
  <metadata
     id="metadata20">
    <rdf:RDF>
      <cc:Work
         rdf:about="">
        <dc:format>image/svg+xml</dc:format>
        <dc:type
           rdf:resource="http://purl.org/dc/dcmitype/StillImage" />
        <dc:title></dc:title>
      </cc:Work>
    </rdf:RDF>
  </metadata>
  <defs
     id="defs18" />
  <sodipodi:namedview
     pagecolor="#ffffff"
     bordercolor="#666666"
     borderopacity="1"
     objecttolerance="10"
     gridtolerance="10"
     guidetolerance="10"
     inkscape:pageopacity="0"
     inkscape:pageshadow="2"
     inkscape:window-width="1920"
     inkscape:window-height="1053"
     id="namedview16"
     showgrid="false"
     inkscape:zoom="23.305556"
     inkscape:cx="18"
     inkscape:cy="18"
     inkscape:window-x="0"
     inkscape:window-y="27"
     inkscape:window-maximized="1"
     inkscape:current-layer="svg14" />
  <path
     fill="#553788"
     d="M10 12c3 5 0 10.692-3 9.692s-4 2-1 3 9.465-.465 13-4c1-1 2-1 2-1L10 12z"
     id="path2" />
  <path
     fill="#553788"
     d="M26 12c-3 5 0 10.692 3 9.692s4 2 1 3-9.465-.465-13-4c-1-1-2-1-2-1L26 12z"
     id="path4" />
  <path
     fill="#744EAA"
     d="M30.188 16c-3 5 0 10.692 3 9.692s4 2 1 3-9.465-.465-13-4c-1-1-2-1-2-1l11-7.692zM5.812 16c3 5 0 10.692-3 9.692s-4 2-1 3 9.465-.465 13-4c1-1 2-1 2-1L5.812 16z"
     id="path6" />
  <path
     fill="#9266CC"
     d="M33.188 31.375c-2.729.91-6.425-5.626-4.812-10.578C30.022 17.554 31 13.94 31 11c0-7.18-5.82-11-13-11S5 3.82 5 11c0 2.94.978 6.554 2.624 9.797 1.613 4.952-2.083 11.488-4.812 10.578-3-1-4 3-1 4s8.31-.627 12-4c2.189-2 4.189-2 4.189-2s2 0 4.188 2c3.69 3.373 9 5 12 4s1.999-5-1.001-4z"
     id="path8" />
</svg>
