<?xml version="1.0" encoding="UTF-8" standalone="no"?>
<svg
   xmlns:dc="http://purl.org/dc/elements/1.1/"
   xmlns:cc="http://creativecommons.org/ns#"
   xmlns:rdf="http://www.w3.org/1999/02/22-rdf-syntax-ns#"
   xmlns:svg="http://www.w3.org/2000/svg"
   xmlns="http://www.w3.org/2000/svg"
   xmlns:sodipodi="http://sodipodi.sourceforge.net/DTD/sodipodi-0.dtd"
   xmlns:inkscape="http://www.inkscape.org/namespaces/inkscape"
   viewBox="0 0 36 36"
   version="1.1"
   id="svg16"
   sodipodi:docname="1f414.svg"
   inkscape:version="1.0.1 (3bc2e813f5, 2020-09-07)">
  <metadata
     id="metadata22">
    <rdf:RDF>
      <cc:Work
         rdf:about="">
        <dc:format>image/svg+xml</dc:format>
        <dc:type
           rdf:resource="http://purl.org/dc/dcmitype/StillImage" />
        <dc:title></dc:title>
      </cc:Work>
    </rdf:RDF>
  </metadata>
  <defs
     id="defs20" />
  <sodipodi:namedview
     pagecolor="#ffffff"
     bordercolor="#666666"
     borderopacity="1"
     objecttolerance="10"
     gridtolerance="10"
     guidetolerance="10"
     inkscape:pageopacity="0"
     inkscape:pageshadow="2"
     inkscape:window-width="1920"
     inkscape:window-height="1053"
     id="namedview18"
     showgrid="false"
     inkscape:zoom="23.305556"
     inkscape:cx="18"
     inkscape:cy="18"
     inkscape:window-x="1920"
     inkscape:window-y="27"
     inkscape:window-maximized="1"
     inkscape:current-layer="svg16" />
  <path
     fill="#E1E8ED"
     d="M20.143 32.215c0 1.183-.959 2.143-2.143 2.143s-2.143-.96-2.143-2.143c0-1.184.96-2.144 2.143-2.144s2.143.96 2.143 2.144z"
     id="path2" />
  <path
     fill="#E1E8ED"
     d="M27.643 15.643C27.643 10.317 23.324 6 18 6c-5.326 0-9.643 4.317-9.643 9.643 0 5.357-1.071 16.572-1.071 16.572 0 1.183.959 2.143 2.143 2.143 1.183 0 2.143-.96 2.143-2.143 0 1.183.96 2.143 2.143 2.143 1.183 0 2.142-.96 2.142-2.143h4.286c0 1.183.96 2.143 2.144 2.143 1.183 0 2.143-.96 2.143-2.143 0 1.183.959 2.143 2.143 2.143 1.184 0 2.143-.96 2.143-2.143-.002 0-1.073-11.215-1.073-16.572z"
     id="path4" />
  <path
     d="m 20,3 c 0,2.209 -1.447,6 -2,6 -0.552,0 -2,-3.791 -2,-6 0,-2.209 1.448,-3 2,-3 0.553,0 2,0.791 2,3 z"
     id="path6"
     style="fill:#dd2e44;fill-opacity:1" />
</svg>
