<?xml version="1.0" encoding="UTF-8" standalone="no"?>
<svg
   xmlns:dc="http://purl.org/dc/elements/1.1/"
   xmlns:cc="http://creativecommons.org/ns#"
   xmlns:rdf="http://www.w3.org/1999/02/22-rdf-syntax-ns#"
   xmlns:svg="http://www.w3.org/2000/svg"
   xmlns="http://www.w3.org/2000/svg"
   xmlns:sodipodi="http://sodipodi.sourceforge.net/DTD/sodipodi-0.dtd"
   xmlns:inkscape="http://www.inkscape.org/namespaces/inkscape"
   viewBox="0 0 36 36"
   version="1.1"
   id="svg16"
   sodipodi:docname="1f417.svg"
   inkscape:version="1.0.1 (3bc2e813f5, 2020-09-07)">
  <metadata
     id="metadata22">
    <rdf:RDF>
      <cc:Work
         rdf:about="">
        <dc:format>image/svg+xml</dc:format>
        <dc:type
           rdf:resource="http://purl.org/dc/dcmitype/StillImage" />
        <dc:title></dc:title>
      </cc:Work>
    </rdf:RDF>
  </metadata>
  <defs
     id="defs20" />
  <sodipodi:namedview
     pagecolor="#ffffff"
     bordercolor="#666666"
     borderopacity="1"
     objecttolerance="10"
     gridtolerance="10"
     guidetolerance="10"
     inkscape:pageopacity="0"
     inkscape:pageshadow="2"
     inkscape:window-width="1920"
     inkscape:window-height="1053"
     id="namedview18"
     showgrid="false"
     inkscape:zoom="23.305556"
     inkscape:cx="18"
     inkscape:cy="18"
     inkscape:window-x="0"
     inkscape:window-y="27"
     inkscape:window-maximized="1"
     inkscape:current-layer="svg16" />
  <path
     fill="#C1694F"
     d="M33.359 13.254c1.434-3.462 2.06-11.534 1.262-12.004-.704-.416-5.641 1.084-8.34 3.205C23.883 2.909 21.085 2 18 2c-3.085 0-5.883.91-8.281 2.455C7.02 2.334 2.082.834 1.378 1.25c-.797.47-.171 8.543 1.263 12.004C1.59 15.818 1 18.623 1 21.479 1 31.468 2 36 18 36s17-4.532 17-14.521c0-2.856-.59-5.662-1.641-8.225z"
     id="path2" />
  <path
     fill="#662113"
     d="M32.878 12.157c.929-3.252 1.081-7.708.524-8.037-.411-.243-2.78.633-5.009 1.972 1.851 1.663 3.373 3.736 4.485 6.065zM7.607 6.092c-2.23-1.339-4.599-2.215-5.01-1.972-.557.329-.405 4.786.525 8.038 1.112-2.33 2.634-4.402 4.485-6.066z"
     id="path4" />
  <path
     fill="#C1694F"
     d="M15 24.6c0 1.857-.34 2.4-1.5 2.4s-1.5-.543-1.5-2.4c0-1.856.34-2.399 1.5-2.399s1.5.542 1.5 2.399zm9 0c0 1.857-.34 2.4-1.5 2.4s-1.5-.543-1.5-2.4c0-1.856.34-2.399 1.5-2.399s1.5.542 1.5 2.399z"
     id="path12" />
</svg>
