<?xml version="1.0" encoding="UTF-8" standalone="no"?>
<svg
   xmlns:dc="http://purl.org/dc/elements/1.1/"
   xmlns:cc="http://creativecommons.org/ns#"
   xmlns:rdf="http://www.w3.org/1999/02/22-rdf-syntax-ns#"
   xmlns:svg="http://www.w3.org/2000/svg"
   xmlns="http://www.w3.org/2000/svg"
   xmlns:sodipodi="http://sodipodi.sourceforge.net/DTD/sodipodi-0.dtd"
   xmlns:inkscape="http://www.inkscape.org/namespaces/inkscape"
   viewBox="0 0 36 36"
   version="1.1"
   id="svg16"
   sodipodi:docname="1f42e.svg"
   inkscape:version="1.0.1 (3bc2e813f5, 2020-09-07)">
  <metadata
     id="metadata22">
    <rdf:RDF>
      <cc:Work
         rdf:about="">
        <dc:format>image/svg+xml</dc:format>
        <dc:type
           rdf:resource="http://purl.org/dc/dcmitype/StillImage" />
        <dc:title></dc:title>
      </cc:Work>
    </rdf:RDF>
  </metadata>
  <defs
     id="defs20" />
  <sodipodi:namedview
     pagecolor="#ffffff"
     bordercolor="#666666"
     borderopacity="1"
     objecttolerance="10"
     gridtolerance="10"
     guidetolerance="10"
     inkscape:pageopacity="0"
     inkscape:pageshadow="2"
     inkscape:window-width="1920"
     inkscape:window-height="1053"
     id="namedview18"
     showgrid="false"
     inkscape:zoom="23.305556"
     inkscape:cx="18"
     inkscape:cy="18"
     inkscape:window-x="0"
     inkscape:window-y="27"
     inkscape:window-maximized="1"
     inkscape:current-layer="svg16" />
  <path
     fill="#99AAB5"
     d="M4 8s-4 2-4 11c0 0 6-1 7-3 0 0 2-12.25-3-8zm27.995.043s4 2 4 11c0 0-6-.999-7-2.999 0 0-2-12.251 3-8.001z"
     id="path2" />
  <path
     fill="#FFE8B6"
     d="M1 1c-1.01.99 1 8 5 9s4-5 3-5C5 5 3.042-1 1 1zm34.297 0c1.011.99-1 8-5 9s-4-5-3-5c4 0 5.959-6 8-4z"
     id="path4" />
  <path
     fill="#CCD6DD"
     d="M21.976 31h-7.951C8.488 31 4 26.512 4 20.976v-8.951C4 6.488 8.488 2 14.025 2h7.951C27.512 2 32 6.488 32 12.025v8.951C32 26.512 27.512 31 21.976 31z"
     id="path6" />
  <path
     fill="#E6AAAA"
     d="M35 28c0 5.522-4.478 8-10 8H11c-5.523 0-10-2.478-10-8s4.477-10 10-10h14c5.522 0 10 4.478 10 10z"
     id="path8" />
</svg>
