<?xml version="1.0" encoding="UTF-8" standalone="no"?>
<svg
   xmlns:dc="http://purl.org/dc/elements/1.1/"
   xmlns:cc="http://creativecommons.org/ns#"
   xmlns:rdf="http://www.w3.org/1999/02/22-rdf-syntax-ns#"
   xmlns:svg="http://www.w3.org/2000/svg"
   xmlns="http://www.w3.org/2000/svg"
   xmlns:sodipodi="http://sodipodi.sourceforge.net/DTD/sodipodi-0.dtd"
   xmlns:inkscape="http://www.inkscape.org/namespaces/inkscape"
   viewBox="0 0 36 36"
   version="1.1"
   id="svg22"
   sodipodi:docname="1f42d.svg"
   inkscape:version="1.0.1 (3bc2e813f5, 2020-09-07)">
  <metadata
     id="metadata28">
    <rdf:RDF>
      <cc:Work
         rdf:about="">
        <dc:format>image/svg+xml</dc:format>
        <dc:type
           rdf:resource="http://purl.org/dc/dcmitype/StillImage" />
        <dc:title></dc:title>
      </cc:Work>
    </rdf:RDF>
  </metadata>
  <defs
     id="defs26" />
  <sodipodi:namedview
     pagecolor="#ffffff"
     bordercolor="#666666"
     borderopacity="1"
     objecttolerance="10"
     gridtolerance="10"
     guidetolerance="10"
     inkscape:pageopacity="0"
     inkscape:pageshadow="2"
     inkscape:window-width="1920"
     inkscape:window-height="1053"
     id="namedview24"
     showgrid="false"
     inkscape:zoom="23.305556"
     inkscape:cx="18"
     inkscape:cy="18"
     inkscape:window-x="0"
     inkscape:window-y="27"
     inkscape:window-maximized="1"
     inkscape:current-layer="svg22" />
  <circle
     fill="#99AAB5"
     cx="8.5"
     cy="9.5"
     r="8.5"
     id="circle2" />
  <circle
     fill="#99AAB5"
     cx="27.5"
     cy="9.5"
     r="8.5"
     id="circle4" />
  <path
     fill="#F4ABBA"
     d="M13.812 10.031c0 3.228-2.617 5.844-5.844 5.844s-5.844-2.616-5.844-5.844c0-3.227 2.617-5.844 5.844-5.844s5.844 2.617 5.844 5.844zm20.063 0c0 3.228-2.617 5.844-5.844 5.844-3.227 0-5.844-2.616-5.844-5.844 0-3.227 2.617-5.844 5.844-5.844 3.227.001 5.844 2.617 5.844 5.844z"
     id="path6" />
  <path
     fill="#99AAB5"
     d="M30 18c0 7.18-8 15-12 15S6 25.18 6 18s7-9 12-9 12 1.82 12 9z"
     id="path8" />
</svg>
