<?xml version="1.0" encoding="UTF-8" standalone="no"?>
<svg
   xmlns:dc="http://purl.org/dc/elements/1.1/"
   xmlns:cc="http://creativecommons.org/ns#"
   xmlns:rdf="http://www.w3.org/1999/02/22-rdf-syntax-ns#"
   xmlns:svg="http://www.w3.org/2000/svg"
   xmlns="http://www.w3.org/2000/svg"
   xmlns:sodipodi="http://sodipodi.sourceforge.net/DTD/sodipodi-0.dtd"
   xmlns:inkscape="http://www.inkscape.org/namespaces/inkscape"
   viewBox="0 0 36 36"
   version="1.1"
   id="svg22"
   sodipodi:docname="1f42f.svg"
   inkscape:version="1.0.1 (3bc2e813f5, 2020-09-07)">
  <metadata
     id="metadata28">
    <rdf:RDF>
      <cc:Work
         rdf:about="">
        <dc:format>image/svg+xml</dc:format>
        <dc:type
           rdf:resource="http://purl.org/dc/dcmitype/StillImage" />
        <dc:title></dc:title>
      </cc:Work>
    </rdf:RDF>
  </metadata>
  <defs
     id="defs26" />
  <sodipodi:namedview
     pagecolor="#ffffff"
     bordercolor="#666666"
     borderopacity="1"
     objecttolerance="10"
     gridtolerance="10"
     guidetolerance="10"
     inkscape:pageopacity="0"
     inkscape:pageshadow="2"
     inkscape:window-width="1920"
     inkscape:window-height="1053"
     id="namedview24"
     showgrid="false"
     inkscape:zoom="23.305556"
     inkscape:cx="18"
     inkscape:cy="18"
     inkscape:window-x="0"
     inkscape:window-y="27"
     inkscape:window-maximized="1"
     inkscape:current-layer="svg22" />
  <circle
     fill="#FFCC4D"
     cx="7"
     cy="6"
     r="6"
     id="circle2" />
  <circle
     fill="#FFCC4D"
     cx="18"
     cy="30"
     r="6"
     id="circle4" />
  <circle
     fill="#FFCC4D"
     cx="29"
     cy="6"
     r="6"
     id="circle8" />
  <circle
     fill="#E6AAAA"
     cx="7"
     cy="6"
     r="4"
     id="circle10" />
  <circle
     fill="#E6AAAA"
     cx="29"
     cy="6"
     r="4"
     id="circle12" />
  <path
     fill="#FFCC4D"
     d="M34 22c0 7-4.923 7-4.923 7H6.923S2 29 2 22C2 22 3.231 0 18 0c14.77 0 16 22 16 22z"
     id="path14" />
  <path
     fill="#FFF"
     d="M23.678 23c-2.402 0-4.501.953-5.678 2.378C16.823 23.953 14.723 23 12.321 23 2 23 2.043 23.421 2 26.182c-.087 5.61 6.63 6.9 10.321 6.818 2.401-.053 4.502-.989 5.679-2.397 1.177 1.408 3.276 2.345 5.678 2.397 3.691.082 10.409-1.208 10.321-6.818-.043-2.761 0-3.182-10.321-3.182z"
     id="path18" />
  <path
     fill="#272B2B"
     d="M33.66 25.242c.204.279.333.588.339.939.03 1.905-.745 3.303-1.915 4.327L26.999 31l6.661-5.758zM15 25c-1 1 2 4 3 4s4-3 3-4-5-1-6 0zM10 3c2.667 2 8 4 8 4s5.333-2 8-4l-8 1-8-1zm8-1s1.652-.62 3.576-1.514C20.48.178 19.295 0 18 0s-2.481.178-3.576.486C16.348 1.38 18 2 18 2zm-7 7c3 2 7 4 7 4s4-2 7-4l-7 1-7-1zm20.645 2.285L27 15l6.006.75c-.334-1.401-.777-2.928-1.361-4.465zm1.911 7.159L28 24h5.835c.102-.595.165-1.251.165-2 0 0-.081-1.43-.444-3.556zm-31.112 0C2.082 20.57 2 22 2 22c0 .748.063 1.405.165 2H8l-5.556-5.556zm-.105 6.798c-.204.279-.333.588-.339.94-.03 1.905.745 3.303 1.916 4.327L9 31l-6.661-5.758zM9 15l-4.644-3.715c-.584 1.537-1.028 3.064-1.361 4.466L9 15z"
     id="path20" />
</svg>
