<?xml version="1.0" encoding="UTF-8" standalone="no"?>
<svg
   xmlns:dc="http://purl.org/dc/elements/1.1/"
   xmlns:cc="http://creativecommons.org/ns#"
   xmlns:rdf="http://www.w3.org/1999/02/22-rdf-syntax-ns#"
   xmlns:svg="http://www.w3.org/2000/svg"
   xmlns="http://www.w3.org/2000/svg"
   xmlns:sodipodi="http://sodipodi.sourceforge.net/DTD/sodipodi-0.dtd"
   xmlns:inkscape="http://www.inkscape.org/namespaces/inkscape"
   viewBox="0 0 36 36"
   version="1.1"
   id="svg26"
   sodipodi:docname="1f43c.svg"
   inkscape:version="1.0.1 (3bc2e813f5, 2020-09-07)">
  <metadata
     id="metadata32">
    <rdf:RDF>
      <cc:Work
         rdf:about="">
        <dc:format>image/svg+xml</dc:format>
        <dc:type
           rdf:resource="http://purl.org/dc/dcmitype/StillImage" />
        <dc:title></dc:title>
      </cc:Work>
    </rdf:RDF>
  </metadata>
  <defs
     id="defs30" />
  <sodipodi:namedview
     pagecolor="#ffffff"
     bordercolor="#666666"
     borderopacity="1"
     objecttolerance="10"
     gridtolerance="10"
     guidetolerance="10"
     inkscape:pageopacity="0"
     inkscape:pageshadow="2"
     inkscape:window-width="1920"
     inkscape:window-height="1053"
     id="namedview28"
     showgrid="false"
     inkscape:zoom="23.305556"
     inkscape:cx="18"
     inkscape:cy="18"
     inkscape:window-x="0"
     inkscape:window-y="27"
     inkscape:window-maximized="1"
     inkscape:current-layer="svg26" />
  <circle
     fill="#272B2B"
     cx="7"
     cy="6"
     r="6"
     id="circle2" />
  <circle
     fill="#272B2B"
     cx="29"
     cy="6"
     r="6"
     id="circle4" />
  <circle
     fill="#66757F"
     cx="7"
     cy="6"
     r="4"
     id="circle6" />
  <circle
     fill="#66757F"
     cx="29"
     cy="6"
     r="4"
     id="circle8" />
  <path
     fill="#EEE"
     d="M35 22c0 7-6.375 12-17 12S1 29 1 22C1 22 2.308 0 18 0s17 22 17 22z"
     id="path10" />
  <circle
     fill="#CCD6DD"
     cx="18"
     cy="30"
     r="6"
     id="circle12" />
  <path
     fill="#FFF"
     d="M18 20S7 23.687 7 27s2.687 6 6 6c2.088 0 3.925-1.067 5-2.685C19.074 31.933 20.912 33 23 33c3.313 0 6-2.687 6-6s-11-7-11-7z"
     id="path20" />
  <path
     fill="#272B2B"
     d="M13.125 25c-1.624 1 3.25 4 4.875 4s6.499-3 4.874-4-8.124-1-9.749 0z"
     id="path24" />
</svg>
