<?xml version="1.0" encoding="UTF-8" standalone="no"?>
<svg
   xmlns:dc="http://purl.org/dc/elements/1.1/"
   xmlns:cc="http://creativecommons.org/ns#"
   xmlns:rdf="http://www.w3.org/1999/02/22-rdf-syntax-ns#"
   xmlns:svg="http://www.w3.org/2000/svg"
   xmlns="http://www.w3.org/2000/svg"
   xmlns:sodipodi="http://sodipodi.sourceforge.net/DTD/sodipodi-0.dtd"
   xmlns:inkscape="http://www.inkscape.org/namespaces/inkscape"
   viewBox="0 0 36 36"
   version="1.1"
   id="svg12"
   sodipodi:docname="1f437.svg"
   inkscape:version="1.0.1 (3bc2e813f5, 2020-09-07)">
  <metadata
     id="metadata18">
    <rdf:RDF>
      <cc:Work
         rdf:about="">
        <dc:format>image/svg+xml</dc:format>
        <dc:type
           rdf:resource="http://purl.org/dc/dcmitype/StillImage" />
        <dc:title></dc:title>
      </cc:Work>
    </rdf:RDF>
  </metadata>
  <defs
     id="defs16" />
  <sodipodi:namedview
     pagecolor="#ffffff"
     bordercolor="#666666"
     borderopacity="1"
     objecttolerance="10"
     gridtolerance="10"
     guidetolerance="10"
     inkscape:pageopacity="0"
     inkscape:pageshadow="2"
     inkscape:window-width="1920"
     inkscape:window-height="1053"
     id="namedview14"
     showgrid="false"
     inkscape:zoom="23.305556"
     inkscape:cx="18"
     inkscape:cy="18"
     inkscape:window-x="1920"
     inkscape:window-y="27"
     inkscape:window-maximized="1"
     inkscape:current-layer="svg12" />
  <path
     d="m 34.193,13.329 c 0.387,-0.371 0.733,-0.795 1.019,-1.28 C 36.898,9.195 35.482,1.757 34.62,1.249 33.925,0.838 29.091,2.299 26.374,4.381 23.876,2.884 21.031,2 18,2 14.979,2 12.144,2.879 9.651,4.367 6.93,2.293 2.119,0.839 1.424,1.249 0.563,1.757 -0.852,9.196 0.832,12.049 1.11,12.52 1.447,12.933 1.821,13.298 0.666,15.85 0,18.64 0,21.479 0,31.468 8.011,34 18,34 c 9.989,0 18,-2.532 18,-12.521 0,-2.828 -0.66,-5.606 -1.807,-8.15 z"
     id="path2"
     style="fill:#f4abba;fill-opacity:1" />
  <path
     d="m 33.753,12.384 c 0.733,-3.267 0.219,-7.928 -0.351,-8.265 -0.398,-0.235 -2.635,0.578 -4.801,1.845 2.114,1.739 3.88,3.938 5.152,6.42 z"
     id="path847"
     style="fill:#ea596e;fill-opacity:1" />
  <path
     d="M 7.398,5.965 C 5.232,4.698 2.996,3.885 2.598,4.12 2.028,4.457 1.515,9.118 2.246,12.385 3.519,9.902 5.286,7.703 7.398,5.965 Z"
     id="path4"
     style="fill:#ea596e;fill-opacity:1" />
</svg>
