<?xml version="1.0" encoding="UTF-8" standalone="no"?>
<svg
   xmlns:dc="http://purl.org/dc/elements/1.1/"
   xmlns:cc="http://creativecommons.org/ns#"
   xmlns:rdf="http://www.w3.org/1999/02/22-rdf-syntax-ns#"
   xmlns:svg="http://www.w3.org/2000/svg"
   xmlns="http://www.w3.org/2000/svg"
   xmlns:sodipodi="http://sodipodi.sourceforge.net/DTD/sodipodi-0.dtd"
   xmlns:inkscape="http://www.inkscape.org/namespaces/inkscape"
   viewBox="0 0 36 36"
   version="1.1"
   id="svg32"
   sodipodi:docname="1f479.svg"
   inkscape:version="1.0.1 (3bc2e813f5, 2020-09-07)">
  <metadata
     id="metadata38">
    <rdf:RDF>
      <cc:Work
         rdf:about="">
        <dc:format>image/svg+xml</dc:format>
        <dc:type
           rdf:resource="http://purl.org/dc/dcmitype/StillImage" />
        <dc:title></dc:title>
      </cc:Work>
    </rdf:RDF>
  </metadata>
  <defs
     id="defs36" />
  <sodipodi:namedview
     pagecolor="#ffffff"
     bordercolor="#666666"
     borderopacity="1"
     objecttolerance="10"
     gridtolerance="10"
     guidetolerance="10"
     inkscape:pageopacity="0"
     inkscape:pageshadow="2"
     inkscape:window-width="1920"
     inkscape:window-height="1053"
     id="namedview34"
     showgrid="false"
     inkscape:zoom="23.305556"
     inkscape:cx="19.275071"
     inkscape:cy="18.737853"
     inkscape:window-x="1920"
     inkscape:window-y="27"
     inkscape:window-maximized="1"
     inkscape:current-layer="svg32" />
  <path
     fill="#292F33"
     d="M32 23s7 0 1-8c0 0 6-2-2-7 0 0 6-6.017-7-3 0 0 0-5-2-5s-4 4-4 4-2-4-4-4-2 5-2 5C-1 1.928 5 8 5 8c-8 5-2 7-2 7-6 8 1 8 1 8s-4 2-4 5 3 2 6 2c-7 9 12 1 12 1s19 8 12-1c3 0 6 1 6-2s-4-5-4-5z"
     id="path2" />
  <path
     fill="#DD2E44"
     d="M28.963 16s-.26-6.519-3.982-9C21.982 5 20 5 18 5c-2.089 0-4 0-7 2-3.721 2.481-4 9-4 9-1 0-2.271 2.291-2 5 .289 2.889 2 4 2 4 0 4 3 7 3 7 0 2 0 3 4 3h7.963c4.037 0 4-1 4-3 0 0 3-3 3-7 0 0 1.711-1.111 2-4 .271-2.709-1-5-2-5z"
     id="path4" />
  <path
     fill="#BE1931"
     d="M23.663 34.095c-.63 0-1.292-.273-1.975-.816-.96-.765-1.864-1.484-3.688-1.484s-2.729.72-3.687 1.483c-1.186.945-2.439.944-3.624.002-.216-.172-.252-.487-.08-.703.171-.216.486-.252.703-.08.821.654 1.556.654 2.377 0 1.003-.798 2.138-1.701 4.311-1.701 2.174 0 3.309.903 4.31 1.7.578.46 1.096.654 1.531.587.477-.075.729-.449.738-.465.151-.229.46-.296.69-.147.229.148.3.452.154.684-.049.077-.5.759-1.403.912-.118.018-.237.028-.357.028z"
     id="path26" />
  <path
     fill="#F4900C"
     d="M6.002.95c.026-.497.435-.896.92-.936.632-.053.912.447 1.146.953.73 1.574 1.508 3.121 2.544 4.52.72.973 1.589 2.014 2.696 2.564.589.197.862.911.55 1.449.525.911-.513 1.79-1.366 1.364-1.16.67-3.078-1.545-3.733-2.334-.846-1.019-1.496-2.191-1.954-3.43-.469-1.27-.883-2.779-.803-4.15zm23.988 0c-.026-.497-.435-.896-.92-.936-.632-.053-.912.447-1.146.953-.73 1.574-1.508 3.121-2.544 4.52-.72.973-1.589 2.014-2.696 2.564-.589.197-.862.911-.55 1.449-.525.911.513 1.79 1.366 1.364 1.16.67 3.078-1.545 3.733-2.334.846-1.018 1.496-2.19 1.954-3.429.469-1.271.883-2.78.803-4.151z"
     id="path28" />
</svg>
