<?xml version="1.0" encoding="UTF-8" standalone="no"?>
<svg
   xmlns:dc="http://purl.org/dc/elements/1.1/"
   xmlns:cc="http://creativecommons.org/ns#"
   xmlns:rdf="http://www.w3.org/1999/02/22-rdf-syntax-ns#"
   xmlns:svg="http://www.w3.org/2000/svg"
   xmlns="http://www.w3.org/2000/svg"
   xmlns:sodipodi="http://sodipodi.sourceforge.net/DTD/sodipodi-0.dtd"
   xmlns:inkscape="http://www.inkscape.org/namespaces/inkscape"
   viewBox="0 0 36 36"
   version="1.1"
   id="svg16"
   sodipodi:docname="1f4a9.svg"
   inkscape:version="1.0.1 (3bc2e813f5, 2020-09-07)">
  <metadata
     id="metadata22">
    <rdf:RDF>
      <cc:Work
         rdf:about="">
        <dc:format>image/svg+xml</dc:format>
        <dc:type
           rdf:resource="http://purl.org/dc/dcmitype/StillImage" />
        <dc:title></dc:title>
      </cc:Work>
    </rdf:RDF>
  </metadata>
  <defs
     id="defs20" />
  <sodipodi:namedview
     pagecolor="#ffffff"
     bordercolor="#666666"
     borderopacity="1"
     objecttolerance="10"
     gridtolerance="10"
     guidetolerance="10"
     inkscape:pageopacity="0"
     inkscape:pageshadow="2"
     inkscape:window-width="1920"
     inkscape:window-height="1053"
     id="namedview18"
     showgrid="false"
     inkscape:zoom="23.305556"
     inkscape:cx="18"
     inkscape:cy="18"
     inkscape:window-x="0"
     inkscape:window-y="27"
     inkscape:window-maximized="1"
     inkscape:current-layer="svg16" />
  <path
     fill="#BF6952"
     d="M33.541 23.198c.364-1.578.243-3.266-.458-4.946-.678-1.625-1.847-2.91-3.271-3.773.318-1.192.234-2.475-.324-3.75-.841-1.92-2.66-3.201-4.712-3.562.249-.572.329-1.289.036-2.167-1-3-5-1-8-4.999-2.44 1.464-2.97 3.64-2.878 5.487-2.421.412-3.8.936-3.8.936v.002c-1.36.55-2.322 1.883-2.322 3.442 0 .879.318 1.676.828 2.312l-.692.258.001.003c-2.33.871-3.975 2.976-3.975 5.439 0 1.047.3 2.027.82 2.878C1.971 22.027 0 24.781 0 28c0 4.418 3.691 8 8.244 8 3.269 0 6.559-.703 9.531-1.665C20.018 35.375 23.47 36 28.667 36 32.717 36 36 32.717 36 28.667c0-2.176-.953-4.125-2.459-5.469z"
     id="path2" />
</svg>
