<?xml version="1.0" encoding="UTF-8" standalone="no"?>
<svg
   xmlns:dc="http://purl.org/dc/elements/1.1/"
   xmlns:cc="http://creativecommons.org/ns#"
   xmlns:rdf="http://www.w3.org/1999/02/22-rdf-syntax-ns#"
   xmlns:svg="http://www.w3.org/2000/svg"
   xmlns="http://www.w3.org/2000/svg"
   xmlns:sodipodi="http://sodipodi.sourceforge.net/DTD/sodipodi-0.dtd"
   xmlns:inkscape="http://www.inkscape.org/namespaces/inkscape"
   viewBox="0 0 36 36"
   version="1.1"
   id="svg14"
   sodipodi:docname="1f607.svg"
   inkscape:version="1.0.1 (3bc2e813f5, 2020-09-07)">
  <metadata
     id="metadata20">
    <rdf:RDF>
      <cc:Work
         rdf:about="">
        <dc:format>image/svg+xml</dc:format>
        <dc:type
           rdf:resource="http://purl.org/dc/dcmitype/StillImage" />
        <dc:title></dc:title>
      </cc:Work>
    </rdf:RDF>
  </metadata>
  <defs
     id="defs18" />
  <sodipodi:namedview
     pagecolor="#ffffff"
     bordercolor="#666666"
     borderopacity="1"
     objecttolerance="10"
     gridtolerance="10"
     guidetolerance="10"
     inkscape:pageopacity="0"
     inkscape:pageshadow="2"
     inkscape:window-width="1920"
     inkscape:window-height="1053"
     id="namedview16"
     showgrid="false"
     inkscape:zoom="23.305556"
     inkscape:cx="18"
     inkscape:cy="18"
     inkscape:window-x="1920"
     inkscape:window-y="27"
     inkscape:window-maximized="1"
     inkscape:current-layer="svg14" />
  <circle
     fill="#FFCC4D"
     cx="18"
     cy="18"
     r="18"
     id="circle2" />
  <path
     fill="#FFAC33"
     d="M33.175 8.316s-9.042.161-15.175.161c-3.905 0-15.206-.118-15.206-.118l-.521.876c3.043 1.856 9.064 2.917 15.727 2.917 6.596 0 12.576-1.04 15.652-2.86l.078-.047s-.374-.664-.555-.929z"
     id="path6" />
  <path
     fill="#5DADEC"
     d="M23.777.345c-1.212-.094-2.473-.159-3.773-.19C19.343.139 18.676.129 18 .129c-.672 0-1.336.01-1.993.025-1.302.031-2.564.096-3.777.19C5.34.88.169 2.451.169 5.287c0 3.588 8.264 5.771 17.831 5.771s17.831-2.183 17.831-5.771c0-2.835-5.168-4.405-12.054-4.942zM18 7.383c-6.861 0-12.91-.833-12.91-2.736 0-.536.494-1.023 1.339-1.449 1.153-.581 2.978-1.044 5.189-1.349 1.911-.262 4.098-.41 6.382-.41 2.291 0 4.485.148 6.4.413 2.242.31 4.086.783 5.232 1.377.807.418 1.278.894 1.278 1.418 0 1.903-6.049 2.736-12.91 2.736z"
     id="path8" />
  <path
     fill="#3B94D9"
     d="M24.4 1.853c2.242.31 4.086.783 5.232 1.377l.062.017c-2.285-1.674-4.57-2.56-5.917-2.902-1.212-.094-2.473-.159-3.773-.19l.018.007L24.4 1.853zM6.429 3.199c1.153-.581 2.978-1.044 5.189-1.349L15.984.162l.023-.008c-1.302.031-2.564.096-3.777.19-1.347.342-3.633 1.227-5.919 2.902l.118-.047z"
     id="path10" />
  <path
     fill="#FFCC4D"
     d="M28.472 3.375c-.66-.443-1.346-.91-2.001-1.26C23.947.765 21.063 0 18 0c-2.929 0-5.695.7-8.14 1.941-1.089.553-1.881.999-2.17 1.434h20.782z"
     id="path12" />
</svg>
