<?xml version="1.0" encoding="UTF-8" standalone="no"?>
<svg
   xmlns:dc="http://purl.org/dc/elements/1.1/"
   xmlns:cc="http://creativecommons.org/ns#"
   xmlns:rdf="http://www.w3.org/1999/02/22-rdf-syntax-ns#"
   xmlns:svg="http://www.w3.org/2000/svg"
   xmlns="http://www.w3.org/2000/svg"
   xmlns:sodipodi="http://sodipodi.sourceforge.net/DTD/sodipodi-0.dtd"
   xmlns:inkscape="http://www.inkscape.org/namespaces/inkscape"
   viewBox="0 0 36 36"
   version="1.1"
   id="svg12"
   sodipodi:docname="1f631.svg"
   inkscape:version="1.0.1 (3bc2e813f5, 2020-09-07)">
  <metadata
     id="metadata18">
    <rdf:RDF>
      <cc:Work
         rdf:about="">
        <dc:format>image/svg+xml</dc:format>
        <dc:type
           rdf:resource="http://purl.org/dc/dcmitype/StillImage" />
        <dc:title></dc:title>
      </cc:Work>
    </rdf:RDF>
  </metadata>
  <defs
     id="defs16" />
  <sodipodi:namedview
     pagecolor="#ffffff"
     bordercolor="#666666"
     borderopacity="1"
     objecttolerance="10"
     gridtolerance="10"
     guidetolerance="10"
     inkscape:pageopacity="0"
     inkscape:pageshadow="2"
     inkscape:window-width="1920"
     inkscape:window-height="1053"
     id="namedview14"
     showgrid="false"
     inkscape:zoom="16"
     inkscape:cx="14.645672"
     inkscape:cy="28.578459"
     inkscape:window-x="1920"
     inkscape:window-y="27"
     inkscape:window-maximized="1"
     inkscape:current-layer="svg12" />
  <path
     fill="#FFCC4D"
     d="M18 0C8.06 0 0 8.06 0 18c0 6.051 2.996 11.392 7.574 14.655C7.678 26.217 5.337 19 1.404 19c-.464 0-.84.066-1.153.183C.554 18.426 1.211 18 2.44 18c4.27 0 6.666 8.506 6.092 15.288C11.286 34.997 14.522 36 18 36c3.479 0 6.716-1.004 9.47-2.713C26.893 26.48 29.288 18 33.561 18c1.233 0 1.892.426 2.192 1.183-.314-.117-.691-.183-1.157-.183-3.938 0-6.278 7.199-6.17 13.655C33.005 29.392 36 24.051 36 18c0-9.94-8.059-18-18-18z"
     id="path2" />
  <path
     fill="#BDDDF4"
     d="M18 0C8.06 0 0 8.06 0 18c0 1.192.123 2.356.344 3.484.234-.863.6-1.691 1.058-2.484-.463 0-.838.066-1.15.183.264-.659.822-1.048 1.768-1.142C5.012 13.862 11.037 11 18 11c6.964 0 12.988 2.861 15.98 7.04.95.094 1.51.482 1.772 1.143-.312-.117-.689-.183-1.153-.183.458.793.823 1.621 1.058 2.484.221-1.128.343-2.292.343-3.484 0-9.94-8.059-18-18-18z"
     id="path4" />
  <path
     fill="#FCAB40"
     d="M1.404 19c-.464 0-.84.066-1.153.183.072-.179.167-.336.281-.476C-1.33 20.998 2.849 28.54.818 36h6.46c1.19-6.96-1.235-17-5.874-17zm34.349.183c-.314-.117-.691-.183-1.157-.183-4.641 0-7.065 10.002-5.873 17h6.46c-1.906-7.045 1.656-14.089.57-16.817z"
     id="path10" />
  <path
     fill="#FCAB40"
     d="M1.404 19c-.464 0-.84.066-1.153.183.072-.179.167-.336.281-.476C-1.33 20.998 2.849 28.54.818 36h6.46c1.19-6.96-1.235-17-5.874-17zm34.349.183c-.314-.117-.691-.183-1.157-.183-4.641 0-7.065 10.002-5.873 17h6.46c-1.906-7.045 1.656-14.089.57-16.817z"
     id="path858" />
</svg>
