<?xml version="1.0" encoding="UTF-8" standalone="no"?>
<svg
   xmlns:dc="http://purl.org/dc/elements/1.1/"
   xmlns:cc="http://creativecommons.org/ns#"
   xmlns:rdf="http://www.w3.org/1999/02/22-rdf-syntax-ns#"
   xmlns:svg="http://www.w3.org/2000/svg"
   xmlns="http://www.w3.org/2000/svg"
   xmlns:sodipodi="http://sodipodi.sourceforge.net/DTD/sodipodi-0.dtd"
   xmlns:inkscape="http://www.inkscape.org/namespaces/inkscape"
   viewBox="0 0 36 36"
   version="1.1"
   id="svg30"
   sodipodi:docname="1f916.svg"
   inkscape:version="1.0.1 (3bc2e813f5, 2020-09-07)">
  <metadata
     id="metadata36">
    <rdf:RDF>
      <cc:Work
         rdf:about="">
        <dc:format>image/svg+xml</dc:format>
        <dc:type
           rdf:resource="http://purl.org/dc/dcmitype/StillImage" />
        <dc:title></dc:title>
      </cc:Work>
    </rdf:RDF>
  </metadata>
  <defs
     id="defs34" />
  <sodipodi:namedview
     pagecolor="#ffffff"
     bordercolor="#666666"
     borderopacity="1"
     objecttolerance="10"
     gridtolerance="10"
     guidetolerance="10"
     inkscape:pageopacity="0"
     inkscape:pageshadow="2"
     inkscape:window-width="1920"
     inkscape:window-height="1053"
     id="namedview32"
     showgrid="false"
     inkscape:zoom="23.305556"
     inkscape:cx="18"
     inkscape:cy="18"
     inkscape:window-x="1920"
     inkscape:window-y="27"
     inkscape:window-maximized="1"
     inkscape:current-layer="svg30" />
  <ellipse
     fill="#F4900C"
     cx="33.5"
     cy="14.5"
     rx="2.5"
     ry="3.5"
     id="ellipse2" />
  <ellipse
     fill="#F4900C"
     cx="2.5"
     cy="14.5"
     rx="2.5"
     ry="3.5"
     id="ellipse4" />
  <path
     fill="#FFAC33"
     d="M34 19c0 .553-.447 1-1 1h-3c-.553 0-1-.447-1-1v-9c0-.552.447-1 1-1h3c.553 0 1 .448 1 1v9zM7 19c0 .553-.448 1-1 1H3c-.552 0-1-.447-1-1v-9c0-.552.448-1 1-1h3c.552 0 1 .448 1 1v9z"
     id="path6" />
  <path
     fill="#FFCC4D"
     d="M28 5c0 2.761-4.478 4-10 4C12.477 9 8 7.761 8 5s4.477-5 10-5c5.522 0 10 2.239 10 5z"
     id="path8" />
  <path
     fill="#F4900C"
     d="M25 4.083C25 5.694 21.865 7 18 7c-3.866 0-7-1.306-7-2.917 0-1.611 3.134-2.917 7-2.917 3.865 0 7 1.306 7 2.917z"
     id="path10" />
  <path
     fill="#269"
     d="M30 5.5C30 6.881 28.881 7 27.5 7h-19C7.119 7 6 6.881 6 5.5S7.119 3 8.5 3h19C28.881 3 30 4.119 30 5.5z"
     id="path12" />
  <path
     fill="#55ACEE"
     d="M30 6H6c-1.104 0-2 .896-2 2v26h28V8c0-1.104-.896-2-2-2z"
     id="path14" />
  <path
     fill="#3B88C3"
     d="M35 33v-1c0-1.104-.896-2-2-2H22.071l-3.364 3.364c-.391.391-1.023.391-1.414 0L13.929 30H3c-1.104 0-2 .896-2 2v1c0 1.104-.104 2 1 2h32c1.104 0 1-.896 1-2z"
     id="path16" />
</svg>
