<?xml version="1.0" encoding="UTF-8" standalone="no"?>
<svg
   xmlns:dc="http://purl.org/dc/elements/1.1/"
   xmlns:cc="http://creativecommons.org/ns#"
   xmlns:rdf="http://www.w3.org/1999/02/22-rdf-syntax-ns#"
   xmlns:svg="http://www.w3.org/2000/svg"
   xmlns="http://www.w3.org/2000/svg"
   xmlns:sodipodi="http://sodipodi.sourceforge.net/DTD/sodipodi-0.dtd"
   xmlns:inkscape="http://www.inkscape.org/namespaces/inkscape"
   viewBox="0 0 36 36"
   version="1.1"
   id="svg38"
   sodipodi:docname="1f921.svg"
   inkscape:version="1.0.1 (3bc2e813f5, 2020-09-07)">
  <metadata
     id="metadata44">
    <rdf:RDF>
      <cc:Work
         rdf:about="">
        <dc:format>image/svg+xml</dc:format>
        <dc:type
           rdf:resource="http://purl.org/dc/dcmitype/StillImage" />
        <dc:title></dc:title>
      </cc:Work>
    </rdf:RDF>
  </metadata>
  <defs
     id="defs42" />
  <sodipodi:namedview
     pagecolor="#ffffff"
     bordercolor="#666666"
     borderopacity="1"
     objecttolerance="10"
     gridtolerance="10"
     guidetolerance="10"
     inkscape:pageopacity="0"
     inkscape:pageshadow="2"
     inkscape:window-width="1920"
     inkscape:window-height="1053"
     id="namedview40"
     showgrid="false"
     inkscape:zoom="23.305556"
     inkscape:cx="18"
     inkscape:cy="18"
     inkscape:window-x="1920"
     inkscape:window-y="27"
     inkscape:window-maximized="1"
     inkscape:current-layer="svg38" />
  <circle
     fill="#4289C1"
     cx="29"
     cy="3"
     r="2"
     id="circle2" />
  <circle
     fill="#4289C1"
     cx="33"
     cy="8"
     r="3"
     id="circle4" />
  <circle
     fill="#4289C1"
     cx="33"
     cy="4"
     r="3"
     id="circle6" />
  <circle
     fill="#4289C1"
     cx="7"
     cy="3"
     r="2"
     id="circle8" />
  <circle
     fill="#4289C1"
     cx="3"
     cy="8"
     r="3"
     id="circle10" />
  <circle
     fill="#4289C1"
     cx="3"
     cy="4"
     r="3"
     id="circle12" />
  <path
     fill="#FEE7B8"
     d="M36 18c0 9.941-8.059 18-18 18S0 27.941 0 18 8.059 0 18 0s18 8.059 18 18"
     id="path14" />
  <circle
     fill="#4289C1"
     cx="30.5"
     cy="4.5"
     r="2.5"
     id="circle16" />
  <circle
     fill="#4289C1"
     cx="32"
     cy="7"
     r="2"
     id="circle18" />
  <circle
     fill="#4289C1"
     cx="5.5"
     cy="4.5"
     r="2.5"
     id="circle20" />
  <circle
     fill="#4289C1"
     cx="4"
     cy="7"
     r="2"
     id="circle22" />
  <path
     fill="none"
     d="M27.335 23.629c-.178-.161-.444-.171-.635-.029-.039.029-3.922 2.9-8.7 2.9-4.766 0-8.662-2.871-8.7-2.9-.191-.142-.457-.13-.635.029-.177.16-.217.424-.094.628C8.7 24.472 11.788 31 18 31s9.301-6.528 9.429-6.743c.123-.205.084-.468-.094-.628z"
     id="path30" />
</svg>
