<?xml version="1.0" encoding="UTF-8" standalone="no"?>
<svg
   xmlns:dc="http://purl.org/dc/elements/1.1/"
   xmlns:cc="http://creativecommons.org/ns#"
   xmlns:rdf="http://www.w3.org/1999/02/22-rdf-syntax-ns#"
   xmlns:svg="http://www.w3.org/2000/svg"
   xmlns="http://www.w3.org/2000/svg"
   xmlns:sodipodi="http://sodipodi.sourceforge.net/DTD/sodipodi-0.dtd"
   xmlns:inkscape="http://www.inkscape.org/namespaces/inkscape"
   viewBox="0 0 36 36"
   version="1.1"
   id="svg20"
   sodipodi:docname="1f98d.svg"
   inkscape:version="1.0.1 (3bc2e813f5, 2020-09-07)">
  <metadata
     id="metadata26">
    <rdf:RDF>
      <cc:Work
         rdf:about="">
        <dc:format>image/svg+xml</dc:format>
        <dc:type
           rdf:resource="http://purl.org/dc/dcmitype/StillImage" />
        <dc:title></dc:title>
      </cc:Work>
    </rdf:RDF>
  </metadata>
  <defs
     id="defs24" />
  <sodipodi:namedview
     pagecolor="#ffffff"
     bordercolor="#666666"
     borderopacity="1"
     objecttolerance="10"
     gridtolerance="10"
     guidetolerance="10"
     inkscape:pageopacity="0"
     inkscape:pageshadow="2"
     inkscape:window-width="1920"
     inkscape:window-height="1053"
     id="namedview22"
     showgrid="false"
     inkscape:zoom="23.305556"
     inkscape:cx="18"
     inkscape:cy="18"
     inkscape:window-x="1920"
     inkscape:window-y="27"
     inkscape:window-maximized="1"
     inkscape:current-layer="svg20" />
  <path
     fill="#31373D"
     d="M5 16c0-4-5-3-4 1s3 5 3 5l1-6zm26 0c0-4 5-3 4 1s-3 5-3 5l-1-6z"
     id="path2" />
  <path
     fill="#31373D"
     d="M32.65 21.736c0 10.892-4.691 14.087-14.65 14.087-9.958 0-14.651-3.195-14.651-14.087S8.042.323 18 .323c9.959 0 14.65 10.521 14.65 21.413z"
     id="path4" />
  <path
     fill="#66757F"
     d="M27.567 23c1.49-4.458 2.088-7.312-.443-7.312H8.876c-2.532 0-1.933 2.854-.444 7.312C3.504 34.201 17.166 34.823 18 34.823S32.303 33.764 27.567 23z"
     id="path6" />
  <path
     fill="#66757F"
     d="M4.253 16.625c1.403-1.225-1.078-3.766-2.196-2.544-.341.373.921-.188 1.336 1.086.308.942.001 2.208.86 1.458zm27.493 0c-1.402-1.225 1.078-3.766 2.196-2.544.341.373-.921-.188-1.337 1.086-.306.942 0 2.208-.859 1.458z"
     id="path18" />
</svg>
