<?xml version="1.0" encoding="UTF-8" standalone="no"?>
<svg
   xmlns:dc="http://purl.org/dc/elements/1.1/"
   xmlns:cc="http://creativecommons.org/ns#"
   xmlns:rdf="http://www.w3.org/1999/02/22-rdf-syntax-ns#"
   xmlns:svg="http://www.w3.org/2000/svg"
   xmlns="http://www.w3.org/2000/svg"
   xmlns:sodipodi="http://sodipodi.sourceforge.net/DTD/sodipodi-0.dtd"
   xmlns:inkscape="http://www.inkscape.org/namespaces/inkscape"
   viewBox="0 0 36 36"
   version="1.1"
   id="svg38"
   sodipodi:docname="1f99d.svg"
   inkscape:version="1.0.1 (3bc2e813f5, 2020-09-07)">
  <metadata
     id="metadata44">
    <rdf:RDF>
      <cc:Work
         rdf:about="">
        <dc:format>image/svg+xml</dc:format>
        <dc:type
           rdf:resource="http://purl.org/dc/dcmitype/StillImage" />
        <dc:title></dc:title>
      </cc:Work>
    </rdf:RDF>
  </metadata>
  <defs
     id="defs42" />
  <sodipodi:namedview
     pagecolor="#ffffff"
     bordercolor="#666666"
     borderopacity="1"
     objecttolerance="10"
     gridtolerance="10"
     guidetolerance="10"
     inkscape:pageopacity="0"
     inkscape:pageshadow="2"
     inkscape:window-width="1920"
     inkscape:window-height="1053"
     id="namedview40"
     showgrid="false"
     inkscape:zoom="23.305556"
     inkscape:cx="18"
     inkscape:cy="18"
     inkscape:window-x="1920"
     inkscape:window-y="27"
     inkscape:window-maximized="1"
     inkscape:current-layer="svg38" />
  <path
     fill="#99AAB5"
     d="M10.668 5.616C9.032 2.479 4.439 1.005 3.584 2.298s.707 10.152 1.757 9.967c1.051-.185 5.327-6.649 5.327-6.649z"
     id="path2" />
  <path
     fill="#292F33"
     d="M9.841 7.674c-1.27-2.68-4.696-4.82-5.304-3.745-.435.771.122 5.263.757 7.696l4.547-3.951z"
     id="path4" />
  <path
     fill="#99AAB5"
     d="M25.284 5.616c1.636-3.137 6.228-4.611 7.084-3.318s-.708 10.152-1.758 9.967c-1.051-.185-5.326-6.649-5.326-6.649z"
     id="path6" />
  <path
     fill="#292F33"
     d="M26.36 7.674c1.231-2.686 4.501-4.854 5.07-3.786.416.78-.178 5.425-.815 7.825L26.36 7.674z"
     id="path8" />
  <path
     fill="#99AAB5"
     d="M33.13 13.316c-2.583-3.164-9.048-11.601-15.155-11.601S5.404 10.152 2.821 13.316C-.317 17.16-.23 21.613.573 24.193c.805 2.587 3.155 5.038 9.261 7.431 2.065.809 5.705 2.393 8.142 2.393s6.076-1.583 8.142-2.393c6.106-2.393 8.457-4.843 9.261-7.431.802-2.58.89-7.033-2.249-10.877z"
     id="path10" />
  <path
     fill="#E1E8ED"
     d="M17.976 14.408c0-4.913-4.078-4.855-6.542-4.572C6.922 10.353.076 16.597.076 20.569c0 1.39.16 2.631.496 3.624.584 1.726 1.875 3.015 5.034 5.266 3.49-8.351 12.37-11.246 12.37-15.051z"
     id="path12" />
  <path
     fill="#292F33"
     d="M17.976 15.777c0-2.399-4.389-3.04-6.649-2.678C6.443 13.882.587 20.633.572 24.07v.013c.002.006.001.111.001.111s.384 1.401 1.623 2.815c.867.991 2.346 2.068 3.333 2.584l.01-.011c2.952-3.861 6.877-6.416 10.022-7.617 1.763-.673 2.415-3.5 2.415-6.188z"
     id="path14" />
  <path
     fill="#E1E8ED"
     d="M17.976 14.408c0-4.913 4.078-4.855 6.542-4.572 4.511.518 11.357 6.762 11.357 10.734 0 1.39-.16 2.631-.496 3.624-.584 1.726-1.875 3.015-5.034 5.266-3.489-8.352-12.369-11.247-12.369-15.052z"
     id="path18" />
  <path
     fill="#292F33"
     d="M17.976 15.777c0-2.399 4.389-3.04 6.649-2.678 4.884.783 10.74 7.534 10.755 10.971v.013c-.002.006-.001.111-.001.111s-.384 1.401-1.623 2.815c-.868.991-2.347 2.068-3.333 2.584l-.01-.011c-2.952-3.861-6.877-6.416-10.022-7.617-1.763-.673-2.415-3.5-2.415-6.188z"
     id="path20" />
  <path
     fill="#66757F"
     d="M20.746 22.102c-.923-1.073-1.75-19.035-2.77-19.035s-1.847 17.962-2.77 19.035h5.54z"
     id="path24" />
  <path
     fill="#E1E8ED"
     d="M24.915 24.184c-1.636-2.06-4.164-3.705-6.94-3.705s-5.304 1.646-6.94 3.705c-1.388 1.748-1.388 3.061-.925 4.226.482 1.214 1.388 2.821 4.164 3.986.939.394 2.594 1.165 3.701 1.165 1.108 0 2.762-.771 3.701-1.165 2.776-1.165 3.682-2.772 4.164-3.986.463-1.165.463-2.478-.925-4.226z"
     id="path26" />
</svg>
